<?xml version="1.0" standalone="no"?>
<!DOCTYPE svg PUBLIC "-//W3C//DTD SVG 1.1//EN" "http://www.w3.org/Graphics/SVG/1.1/DTD/svg11.dtd" >
<svg>
<metadata>
Created by FontForge 20090622 at Tue Feb  7 12:15:42 2017
 By deploy user
Font software Copyright 1990 Adobe Systems Incorporated. Typeface Designs Copyright The Monotype Corporation. All Rights Reserved.
</metadata>
<defs>
<font id="GillSansforJL-Light" horiz-adv-x="333" >
  <font-face 
    font-family="Gill Sans for JL Light"
    font-weight="300"
    font-stretch="normal"
    units-per-em="1000"
    panose-1="2 0 3 6 4 0 0 2 0 3"
    ascent="700"
    descent="-300"
    x-height="449"
    cap-height="682"
    bbox="-215 -241.958 1050 913"
    underline-thickness="50"
    underline-position="-50"
    unicode-range="U+0020-U+FB02"
  />
<missing-glyph horiz-adv-x="278" 
 />
    <glyph glyph-name="fi" unicode="fi" horiz-adv-x="479" 
d="M235 410h-93v-410h-48v410h-82v39h82v56q0 91 41.5 138.5t119.5 47.5q71 0 111 -33t43 -93h-48q-4 45 -32.5 65.5t-71.5 20.5q-60 0 -87.5 -34.5t-27.5 -111.5v-56h93v-39zM409 0h-48v449h48v-449z" />
    <glyph glyph-name="fl" unicode="fl" horiz-adv-x="479" 
d="M249 410h-107v-410h-48v410h-82v39h82v78q0 43 13.5 74t35 51t49 29.5t55.5 9.5q18 0 33 -3.5t34 -11.5v-47q-27 9 -40.5 12t-30.5 3q-51 0 -76 -32t-25 -83v-80h107v-39zM409 0h-48v682h48v-682z" />
    <glyph glyph-name=".notdef" horiz-adv-x="278" 
 />
    <glyph glyph-name=".null" horiz-adv-x="0" 
 />
    <glyph glyph-name="nonmarkingreturn" horiz-adv-x="278" 
 />
    <glyph glyph-name="space" unicode=" " horiz-adv-x="278" 
 />
    <glyph glyph-name="Scaron" unicode="&#x160;" horiz-adv-x="469" 
d="M400 593q-45 27 -82.5 38t-75.5 11q-62 0 -100.5 -34t-38.5 -90q0 -41 24 -66.5t60 -44t78.5 -35.5t78.5 -41t60 -60t24 -93q0 -41 -14.5 -75t-41 -59t-63 -39t-79.5 -14q-47 0 -94 14.5t-88 43.5v60q57 -41 98.5 -55t83.5 -14q29 0 55 9t45 26.5t30 43t11 57.5
q0 45 -24 73t-60 48t-78.5 36.5t-78.5 39.5t-60 57t-24 88q0 37 15 69t41 55t62 36t78 13q40 0 79 -10t79 -32v-56z" />
    <glyph glyph-name="scaron" unicode="&#x161;" horiz-adv-x="354" 
d="M309 374q-37 23 -65 30t-58 7q-41 0 -67 -16.5t-26 -56.5q0 -27 17.5 -43t43 -28t56 -22.5t56 -26.5t43 -40t17.5 -63q0 -26 -10.5 -49t-29.5 -39.5t-45 -26t-56 -9.5q-45 0 -81 12t-63 29v50q45 -23 77 -33.5t67 -10.5q39 0 64.5 21t25.5 57q0 27 -17.5 43.5t-43 29
t-56 23.5t-56 27t-43 39t-17.5 60q0 28 11.5 50.5t31 38t46 23.5t55.5 8q32 0 63 -7t60 -23v-54z" />
    <glyph glyph-name="Yacute" unicode="&#xdd;" horiz-adv-x="583" 
d="M318 366v-366h-53v366l-265 316h64l228 -270l227 270h64zM311 739h-33l104 156h81z" />
    <glyph glyph-name="yacute" unicode="&#xfd;" horiz-adv-x="417" 
d="M87 -230h-49l157 317l-189 362h50l163 -314l155 314h49zM228 521h-33l104 156h81z" />
    <glyph glyph-name="Thorn" unicode="&#xde;" horiz-adv-x="510" 
d="M131 682v-159h135q60 0 102.5 -14.5t69 -39t39 -57t12.5 -69.5q0 -33 -10.5 -65.5t-37 -59t-70.5 -42.5t-110 -16h-130v-160h-53v682h53zM131 204h127q48 0 81 10.5t53.5 29.5t30 44t9.5 54q0 28 -9.5 52.5t-29.5 43.5t-52 30t-77 11h-133v-275z" />
    <glyph glyph-name="thorn" unicode="&#xfe;" horiz-adv-x="508" 
d="M111 424q38 19 69 26.5t66 7.5q48 0 88.5 -17.5t70.5 -48.5t46.5 -73.5t16.5 -92.5t-17.5 -92.5t-47.5 -74.5t-71 -50t-88 -18q-34 0 -64.5 7.5t-68.5 26.5v-255h-48v912h48v-258zM111 72q35 -19 62.5 -26.5t61.5 -7.5q40 0 73.5 13.5t57 37.5t36.5 58t13 75t-14 76
t-38.5 60t-59 39t-74.5 14q-30 0 -56.5 -7t-61.5 -26v-306z" />
    <glyph glyph-name="Zcaron" unicode="&#x17d;" horiz-adv-x="635" 
d="M607 663l-511 -619h515v-44h-597l-5 15l511 623h-488v44h570zM448 896.032h-34l-103 -112.993l-104 112.993h-34l108 -155.991h61z" />
    <glyph glyph-name="zcaron" unicode="&#x17e;" horiz-adv-x="396" 
d="M385 434l-295 -390h295v-44h-370l-5 15l297 390h-278v44h352zM337 677.032h-34l-103 -112.993l-104 112.993h-34l108 -155.991h61z" />
    <glyph glyph-name="onehalf" unicode="&#xbd;" horiz-adv-x="833" 
d="M101 -27h-39l526 718h39zM482 325q25 17 49.5 25.5t53.5 8.5q25 0 47 -7t38.5 -20t26 -32t9.5 -44q0 -62 -41 -115.5t-104 -109.5h164v-31h-251q44 37 79.5 70t60 64t38 61t13.5 61q0 35 -23.5 51t-56.5 16q-25 0 -49.5 -9t-53.5 -30v41zM73 621l101 70h21v-359h-43v300
l-79 -55v44z" />
    <glyph glyph-name="onequarter" unicode="&#xbc;" horiz-adv-x="833" 
d="M637 162h56v-28h-56v-134h-42v134h-183v13l205 213h20v-198zM595 293l-126 -131h126v131zM101 -27h-39l526 718h39zM73 621l101 70h21v-359h-43v300l-79 -55v44z" />
    <glyph glyph-name="one.superior" unicode="&#xb9;" horiz-adv-x="313" 
d="M73 621l101 70h21v-359h-43v300l-79 -55v44z" />
    <glyph glyph-name="threequarters" unicode="&#xbe;" horiz-adv-x="833" 
d="M71 666q20 14 41.5 19.5t48.5 5.5q56 0 91 -25.5t35 -65.5q0 -27 -16 -47.5t-49 -31.5v-2q36 -11 53 -33.5t17 -55.5q0 -22 -9.5 -41t-26.5 -32.5t-40 -21.5t-50 -8q-53 0 -99 19v32q25 -11 47.5 -16t47.5 -5q41 0 65 19.5t24 52.5q0 23 -10 37.5t-25.5 22.5t-34 11
t-35.5 3v31q47 0 73.5 17.5t26.5 46.5q0 27 -24 45t-62 18q-23 0 -43 -6.5t-46 -22.5v34zM153 -27h-39l526 718h39zM689 162h56v-28h-56v-134h-42v134h-183v13l205 213h20v-198zM647 293l-126 -131h126v131z" />
    <glyph glyph-name="three.superior" unicode="&#xb3;" horiz-adv-x="313" 
d="M48 666q20 14 41.5 19.5t48.5 5.5q56 0 91 -25.5t35 -65.5q0 -27 -16 -47.5t-49 -31.5v-2q36 -11 53 -33.5t17 -55.5q0 -22 -9.5 -41t-26.5 -32.5t-40 -21.5t-50 -8q-53 0 -99 19v32q25 -11 47.5 -16t47.5 -5q41 0 65 19.5t24 52.5q0 23 -10 37.5t-25.5 22.5t-34 11
t-35.5 3v31q47 0 73.5 17.5t26.5 46.5q0 27 -24 45t-62 18q-23 0 -43 -6.5t-46 -22.5v34z" />
    <glyph glyph-name="two.superior" unicode="&#xb2;" horiz-adv-x="313" 
d="M41 657q25 17 49.5 25.5t53.5 8.5q25 0 47 -7t38.5 -20t26 -32t9.5 -44q0 -62 -41 -115.5t-104 -109.5h164v-31h-251q44 37 79.5 70t60 64t38 61t13.5 61q0 35 -23.5 51t-56.5 16q-25 0 -49.5 -9t-53.5 -30v41z" />
    <glyph glyph-name="brokenbar" unicode="&#xa6;" horiz-adv-x="222" 
d="M134 682v-334h-48v334h48zM134 169v-399h-48v399h48z" />
    <glyph glyph-name="minus" unicode="&#x2212;" horiz-adv-x="660" 
d="M592 373v-44h-524v44h524z" />
    <glyph glyph-name="multiply" unicode="&#xd7;" horiz-adv-x="660" 
d="M161 553l169 -169l169 169l32 -32l-169 -169l169 -169l-32 -32l-169 169l-169 -169l-32 32l169 169l-169 169z" />
    <glyph glyph-name="lslash" unicode="&#x142;" horiz-adv-x="188" 
d="M118 375l100 86v-50l-100 -84v-327h-48v291l-98 -85v50l98 83v343h48v-307z" />
    <glyph glyph-name="exclam" unicode="!" horiz-adv-x="177" 
d="M121 0h-65v97h65v-97zM104 192h-31l-17 490h65z" />
    <glyph glyph-name="quotedbl" unicode="&#x22;" horiz-adv-x="278" 
d="M98 684v-109l-12 -125h-29l-12 125v109h53zM233 684v-109l-12 -125h-29l-12 125v109h53z" />
    <glyph glyph-name="numbersign" unicode="#" horiz-adv-x="660" 
d="M307 698l-42 -205h190l43 205h46l-43 -205h82v-46h-91l-40 -191h131v-46h-141l-42 -203h-46l42 203h-190l-42 -203h-46l42 203h-83v46h93l39 191h-132v46h142l42 205h46zM216 256h190l40 191h-191z" />
    <glyph glyph-name="dollar" unicode="$" horiz-adv-x="469" 
d="M400 593q-41 24 -75 35t-67 13v-266q31 -14 61.5 -30t54.5 -38.5t39 -53.5t15 -75q0 -37 -12.5 -69t-35 -56.5t-53.5 -40t-69 -19.5v-90h-48v89q-42 2 -84 16.5t-78 40.5v60q50 -37 87.5 -51.5t74.5 -17.5v292q-31 13 -60.5 28.5t-52.5 36.5t-37 50.5t-14 70.5
q0 34 12 63t34 51.5t52 37t66 19.5v62h48v-61q72 -3 142 -41v-56zM371 176q0 27 -9 47.5t-24.5 36t-36 28t-43.5 23.5v-269q48 8 80.5 42.5t32.5 91.5zM103 518q0 -24 8.5 -42t23 -32t34 -26t41.5 -22v243q-49 -9 -78 -41t-29 -80z" />
    <glyph glyph-name="percent" unicode="%" horiz-adv-x="720" 
d="M690 149q0 -33 -13 -62.5t-34.5 -51.5t-51 -34.5t-62.5 -12.5t-62.5 12.5t-51.5 34.5t-34.5 51.5t-12.5 62.5t12.5 62.5t34.5 51.5t51.5 34.5t62.5 12.5t62.5 -12.5t51 -34.5t34.5 -51.5t13 -62.5zM647 149q0 24 -9.5 45.5t-25.5 37.5t-37.5 25.5t-45.5 9.5t-45.5 -9.5
t-37.5 -25.5t-25.5 -37.5t-9.5 -45.5q0 -25 9.5 -46.5t25.5 -37.5t37.5 -25t45.5 -9t45.5 9.5t37.5 25.5t25.5 37.5t9.5 45.5zM352 530q0 -33 -13 -62.5t-34.5 -51.5t-51 -34.5t-62.5 -12.5t-62.5 12.5t-51.5 34.5t-34.5 51.5t-12.5 62.5t12.5 62.5t34.5 51.5t51.5 34.5
t62.5 12.5t62.5 -12.5t51 -34.5t34.5 -51.5t13 -62.5zM309 530q0 24 -9.5 45.5t-25.5 37.5t-37.5 25.5t-45.5 9.5t-45.5 -9.5t-37.5 -25.5t-25.5 -37.5t-9.5 -45.5q0 -25 9.5 -46.5t25.5 -37.5t37.5 -25t45.5 -9t45.5 9.5t37.5 25.5t25.5 37.5t9.5 45.5zM107 -11h-50
l550 699h49z" />
    <glyph glyph-name="ampersand" unicode="&#x26;" horiz-adv-x="615" 
d="M403 520q0 -55 -37 -96.5t-97 -73.5l169 -166q23 39 39 79.5t26 76.5h56q-13 -43 -34.5 -92.5t-51.5 -97.5l153 -150h-70l-112 110q-42 -51 -95.5 -85t-122.5 -34q-42 0 -78 12t-61.5 34t-40 54t-14.5 73q0 33 13 61t34.5 52t50.5 44t61 37q-45 45 -72 84.5t-27 87.5
q0 30 11.5 55t32.5 44t49 29.5t61 10.5t62 -11t50 -30.5t33 -47t12 -60.5zM229 38q57 0 102 30t79 75l-186 183q-62 -32 -101.5 -72t-39.5 -90q0 -30 11 -53.5t30.5 -39.5t46.5 -24.5t58 -8.5zM143 530q0 -36 24 -70t70 -79q27 14 48.5 28t36.5 30t22.5 35.5t7.5 45.5
q0 48 -26.5 76.5t-79.5 28.5q-46 0 -74.5 -23.5t-28.5 -71.5z" />
    <glyph glyph-name="quotesingle" unicode="'" horiz-adv-x="222" 
d="M137 684v-109l-12 -125h-29l-12 125v109h53z" />
    <glyph glyph-name="parenleft" unicode="(" 
d="M131 231q0 -60 12 -123t36.5 -123t61 -115t85.5 -100h-50q-97 97 -146.5 213.5t-49.5 247.5t49 247t146 213h50q-49 -45 -85.5 -100t-60.5 -115t-36 -122.5t-12 -122.5z" />
    <glyph glyph-name="parenright" unicode=")" 
d="M202 231q0 60 -12 122.5t-36.5 122.5t-61 115t-85.5 100h50q97 -97 146.5 -213t49.5 -247t-49.5 -247.5t-146.5 -213.5h-50q49 45 85.5 100t61 115t36.5 123t12 123z" />
    <glyph glyph-name="asterisk" unicode="*" horiz-adv-x="469" 
d="M255 500l2 -5l180 16v-47l-180 20l-3 -6l141 -114l-34 -34l-116 141l-5 -1l17 -185h-46l18 185l-4 1l-115 -141l-35 34l142 114l-2 5l-183 -17v46l182 -18l1 6l-140 113l35 35l114 -139l5 2l-18 180h46l-17 -179l5 -3l116 139l34 -35z" />
    <glyph glyph-name="plus" unicode="+" horiz-adv-x="660" 
d="M308 373v240h44v-240h240v-44h-240v-240h-44v240h-240v44h240z" />
    <glyph glyph-name="comma" unicode="," horiz-adv-x="177" 
d="M121 21q0 -38 -16 -76t-49 -62v35q14 20 17.5 38t3.5 44h-21v97h65v-76z" />
    <glyph glyph-name="hyphen" unicode="-" horiz-adv-x="313" 
d="M275 202h-237v47h237v-47z" />
    <glyph glyph-name="period" unicode="." horiz-adv-x="177" 
d="M121 0h-65v97h65v-97z" />
    <glyph glyph-name="slash" unicode="/" horiz-adv-x="281" 
d="M269 691l-219 -700h-47l220 700h46z" />
    <glyph glyph-name="zero" unicode="0" horiz-adv-x="500" 
d="M468 338q0 -83 -17.5 -147.5t-47 -108.5t-68.5 -67.5t-83 -23.5q-48 0 -88.5 24.5t-70 68.5t-45.5 106.5t-16 138.5q0 111 22.5 185t70.5 122q23 23 55.5 39t69.5 16q36 0 67.5 -14.5t55.5 -38.5q51 -51 73 -128.5t22 -171.5zM417 343q0 55 -10 109t-30.5 96.5t-52 68.5
t-74.5 26q-37 0 -67.5 -22.5t-52.5 -62.5t-34.5 -95.5t-12.5 -121.5q0 -67 12 -122.5t33.5 -95.5t52 -62t67.5 -22q42 0 73.5 25t52.5 67t32 97t11 115z" />
    <glyph glyph-name="one" unicode="1" horiz-adv-x="304" 
d="M151 0v609l-112 -92v56l143 118h22v-691h-53z" />
    <glyph glyph-name="two" unicode="2" horiz-adv-x="500" 
d="M49 629q38 31 78 46.5t88 15.5q45 0 81 -15t60.5 -41.5t38 -62.5t13.5 -77q0 -39 -14.5 -85t-45 -101t-79 -120t-116.5 -142h317v-47h-433q91 88 152.5 162t99 135.5t53 110t15.5 86.5q0 32 -9 59t-27 47t-44.5 31.5t-61.5 11.5q-23 0 -42.5 -3.5t-39 -11.5t-40 -22
t-44.5 -35v58z" />
    <glyph glyph-name="three" unicode="3" horiz-adv-x="482" 
d="M56 647q60 44 144 44q45 0 82 -12.5t64 -35.5t42 -54.5t15 -69.5q0 -50 -29.5 -93t-94.5 -63v-2q71 -23 101.5 -70t30.5 -104q0 -51 -19 -88t-48.5 -61t-65.5 -35.5t-71 -11.5q-40 0 -82.5 9t-74.5 25v47q70 -33 151 -33q72 0 115.5 39.5t43.5 105.5q0 69 -46 111
t-130 40v48q40 0 71.5 11t53 29.5t32.5 42.5t11 49q0 27 -12 50.5t-33 41t-49.5 27t-61.5 9.5q-73 0 -140 -45v49z" />
    <glyph glyph-name="four" unicode="4" horiz-adv-x="500" 
d="M376 304h95v-41h-95v-263h-51v263h-311v17l343 411h19v-387zM325 592h-2l-238 -288h240v288z" />
    <glyph glyph-name="five" unicode="5" horiz-adv-x="486" 
d="M386 635h-241v-216q60 9 111.5 -1t89 -37t59 -69.5t21.5 -99.5q0 -48 -16.5 -88.5t-46 -70t-70 -46t-88.5 -16.5q-41 0 -80 11t-84 34v58q51 -29 90 -42t76 -13t67.5 12.5t53 35t35 53.5t12.5 68q0 55 -23.5 92.5t-62.5 57t-89 21t-103 -14.5v318h289v-47z" />
    <glyph glyph-name="six" unicode="6" horiz-adv-x="500" 
d="M375 655q-51 -36 -94.5 -77t-76.5 -84.5t-54.5 -88.5t-28.5 -89q72 53 151 53q41 0 76 -14t60.5 -39t40 -59t14.5 -74q0 -42 -14.5 -77.5t-40 -61t-61.5 -39.5t-78 -14q-48 0 -86.5 17t-65.5 48.5t-41.5 75.5t-14.5 99q0 71 20.5 134t58 119.5t90 108t115.5 98.5z
M112 257q-6 -51 4 -91.5t31.5 -68.5t52 -43t66.5 -15q31 0 58 10.5t46.5 29t30.5 43.5t11 54q0 31 -11.5 57.5t-31 46t-46.5 30.5t-58 11q-42 0 -78 -15t-75 -49z" />
    <glyph glyph-name="seven" unicode="7" horiz-adv-x="500" 
d="M163 -9l-44 19l282 625h-372v47h446z" />
    <glyph glyph-name="eight" unicode="8" horiz-adv-x="509" 
d="M162 355q-89 60 -89 154q0 37 14.5 70t39 58t57.5 39.5t69 14.5q37 0 70.5 -14.5t58 -39t39 -57.5t14.5 -70q0 -97 -87 -155q101 -61 101 -169q0 -41 -15 -77t-41 -62t-61.5 -41t-75.5 -15q-41 0 -77 15t-62.5 41t-41.5 60.5t-15 74.5q0 112 102 173zM255 377
q28 0 51.5 10.5t41 28.5t27 42.5t9.5 53.5q0 27 -10 51t-28 42t-42 28t-51 10t-50.5 -10.5t-41 -28.5t-27.5 -42t-10 -52t10 -52.5t27.5 -42.5t41.5 -28t52 -10zM253 329q-30 0 -56 -11.5t-45 -31.5t-30 -46t-11 -56t11 -56t30.5 -46t46 -31.5t57.5 -11.5t57.5 11.5t45 31.5
t29 47.5t10.5 59.5q0 29 -11.5 54.5t-31 44.5t-46 30t-56.5 11z" />
    <glyph glyph-name="nine" unicode="9" horiz-adv-x="500" 
d="M116 28q64 47 109.5 90.5t75.5 85t46.5 81.5t24.5 80q-43 -27 -77.5 -39t-72.5 -12q-41 0 -75.5 14.5t-60 39.5t-40 59t-14.5 74q0 42 14 76.5t39.5 60t61 39.5t77.5 14q49 0 88 -16.5t66 -47.5t41.5 -75.5t14.5 -99.5q0 -59 -16 -117.5t-50.5 -116t-89.5 -114.5
t-134 -113zM381 426q4 48 -4 88t-27.5 68.5t-50 44.5t-72.5 16q-30 0 -56 -10.5t-45.5 -29t-31 -44t-11.5 -55.5t10.5 -56t29.5 -45t45 -30t56 -11q86 0 157 64z" />
    <glyph glyph-name="colon" unicode=":" horiz-adv-x="177" 
d="M121 352h-65v97h65v-97zM121 0h-65v97h65v-97z" />
    <glyph glyph-name="semicolon" unicode=";" horiz-adv-x="177" 
d="M121 21q0 -38 -16 -76t-49 -62v35q14 20 17.5 38t3.5 44h-21v97h65v-76zM121 352h-65v97h65v-97z" />
    <glyph glyph-name="less" unicode="&#x3c;" horiz-adv-x="660" 
d="M68 371l524 220v-49l-464 -192l464 -192v-49l-524 220v42z" />
    <glyph glyph-name="equal" unicode="=" horiz-adv-x="660" 
d="M592 493v-44h-524v44h524zM592 252v-44h-524v44h524z" />
    <glyph glyph-name="greater" unicode="&#x3e;" horiz-adv-x="660" 
d="M68 109v49l464 192l-464 192v49l524 -220v-42z" />
    <glyph glyph-name="question" unicode="?" horiz-adv-x="381" 
d="M126 194q-14 16 -18.5 31t-4.5 28q0 26 13.5 49.5t34 46t44.5 45t44.5 46.5t34 51t13.5 58q0 26 -10 44.5t-27.5 30t-40.5 17t-49 5.5q-45 0 -75.5 -8.5t-59.5 -23.5v50q25 10 58 18.5t78 8.5q37 0 69.5 -9.5t56.5 -27.5t37.5 -44.5t13.5 -60.5q0 -36 -14 -65.5
t-35 -55.5t-45 -49l-45 -45t-35 -44.5t-14 -47.5q0 -15 4.5 -26t10.5 -22h-39zM175 0h-65v97h65v-97z" />
    <glyph glyph-name="at" unicode="@" horiz-adv-x="800" 
d="M619 505l-83 -392q-7 -31 -5 -45t23 -14q23 0 56 18.5t63 54t51 88t21 121.5q0 31 -6 66.5t-20.5 70.5t-38.5 67t-60.5 57t-86 39.5t-114.5 14.5q-83 0 -153 -29t-120.5 -80.5t-78.5 -123.5t-28 -158q0 -85 28 -154.5t78.5 -119.5t121.5 -77.5t157 -27.5q110 0 191 38.5
t137 113.5h50q-29 -49 -70.5 -85t-91 -60t-105 -35.5t-112.5 -11.5q-95 0 -173.5 30.5t-134.5 85.5t-86.5 132.5t-30.5 171.5q0 78 24.5 154.5t76.5 138t133 99.5t193 38q97 0 166 -32.5t112 -83.5t63 -114t20 -125q0 -75 -25 -135.5t-62.5 -103t-81.5 -65t-83 -22.5
q-16 0 -28.5 4t-20.5 14t-10 27t4 43l-2 2q-75 -90 -165 -90q-36 0 -67 15.5t-53.5 43t-35.5 65t-13 82.5q0 57 19 111.5t52.5 96.5t79.5 67.5t100 25.5q41 0 82 -22t64 -72h2l16 82h61zM518 336q0 30 -9.5 55.5t-26 43.5t-39.5 28.5t-50 10.5q-48 0 -83.5 -27.5t-59 -67
t-34.5 -85t-11 -81.5q0 -34 9.5 -62.5t26 -49.5t39.5 -32.5t50 -11.5q43 0 78 29t59.5 71.5t37.5 91t13 87.5z" />
    <glyph glyph-name="A" unicode="A" horiz-adv-x="667" 
d="M608 0l-108 236h-333l-108 -236h-55l315 687h29l315 -687h-55zM333 601l-146 -321h293z" />
    <glyph glyph-name="B" unicode="B" horiz-adv-x="531" 
d="M222 682q69 0 113 -16.5t69.5 -42t35 -56.5t9.5 -61q0 -51 -23.5 -87.5t-74.5 -64.5q78 -17 118 -60.5t40 -112.5q0 -42 -16 -75.5t-46 -57t-72.5 -36t-94.5 -12.5h-200v682h142zM133 366h73q52 0 87.5 10t57.5 28t31.5 43t9.5 55q0 39 -14.5 65t-40 42t-59.5 22.5
t-74 6.5h-71v-272zM133 44h141q53 0 87.5 13t54.5 33t28 44.5t8 47.5q0 25 -8 50t-30.5 45t-61.5 32.5t-101 12.5h-118v-278z" />
    <glyph glyph-name="C" unicode="C" horiz-adv-x="677" 
d="M51 341q0 78 29.5 142.5t79 110.5t114.5 71.5t135 25.5q69 0 127.5 -15.5t112.5 -41.5v-58q-60 32 -117 49t-123 17q-60 0 -115 -22.5t-96 -63t-65.5 -95.5t-24.5 -120t24.5 -120t65.5 -95.5t96 -63t115 -22.5q66 0 123 17t117 49v-58q-54 -26 -112.5 -41.5t-127.5 -15.5
q-70 0 -135 25.5t-114.5 71.5t-79 110.5t-29.5 142.5z" />
    <glyph glyph-name="D" unicode="D" horiz-adv-x="740" 
d="M79 0v682h239q87 0 156 -24.5t117 -69t73.5 -107.5t25.5 -140t-25.5 -140t-73.5 -107.5t-117 -69t-156 -24.5h-239zM633 341q0 76 -24.5 131.5t-66.5 92.5t-99 55t-122 18h-189v-594h192q64 0 120.5 18t98.5 54.5t66 92.5t24 132z" />
    <glyph glyph-name="E" unicode="E" horiz-adv-x="490" 
d="M452 638h-319v-273h311v-44h-311v-277h327v-44h-380v682h372v-44z" />
    <glyph glyph-name="F" unicode="F" horiz-adv-x="438" 
d="M429 638h-298v-259h269v-44h-269v-335h-53v682h351v-44z" />
    <glyph glyph-name="G" unicode="G" horiz-adv-x="719" 
d="M51 341q0 78 29.5 142.5t79 110.5t114.5 71.5t135 25.5q69 0 127.5 -15.5t112.5 -41.5v-58q-60 32 -117 49t-123 17q-60 0 -115 -22.5t-96 -63t-65.5 -95.5t-24.5 -120q0 -57 21.5 -111.5t62 -96.5t99 -67.5t132.5 -25.5q60 0 103 11t84 31v184h-144v44h197v-261
q-61 -29 -121.5 -43.5t-120.5 -14.5q-80 0 -147.5 26.5t-117 73t-77.5 110.5t-28 140z" />
    <glyph glyph-name="H" unicode="H" horiz-adv-x="719" 
d="M640 0h-53v323h-455v-323h-53v682h53v-315h455v315h53v-682z" />
    <glyph glyph-name="I" unicode="I" horiz-adv-x="208" 
d="M131 0h-53v682h53v-682z" />
    <glyph glyph-name="J" unicode="J" horiz-adv-x="208" 
d="M135 0q0 -40 -7 -76t-23.5 -63.5t-45 -43.5t-70.5 -16q-5 0 -12.5 0.5t-16.5 1.5l-5 50q15 -4 31 -4q51 0 73.5 37t22.5 115v681h53v-682z" />
    <glyph glyph-name="K" unicode="K" horiz-adv-x="531" 
d="M197 342l356 -342h-67l-357 342v-342h-53v682h53v-340l327 340h66z" />
    <glyph glyph-name="L" unicode="L" horiz-adv-x="469" 
d="M132 44h337v-44h-390v682h53v-638z" />
    <glyph glyph-name="M" unicode="M" horiz-adv-x="781" 
d="M650 682h53v-682h-53v605h-2l-258 -319l-258 319h-2v-605h-53v682h53l260 -317z" />
    <glyph glyph-name="N" unicode="N" horiz-adv-x="771" 
d="M693 0h-44l-518 596v-596h-53v682h45l517 -596v596h53v-682z" />
    <glyph glyph-name="O" unicode="O" horiz-adv-x="823" 
d="M773 341q0 -74 -28 -137.5t-77 -111t-115 -74.5t-142 -27t-141.5 27t-114 74.5t-76.5 111t-28 137.5q0 73 28 137t76.5 111.5t114 74.5t141.5 27t142 -27t115 -74.5t77 -111.5t28 -137zM716 341q0 64 -23.5 119t-64 95.5t-96 63.5t-119.5 23t-119.5 -23t-97 -63.5
t-65 -95.5t-23.5 -119t23.5 -119t65 -95.5t97 -63.5t119.5 -23t119.5 23t96 63.5t64 95.5t23.5 119z" />
    <glyph glyph-name="P" unicode="P" horiz-adv-x="510" 
d="M266 682q60 0 102.5 -14.5t69 -39t39 -57t12.5 -69.5q0 -33 -10.5 -65.5t-37 -59t-70.5 -42.5t-110 -16h-130v-319h-53v682h188zM131 363h127q48 0 81 10.5t53.5 29.5t30 44t9.5 54q0 28 -9.5 52.5t-29.5 43.5t-52 30t-77 11h-133v-275z" />
    <glyph glyph-name="Q" unicode="Q" horiz-adv-x="823" 
d="M773 341q0 -69 -24.5 -129t-68 -106.5t-102.5 -76t-128 -36.5q46 -33 113 -59.5t159 -31.5l-38 -45q-108 14 -183 51.5t-128 84.5q-69 7 -127.5 36t-102 75.5t-68 107t-24.5 129.5q0 73 28 137t76.5 111.5t114 74.5t141.5 27t142 -27t115 -74.5t77 -111.5t28 -137z
M716 341q0 64 -23.5 119t-64 95.5t-96 63.5t-119.5 23t-119.5 -23t-97 -63.5t-65 -95.5t-23.5 -119t23.5 -119t65 -95.5t97 -63.5t119.5 -23t119.5 23t96 63.5t64 95.5t23.5 119z" />
    <glyph glyph-name="R" unicode="R" horiz-adv-x="573" 
d="M254 682q63 0 106 -14.5t69.5 -39t38.5 -56.5t12 -66q0 -118 -130 -166q24 -13 45.5 -40.5t45.5 -63.5l154 -236h-62l-119 187q-31 48 -53 76t-42 42.5t-42 18t-53 3.5h-92v-327h-53v682h175zM132 371h113q91 0 134.5 36t43.5 98q0 58 -43 95.5t-137 37.5h-111v-267z" />
    <glyph glyph-name="S" unicode="S" horiz-adv-x="469" 
d="M400 593q-45 27 -82.5 38t-75.5 11q-62 0 -100.5 -34t-38.5 -90q0 -41 24 -66.5t60 -44t78.5 -35.5t78.5 -41t60 -60t24 -93q0 -41 -14.5 -75t-41 -59t-63 -39t-79.5 -14q-47 0 -94 14.5t-88 43.5v60q57 -41 98.5 -55t83.5 -14q29 0 55 9t45 26.5t30 43t11 57.5
q0 45 -24 73t-60 48t-78.5 36.5t-78.5 39.5t-60 57t-24 88q0 37 15 69t41 55t62 36t78 13q40 0 79 -10t79 -32v-56z" />
    <glyph glyph-name="T" unicode="T" horiz-adv-x="573" 
d="M569 638h-256v-638h-53v638h-256v44h565v-44z" />
    <glyph glyph-name="U" unicode="U" horiz-adv-x="698" 
d="M349 -9q-60 0 -112 19t-90.5 57t-60.5 96t-22 135v384h53v-382q0 -69 18.5 -118.5t50 -81.5t74 -47t89.5 -15t89.5 15t74 47t50 81.5t18.5 118.5v382h53v-384q0 -77 -22 -135t-60.5 -96t-90.5 -57t-112 -19z" />
    <glyph glyph-name="V" unicode="V" horiz-adv-x="594" 
d="M305 -7h-15l-287 689h53l242 -577l240 577h53z" />
    <glyph glyph-name="W" unicode="W" horiz-adv-x="1031" 
d="M287 -7h-14l-274 689h54l226 -566l229 566h16l228 -566l226 566h54l-274 -689h-13l-229 576z" />
    <glyph glyph-name="X" unicode="X" horiz-adv-x="688" 
d="M603 682h68l-293 -333l310 -349h-68l-276 312l-276 -312h-68l309 349l-293 333h68l260 -294z" />
    <glyph glyph-name="Y" unicode="Y" horiz-adv-x="583" 
d="M318 366v-366h-53v366l-265 316h64l228 -270l227 270h64z" />
    <glyph glyph-name="Z" unicode="Z" horiz-adv-x="635" 
d="M607 663l-511 -619h515v-44h-597l-5 15l511 623h-488v44h570z" />
    <glyph glyph-name="bracketleft" unicode="[" horiz-adv-x="302" 
d="M117 -173h178v-47h-226v902h226v-47h-178v-808z" />
    <glyph glyph-name="backslash" unicode="\" horiz-adv-x="281" 
d="M12 691h47l219 -700h-46z" />
    <glyph glyph-name="bracketright" unicode="]" horiz-adv-x="302" 
d="M185 635h-178v47h226v-902h-226v47h178v808z" />
    <glyph glyph-name="asciicircum" unicode="^" horiz-adv-x="660" 
d="M549 429l-32 -26l-187 225l-188 -225l-31 26l219 262z" />
    <glyph glyph-name="underscore" unicode="_" horiz-adv-x="500" 
d="M506 -75v-50h-512v50h512z" />
    <glyph glyph-name="grave" unicode="`" 
d="M158 677l104 -156h-33l-152 156h81z" />
    <glyph glyph-name="a" unicode="a" horiz-adv-x="427" 
d="M421 22q-14 -13 -32.5 -22t-35.5 -9q-24 0 -37.5 12t-17.5 42q-33 -28 -66.5 -41t-64.5 -13q-59 0 -95 30t-36 84q0 44 21 72t57 46.5t83.5 29.5t100.5 20v44q0 55 -24.5 78t-75.5 23q-34 0 -67.5 -11t-73.5 -41v49q21 13 38.5 21t34 13t33 7t35.5 2q27 0 53.5 -6
t47.5 -21t34 -41.5t13 -66.5v-259q0 -29 18 -29q14 0 30.5 9t26.5 18v-40zM298 233q-45 -8 -84 -17t-68 -23t-45.5 -35.5t-16.5 -52.5q0 -42 25.5 -58t64.5 -16q33 0 62.5 13.5t61.5 42.5v146z" />
    <glyph glyph-name="b" unicode="b" horiz-adv-x="510" 
d="M62 682h48v-297q35 35 71.5 54t90.5 19q44 0 81 -16t63.5 -45t41 -69.5t14.5 -88.5q0 -57 -18 -102.5t-50.5 -78t-79 -50t-103.5 -17.5q-41 0 -77 8t-82 26v657zM110 59q30 -11 57 -16t53 -5q44 0 81 15t63.5 41t41.5 62.5t15 79.5q0 40 -11.5 73.5t-32 57.5t-49 37.5
t-62.5 13.5q-42 0 -78.5 -20.5t-77.5 -66.5v-272z" />
    <glyph glyph-name="c" unicode="c" horiz-adv-x="417" 
d="M379 383q-39 16 -64 22t-53 6q-38 0 -69 -13.5t-53 -38.5t-34.5 -59.5t-12.5 -76.5q0 -85 46.5 -135t126.5 -50q31 0 57 5.5t64 20.5v-50q-38 -13 -65.5 -18t-59.5 -5q-50 0 -90.5 16.5t-69 46t-44.5 71.5t-16 93q0 53 16 97t45 76t69 49.5t88 17.5q29 0 55 -5t64 -17
v-53z" />
    <glyph glyph-name="d" unicode="d" horiz-adv-x="509" 
d="M448 0h-48v35q-36 -25 -65.5 -34.5t-67.5 -9.5q-48 0 -89.5 18t-72 49.5t-48 74t-17.5 92.5t17 93t47.5 74t72 48.5t90.5 17.5q34 0 63 -8t70 -28v260h48v-682zM400 369q-37 23 -66.5 32.5t-64.5 9.5q-39 0 -71.5 -13.5t-56.5 -38t-37 -58t-13 -73.5q0 -41 14 -75.5
t39.5 -60t59.5 -40t75 -14.5q34 0 60 9t61 32v290z" />
    <glyph glyph-name="e" unicode="e" horiz-adv-x="479" 
d="M91 241q-5 -43 8 -80t38 -64.5t60 -43t73 -15.5q45 0 84 16t83 51v-54q-78 -60 -173 -60q-49 0 -90 18t-71 49.5t-46.5 75.5t-16.5 96q0 49 15.5 91t43 72.5t65 47.5t82.5 17q36 0 71.5 -13t64 -39.5t46 -67.5t17.5 -97h-354zM388 280q-25 131 -142 131q-56 0 -96 -34.5
t-53 -96.5h291z" />
    <glyph glyph-name="f" unicode="f" horiz-adv-x="277" 
d="M332 627q-29 10 -45.5 13.5t-35.5 3.5q-57 0 -83 -33.5t-26 -105.5v-56h107v-39h-107v-410h-48v410h-83v39h83v74q0 43 13 75t34.5 52.5t50 30.5t58.5 10q20 0 38 -4t44 -15v-45z" />
    <glyph glyph-name="g" unicode="g" horiz-adv-x="427" 
d="M417 410h-102q32 -30 47 -57.5t15 -61.5q0 -50 -19 -80t-47 -47.5t-61.5 -26.5l-61.5 -16.5t-47 -18.5t-19 -33q0 -25 22 -33.5t54.5 -11.5t70.5 -4.5t70.5 -12t54.5 -35t22 -71.5q0 -62 -53 -96.5t-148 -34.5q-52 0 -89 9.5t-61 26t-35.5 38.5t-11.5 46q0 43 34 71
t97 38v2q-73 17 -73 64q0 30 25 45.5t65 27.5v2q-34 10 -57 27t-37 37t-20 42.5t-6 42.5q0 28 9.5 56.5t32 51.5t59 37.5t90.5 14.5h180v-39zM331 290q0 25 -9.5 46.5t-26 37.5t-38.5 25.5t-47 9.5t-46.5 -9t-37.5 -25t-25 -37.5t-9 -45.5q0 -25 9 -47.5t25 -39t37.5 -26
t47.5 -9.5q25 0 46.5 9.5t38 26t26 38t9.5 46.5zM370 -103q0 24 -11 39t-30 24t-45.5 12.5t-56.5 3.5q-21 0 -49 -2.5t-53.5 -11t-43 -25t-17.5 -44.5q0 -40 39.5 -61.5t114.5 -21.5q69 0 110.5 23.5t41.5 63.5z" />
    <glyph glyph-name="h" unicode="h" horiz-adv-x="484" 
d="M110 371h2q31 47 65 67t83 20q36 0 66.5 -11.5t53 -35t35 -57.5t12.5 -79v-275h-48v256q0 73 -28.5 114t-93.5 41q-50 0 -83 -24t-64 -72v-315h-48v682h48v-311z" />
    <glyph glyph-name="i" unicode="i" horiz-adv-x="188" 
d="M118 0h-48v449h48v-449zM118 580h-48v102h48v-102z" />
    <glyph glyph-name="j" unicode="j" horiz-adv-x="188" 
d="M118 -50q0 -48 -11 -82t-29 -56t-42 -32t-51 -10l-11 41q46 1 71 30.5t25 109.5v498h48v-499zM118 580h-48v102h48v-102z" />
    <glyph glyph-name="k" unicode="k" horiz-adv-x="427" 
d="M167 238l286 -238h-69l-277 231v-231h-48v682h48v-441l242 208h64z" />
    <glyph glyph-name="l" unicode="l" horiz-adv-x="188" 
d="M118 0h-48v682h48v-682z" />
    <glyph glyph-name="m" unicode="m" horiz-adv-x="769" 
d="M110 370h2q30 48 63.5 68t79.5 20q53 0 88 -26.5t57 -81.5q34 57 70.5 82.5t85.5 25.5q71 0 113.5 -49.5t42.5 -132.5v-276h-48v255q0 34 -7 62.5t-21.5 49.5t-36.5 32.5t-52 11.5q-42 0 -72 -24t-64 -81v-306h-48v256q0 42 -9.5 71t-26 48t-37.5 27.5t-45 8.5
q-42 0 -72.5 -22t-62.5 -74v-315h-48v449h48v-79z" />
    <glyph glyph-name="n" unicode="n" horiz-adv-x="484" 
d="M110 371h2q31 47 65 67t83 20q36 0 66.5 -11.5t53 -35t35 -58t12.5 -79.5v-274h-48v256q0 76 -31 115.5t-91 39.5q-49 0 -83 -23.5t-64 -72.5v-315h-48v449h48v-78z" />
    <glyph glyph-name="o" unicode="o" horiz-adv-x="542" 
d="M499 224q0 -50 -17 -92.5t-47.5 -74t-72.5 -49t-91 -17.5t-91 17.5t-72.5 49t-48 74t-17.5 92.5t17.5 93t48 74.5t72.5 49t91 17.5t91 -17.5t72.5 -49t47.5 -74.5t17 -93zM448 224q0 40 -13.5 74.5t-37 59.5t-56 39t-70.5 14t-70.5 -14t-56.5 -39t-37.5 -59.5
t-13.5 -74.5t13.5 -74t37.5 -59t56.5 -39t70.5 -14t70.5 14t56 39t37 59t13.5 74z" />
    <glyph glyph-name="p" unicode="p" horiz-adv-x="508" 
d="M111 424q38 19 69 26.5t66 7.5q48 0 88.5 -17.5t70.5 -48.5t46.5 -73.5t16.5 -92.5t-17.5 -92.5t-47.5 -74.5t-71 -50t-88 -18q-34 0 -64.5 7.5t-68.5 26.5v-255h-48v679h48v-25zM111 72q35 -19 62.5 -26.5t61.5 -7.5q40 0 73.5 13.5t57 38t36.5 59.5t13 78t-14 77.5
t-38.5 58t-59 36t-74.5 12.5q-30 0 -56.5 -7t-61.5 -26v-306z" />
    <glyph glyph-name="q" unicode="q" horiz-adv-x="513" 
d="M450 -230h-48v256q-43 -20 -76.5 -27.5t-70.5 -7.5q-47 0 -86.5 16.5t-68 46.5t-44.5 71t-16 91q0 52 17 96.5t46.5 76.5t70 50.5t88.5 18.5q37 0 68.5 -9t71.5 -31v31h48v-679zM402 371q-38 22 -66.5 31t-63.5 9q-39 0 -72 -15t-57 -41.5t-38 -63t-14 -79.5
q0 -40 12.5 -72.5t35 -56t55 -36t71.5 -12.5q38 0 68 8.5t69 30.5v297z" />
    <glyph glyph-name="r" unicode="r" horiz-adv-x="318" 
d="M305 404q-9 3 -23.5 5t-27.5 2q-14 0 -31.5 -3.5t-36.5 -13.5t-38.5 -29t-37.5 -50v-315h-48v449h48v-81q20 31 40.5 49t41 27t40 11.5t37.5 2.5q7 0 19 -1.5t17 -3.5v-49z" />
    <glyph glyph-name="s" unicode="s" horiz-adv-x="354" 
d="M309 374q-37 23 -65 30t-58 7q-41 0 -67 -16.5t-26 -56.5q0 -27 17.5 -43t43 -28t56 -22.5t56 -26.5t43 -40t17.5 -63q0 -26 -10.5 -49t-29.5 -39.5t-45 -26t-56 -9.5q-45 0 -81 12t-63 29v50q45 -23 77 -33.5t67 -10.5q39 0 64.5 21t25.5 57q0 27 -17.5 43.5t-43 29
t-56 23.5t-56 27t-43 39t-17.5 60q0 28 11.5 50.5t31 38t46 23.5t55.5 8q32 0 63 -7t60 -23v-54z" />
    <glyph glyph-name="t" unicode="t" horiz-adv-x="302" 
d="M286 5q-14 -6 -34.5 -10t-40.5 -4q-24 0 -44.5 6t-34.5 20.5t-22 38.5t-8 61v293h-101v39h101v128h48v-128h136v-39h-136v-286q0 -49 14.5 -68.5t52.5 -19.5q17 0 34.5 4t34.5 11v-46z" />
    <glyph glyph-name="u" unicode="u" horiz-adv-x="484" 
d="M374 74h-2q-15 -22 -30.5 -37.5t-32.5 -25.5t-38 -15t-47 -5q-29 0 -58.5 9.5t-53.5 30.5t-39.5 55.5t-15.5 84.5v278h48v-277q0 -34 10 -59.5t27 -42t39 -24.5t47 -8q53 0 85 25t61 71v315h48v-449h-48v74z" />
    <glyph glyph-name="v" unicode="v" horiz-adv-x="427" 
d="M234 -9h-30l-204 458h49l169 -378l162 378h47z" />
    <glyph glyph-name="w" unicode="w" horiz-adv-x="708" 
d="M514 -9h-23l-138 365l-139 -365h-22l-192 458h47l153 -366l141 366h26l137 -366l156 366h48z" />
    <glyph glyph-name="x" unicode="x" horiz-adv-x="479" 
d="M68 0h-62l205 230l-205 219h62l176 -186l176 186h62l-206 -219l206 -230h-62l-176 197z" />
    <glyph glyph-name="y" unicode="y" horiz-adv-x="417" 
d="M87 -230h-49l157 317l-189 362h50l163 -314l155 314h49z" />
    <glyph glyph-name="z" unicode="z" horiz-adv-x="396" 
d="M385 434l-295 -390h295v-44h-370l-5 15l297 390h-278v44h352z" />
    <glyph glyph-name="braceleft" unicode="{" 
d="M49 258q26 1 44 10t29 28.5t16 50.5t5 75v97q0 90 35.5 128.5t107.5 34.5v-54q-25 0 -41.5 -4t-27 -16t-15 -33.5t-4.5 -55.5v-97q0 -81 -22.5 -128.5t-74.5 -67.5q52 -20 74.5 -67.5t22.5 -128.5v-97q0 -35 4.5 -56t15 -33t27 -16t41.5 -4v-54q-72 -4 -107.5 34.5
t-35.5 128.5v97q0 44 -5 75t-16 50.5t-29 28.5t-44 10v64z" />
    <glyph glyph-name="bar" unicode="|" horiz-adv-x="222" 
d="M134 682v-912h-48v912h48z" />
    <glyph glyph-name="braceright" unicode="}" 
d="M284 194q-26 -1 -44 -10t-29 -28.5t-16 -50.5t-5 -75v-97q0 -90 -35.5 -128.5t-107.5 -34.5v54q25 0 41.5 4t27 16t15 33t4.5 56v97q0 81 22.5 128.5t74.5 67.5q-52 20 -74.5 67.5t-22.5 128.5v97q0 34 -4.5 55.5t-15 33.5t-27 16t-41.5 4v54q72 4 107.5 -34.5
t35.5 -128.5v-97q0 -44 5 -75t16 -50.5t29 -28.5t44 -10v-64z" />
    <glyph glyph-name="asciitilde" unicode="~" horiz-adv-x="660" 
d="M67 345q81 59 140 59q28 0 61 -12.5t66.5 -27l64.5 -27t54 -12.5q14 0 27.5 3t29.5 10.5t35.5 20.5l46.5 32v-54q-44 -32 -75.5 -45.5t-61.5 -13.5q-29 0 -61.5 12.5t-65 27t-63.5 27t-57 12.5q-15 0 -29 -2.5t-29.5 -10t-35.5 -20.5t-47 -33v54z" />
    <glyph glyph-name="Adieresis" unicode="&#xc4;" horiz-adv-x="667" 
d="M608 0l-108 236h-333l-108 -236h-55l315 687h29l315 -687h-55zM333 601l-146 -321h293zM422 854q18 0 31 -13t13 -31t-13 -31t-31 -13t-31 13t-13 31t13 31t31 13zM245 854q18 0 31 -13t13 -31t-13 -31t-31 -13t-31 13t-13 31t13 31t31 13z" />
    <glyph glyph-name="Aring" unicode="&#xc5;" horiz-adv-x="667" 
d="M608 0l-108 236h-333l-108 -236h-55l315 687h29l315 -687h-55zM333 601l-146 -321h293zM334 870q-25 0 -42.5 -17t-17.5 -42t17.5 -42.5t42.5 -17.5t42 17.5t17 42.5t-17 42t-42 17zM334 897q36 0 61 -25t25 -61t-25 -61.5t-61 -25.5t-61.5 25.5t-25.5 61.5t25.5 61
t61.5 25z" />
    <glyph glyph-name="Ccedilla" unicode="&#xc7;" horiz-adv-x="677" 
d="M654 55q-60 -32 -121 -48t-121 -16h-12t-11 2l-8 -28q32 -5 47 -22.5t15 -40.5q0 -24 -12 -40.5t-31.5 -25.5t-45.5 -10.5t-53 4.5l5 32q44 -4 71 2.5t27 34.5q0 38 -62 39l17 57q-68 9 -125 38t-98 74.5t-64 105t-23 127.5q0 78 29.5 143t79 111t114.5 71.5t135 25.5
q115 0 240 -57v-58q-64 34 -123 50t-120 16q-64 0 -118.5 -23t-94.5 -63.5t-62.5 -95.5t-22.5 -120q0 -66 22.5 -121t63 -95t96.5 -62t123 -22q58 0 115.5 16.5t127.5 53.5v-55z" />
    <glyph glyph-name="Eacute" unicode="&#xc9;" horiz-adv-x="490" 
d="M452 638h-319v-273h311v-44h-311v-277h327v-44h-380v682h372v-44zM265 739h-33l104 156h81z" />
    <glyph glyph-name="Ntilde" unicode="&#xd1;" horiz-adv-x="771" 
d="M693 0h-44l-518 596v-596h-53v682h45l517 -596v596h53v-682zM549 861q2 -22 -4.5 -39.5t-18.5 -30.5q-23 -26 -59 -26q-20 0 -43 8t-46 17l-44 16.5t-38 7.5q-36 0 -42 -48h-32q0 18 4.5 35.5t14.5 30.5t25.5 21t37.5 8q23 0 45 -7.5t43 -16.5l42.5 -17t39.5 -8
q20 0 30.5 11.5t14.5 37.5h30v0z" />
    <glyph glyph-name="Odieresis" unicode="&#xd6;" horiz-adv-x="823" 
d="M773 341q0 -74 -28 -137.5t-77 -111t-115 -74.5t-142 -27t-141.5 27t-114 74.5t-76.5 111t-28 137.5q0 73 28 137t76.5 111.5t114 74.5t141.5 27t142 -27t115 -74.5t77 -111.5t28 -137zM716 341q0 64 -23.5 119t-64 95.5t-96 63.5t-119.5 23t-119.5 -23t-97 -63.5
t-65 -95.5t-23.5 -119t23.5 -119t65 -95.5t97 -63.5t119.5 -23t119.5 23t96 63.5t64 95.5t23.5 119zM500 854q18 0 31 -13t13 -31t-13 -31t-31 -13t-31 13t-13 31t13 31t31 13zM323 854q18 0 31 -13t13 -31t-13 -31t-31 -13t-31 13t-13 31t13 31t31 13z" />
    <glyph glyph-name="Udieresis" unicode="&#xdc;" horiz-adv-x="698" 
d="M349 -9q-60 0 -112 19t-90.5 57t-60.5 96t-22 135v384h53v-382q0 -69 18.5 -118.5t50 -81.5t74 -47t89.5 -15t89.5 15t74 47t50 81.5t18.5 118.5v382h53v-384q0 -77 -22 -135t-60.5 -96t-90.5 -57t-112 -19zM438 854q18 0 31 -13t13 -31t-13 -31t-31 -13t-31 13t-13 31
t13 31t31 13zM261 854q18 0 31 -13t13 -31t-13 -31t-31 -13t-31 13t-13 31t13 31t31 13z" />
    <glyph glyph-name="aacute" unicode="&#xe1;" horiz-adv-x="427" 
d="M421 22q-14 -13 -32.5 -22t-35.5 -9q-24 0 -37.5 12t-17.5 42q-33 -28 -66.5 -41t-64.5 -13q-59 0 -95 30t-36 84q0 44 21 72t57 46.5t83.5 29.5t100.5 20v44q0 55 -24.5 78t-75.5 23q-34 0 -67.5 -11t-73.5 -41v49q21 13 38.5 21t34 13t33 7t35.5 2q27 0 53.5 -6
t47.5 -21t34 -41.5t13 -66.5v-259q0 -29 18 -29q14 0 30.5 9t26.5 18v-40zM298 233q-45 -8 -84 -17t-68 -23t-45.5 -35.5t-16.5 -52.5q0 -42 25.5 -58t64.5 -16q33 0 62.5 13.5t61.5 42.5v146zM202 521h-33l104 156h81z" />
    <glyph glyph-name="agrave" unicode="&#xe0;" horiz-adv-x="427" 
d="M421 22q-14 -13 -32.5 -22t-35.5 -9q-24 0 -37.5 12t-17.5 42q-33 -28 -66.5 -41t-64.5 -13q-59 0 -95 30t-36 84q0 44 21 72t57 46.5t83.5 29.5t100.5 20v44q0 55 -24.5 78t-75.5 23q-34 0 -67.5 -11t-73.5 -41v49q21 13 38.5 21t34 13t33 7t35.5 2q27 0 53.5 -6
t47.5 -21t34 -41.5t13 -66.5v-259q0 -29 18 -29q14 0 30.5 9t26.5 18v-40zM298 233q-45 -8 -84 -17t-68 -23t-45.5 -35.5t-16.5 -52.5q0 -42 25.5 -58t64.5 -16q33 0 62.5 13.5t61.5 42.5v146zM150 677l104 -156h-33l-152 156h81z" />
    <glyph glyph-name="acircumflex" unicode="&#xe2;" horiz-adv-x="427" 
d="M421 22q-14 -13 -32.5 -22t-35.5 -9q-24 0 -37.5 12t-17.5 42q-33 -28 -66.5 -41t-64.5 -13q-59 0 -95 30t-36 84q0 44 21 72t57 46.5t83.5 29.5t100.5 20v44q0 55 -24.5 78t-75.5 23q-34 0 -67.5 -11t-73.5 -41v49q21 13 38.5 21t34 13t33 7t35.5 2q27 0 53.5 -6
t47.5 -21t34 -41.5t13 -66.5v-259q0 -29 18 -29q14 0 30.5 9t26.5 18v-40zM298 233q-45 -8 -84 -17t-68 -23t-45.5 -35.5t-16.5 -52.5q0 -42 25.5 -58t64.5 -16q33 0 62.5 13.5t61.5 42.5v146zM351 521h-34l-103 113l-104 -113h-34l108 156h61z" />
    <glyph glyph-name="adieresis" unicode="&#xe4;" horiz-adv-x="427" 
d="M421 22q-14 -13 -32.5 -22t-35.5 -9q-24 0 -37.5 12t-17.5 42q-33 -28 -66.5 -41t-64.5 -13q-59 0 -95 30t-36 84q0 44 21 72t57 46.5t83.5 29.5t100.5 20v44q0 55 -24.5 78t-75.5 23q-34 0 -67.5 -11t-73.5 -41v49q21 13 38.5 21t34 13t33 7t35.5 2q27 0 53.5 -6
t47.5 -21t34 -41.5t13 -66.5v-259q0 -29 18 -29q14 0 30.5 9t26.5 18v-40zM298 233q-45 -8 -84 -17t-68 -23t-45.5 -35.5t-16.5 -52.5q0 -42 25.5 -58t64.5 -16q33 0 62.5 13.5t61.5 42.5v146zM302 636q18 0 31 -13t13 -31t-13 -31t-31 -13t-31 13t-13 31t13 31t31 13z
M125 636q18 0 31 -13t13 -31t-13 -31t-31 -13t-31 13t-13 31t13 31t31 13z" />
    <glyph glyph-name="atilde" unicode="&#xe3;" horiz-adv-x="427" 
d="M421 22q-14 -13 -32.5 -22t-35.5 -9q-24 0 -37.5 12t-17.5 42q-33 -28 -66.5 -41t-64.5 -13q-59 0 -95 30t-36 84q0 44 21 72t57 46.5t83.5 29.5t100.5 20v44q0 55 -24.5 78t-75.5 23q-34 0 -67.5 -11t-73.5 -41v49q21 13 38.5 21t34 13t33 7t35.5 2q27 0 53.5 -6
t47.5 -21t34 -41.5t13 -66.5v-259q0 -29 18 -29q14 0 30.5 9t26.5 18v-40zM298 233q-45 -8 -84 -17t-68 -23t-45.5 -35.5t-16.5 -52.5q0 -42 25.5 -58t64.5 -16q33 0 62.5 13.5t61.5 42.5v146zM377 643q2 -22 -4.5 -39.5t-18.5 -30.5q-23 -26 -59 -26q-20 0 -43 8t-46 17
l-44 16.5t-38 7.5q-36 0 -42 -48h-32q0 18 4.5 35.5t14.5 30.5t25.5 21t37.5 8q23 0 45 -7.5t43 -16.5l42.5 -17t39.5 -8q20 0 30.5 11.5t14.5 37.5h30v0z" />
    <glyph glyph-name="aring" unicode="&#xe5;" horiz-adv-x="427" 
d="M421 22q-14 -13 -32.5 -22t-35.5 -9q-24 0 -37.5 12t-17.5 42q-33 -28 -66.5 -41t-64.5 -13q-59 0 -95 30t-36 84q0 44 21 72t57 46.5t83.5 29.5t100.5 20v44q0 55 -24.5 78t-75.5 23q-34 0 -67.5 -11t-73.5 -41v49q21 13 38.5 21t34 13t33 7t35.5 2q27 0 53.5 -6
t47.5 -21t34 -41.5t13 -66.5v-259q0 -29 18 -29q14 0 30.5 9t26.5 18v-40zM298 233q-45 -8 -84 -17t-68 -23t-45.5 -35.5t-16.5 -52.5q0 -42 25.5 -58t64.5 -16q33 0 62.5 13.5t61.5 42.5v146zM214 652q-25 0 -42.5 -17t-17.5 -42t17.5 -42.5t42.5 -17.5t42 17.5t17 42.5
t-17 42t-42 17zM214 679q36 0 61 -25t25 -61t-25 -61.5t-61 -25.5t-61.5 25.5t-25.5 61.5t25.5 61t61.5 25z" />
    <glyph glyph-name="ccedilla" unicode="&#xe7;" horiz-adv-x="417" 
d="M387 14q-38 -13 -65.5 -18t-59.5 -5h-9t-9 2l-8 -28q32 -5 47 -22.5t15 -40.5q0 -24 -12 -40.5t-31.5 -25.5t-45.5 -10.5t-53 4.5l5 32q44 -4 71 2.5t27 34.5q0 38 -62 39l17 57q-39 7 -71 26t-54.5 48t-34.5 66.5t-12 82.5q0 53 16 97t45 76t69 49.5t88 17.5q29 0 55 -5
t64 -17v-53q-39 16 -64 22t-53 6q-38 0 -69 -13.5t-53 -38.5t-34.5 -59.5t-12.5 -76.5q0 -85 46.5 -135t126.5 -50q31 0 57 5.5t64 20.5v-50z" />
    <glyph glyph-name="eacute" unicode="&#xe9;" horiz-adv-x="479" 
d="M91 241q-5 -43 8 -80t38 -64.5t60 -43t73 -15.5q45 0 84 16t83 51v-54q-78 -60 -173 -60q-49 0 -90 18t-71 49.5t-46.5 75.5t-16.5 96q0 49 15.5 91t43 72.5t65 47.5t82.5 17q36 0 71.5 -13t64 -39.5t46 -67.5t17.5 -97h-354zM388 280q-25 131 -142 131q-56 0 -96 -34.5
t-53 -96.5h291zM259 521h-33l104 156h81z" />
    <glyph glyph-name="egrave" unicode="&#xe8;" horiz-adv-x="479" 
d="M91 241q-5 -43 8 -80t38 -64.5t60 -43t73 -15.5q45 0 84 16t83 51v-54q-78 -60 -173 -60q-49 0 -90 18t-71 49.5t-46.5 75.5t-16.5 96q0 49 15.5 91t43 72.5t65 47.5t82.5 17q36 0 71.5 -13t64 -39.5t46 -67.5t17.5 -97h-354zM388 280q-25 131 -142 131q-56 0 -96 -34.5
t-53 -96.5h291zM203 677l104 -156h-33l-152 156h81z" />
    <glyph glyph-name="ecircumflex" unicode="&#xea;" horiz-adv-x="479" 
d="M91 241q-5 -43 8 -80t38 -64.5t60 -43t73 -15.5q45 0 84 16t83 51v-54q-78 -60 -173 -60q-49 0 -90 18t-71 49.5t-46.5 75.5t-16.5 96q0 49 15.5 91t43 72.5t65 47.5t82.5 17q36 0 71.5 -13t64 -39.5t46 -67.5t17.5 -97h-354zM388 280q-25 131 -142 131q-56 0 -96 -34.5
t-53 -96.5h291zM379 521h-34l-103 113l-104 -113h-34l108 156h61z" />
    <glyph glyph-name="edieresis" unicode="&#xeb;" horiz-adv-x="479" 
d="M91 241q-5 -43 8 -80t38 -64.5t60 -43t73 -15.5q45 0 84 16t83 51v-54q-78 -60 -173 -60q-49 0 -90 18t-71 49.5t-46.5 75.5t-16.5 96q0 49 15.5 91t43 72.5t65 47.5t82.5 17q36 0 71.5 -13t64 -39.5t46 -67.5t17.5 -97h-354zM388 280q-25 131 -142 131q-56 0 -96 -34.5
t-53 -96.5h291zM328 636q18 0 31 -13t13 -31t-13 -31t-31 -13t-31 13t-13 31t13 31t31 13zM151 636q18 0 31 -13t13 -31t-13 -31t-31 -13t-31 13t-13 31t13 31t31 13z" />
    <glyph glyph-name="iacute" unicode="&#xed;" horiz-adv-x="188" 
d="M118 0h-48v449h48v-449zM75 521h-33l104 156h81z" />
    <glyph glyph-name="igrave" unicode="&#xec;" horiz-adv-x="188" 
d="M118 0h-48v449h48v-449zM56 677l104 -156h-33l-152 156h81z" />
    <glyph glyph-name="icircumflex" unicode="&#xee;" horiz-adv-x="188" 
d="M118 0h-48v449h48v-449zM233 521h-34l-103 113l-104 -113h-34l108 156h61z" />
    <glyph glyph-name="idieresis" unicode="&#xef;" horiz-adv-x="188" 
d="M118 0h-48v449h48v-449zM184 636q18 0 31 -13t13 -31t-13 -31t-31 -13t-31 13t-13 31t13 31t31 13zM7 636q18 0 31 -13t13 -31t-13 -31t-31 -13t-31 13t-13 31t13 31t31 13z" />
    <glyph glyph-name="ntilde" unicode="&#xf1;" horiz-adv-x="484" 
d="M110 371h2q31 47 65 67t83 20q36 0 66.5 -11.5t53 -35t35 -58t12.5 -79.5v-274h-48v256q0 76 -31 115.5t-91 39.5q-49 0 -83 -23.5t-64 -72.5v-315h-48v449h48v-78zM409 643q2 -22 -4.5 -39.5t-18.5 -30.5q-23 -26 -59 -26q-20 0 -43 8t-46 17l-44 16.5t-38 7.5
q-36 0 -42 -48h-32q0 18 4.5 35.5t14.5 30.5t25.5 21t37.5 8q23 0 45 -7.5t43 -16.5l42.5 -17t39.5 -8q20 0 30.5 11.5t14.5 37.5h30v0z" />
    <glyph glyph-name="oacute" unicode="&#xf3;" horiz-adv-x="542" 
d="M499 224q0 -50 -17 -92.5t-47.5 -74t-72.5 -49t-91 -17.5t-91 17.5t-72.5 49t-48 74t-17.5 92.5t17.5 93t48 74.5t72.5 49t91 17.5t91 -17.5t72.5 -49t47.5 -74.5t17 -93zM448 224q0 40 -13.5 74.5t-37 59.5t-56 39t-70.5 14t-70.5 -14t-56.5 -39t-37.5 -59.5
t-13.5 -74.5t13.5 -74t37.5 -59t56.5 -39t70.5 -14t70.5 14t56 39t37 59t13.5 74zM276 521h-33l104 156h81z" />
    <glyph glyph-name="ograve" unicode="&#xf2;" horiz-adv-x="542" 
d="M499 224q0 -50 -17 -92.5t-47.5 -74t-72.5 -49t-91 -17.5t-91 17.5t-72.5 49t-48 74t-17.5 92.5t17.5 93t48 74.5t72.5 49t91 17.5t91 -17.5t72.5 -49t47.5 -74.5t17 -93zM448 224q0 40 -13.5 74.5t-37 59.5t-56 39t-70.5 14t-70.5 -14t-56.5 -39t-37.5 -59.5
t-13.5 -74.5t13.5 -74t37.5 -59t56.5 -39t70.5 -14t70.5 14t56 39t37 59t13.5 74zM223 677l104 -156h-33l-152 156h81z" />
    <glyph glyph-name="ocircumflex" unicode="&#xf4;" horiz-adv-x="542" 
d="M499 224q0 -50 -17 -92.5t-47.5 -74t-72.5 -49t-91 -17.5t-91 17.5t-72.5 49t-48 74t-17.5 92.5t17.5 93t48 74.5t72.5 49t91 17.5t91 -17.5t72.5 -49t47.5 -74.5t17 -93zM448 224q0 40 -13.5 74.5t-37 59.5t-56 39t-70.5 14t-70.5 -14t-56.5 -39t-37.5 -59.5
t-13.5 -74.5t13.5 -74t37.5 -59t56.5 -39t70.5 -14t70.5 14t56 39t37 59t13.5 74zM409 521h-34l-103 113l-104 -113h-34l108 156h61z" />
    <glyph glyph-name="odieresis" unicode="&#xf6;" horiz-adv-x="542" 
d="M499 224q0 -50 -17 -92.5t-47.5 -74t-72.5 -49t-91 -17.5t-91 17.5t-72.5 49t-48 74t-17.5 92.5t17.5 93t48 74.5t72.5 49t91 17.5t91 -17.5t72.5 -49t47.5 -74.5t17 -93zM448 224q0 40 -13.5 74.5t-37 59.5t-56 39t-70.5 14t-70.5 -14t-56.5 -39t-37.5 -59.5
t-13.5 -74.5t13.5 -74t37.5 -59t56.5 -39t70.5 -14t70.5 14t56 39t37 59t13.5 74zM360 636q18 0 31 -13t13 -31t-13 -31t-31 -13t-31 13t-13 31t13 31t31 13zM183 636q18 0 31 -13t13 -31t-13 -31t-31 -13t-31 13t-13 31t13 31t31 13z" />
    <glyph glyph-name="otilde" unicode="&#xf5;" horiz-adv-x="542" 
d="M499 224q0 -50 -17 -92.5t-47.5 -74t-72.5 -49t-91 -17.5t-91 17.5t-72.5 49t-48 74t-17.5 92.5t17.5 93t48 74.5t72.5 49t91 17.5t91 -17.5t72.5 -49t47.5 -74.5t17 -93zM448 224q0 40 -13.5 74.5t-37 59.5t-56 39t-70.5 14t-70.5 -14t-56.5 -39t-37.5 -59.5
t-13.5 -74.5t13.5 -74t37.5 -59t56.5 -39t70.5 -14t70.5 14t56 39t37 59t13.5 74zM435 643q2 -22 -4.5 -39.5t-18.5 -30.5q-23 -26 -59 -26q-20 0 -43 8t-46 17l-44 16.5t-38 7.5q-36 0 -42 -48h-32q0 18 4.5 35.5t14.5 30.5t25.5 21t37.5 8q23 0 45 -7.5t43 -16.5l42.5 -17
t39.5 -8q20 0 30.5 11.5t14.5 37.5h30v0z" />
    <glyph glyph-name="uacute" unicode="&#xfa;" horiz-adv-x="484" 
d="M374 74h-2q-15 -22 -30.5 -37.5t-32.5 -25.5t-38 -15t-47 -5q-29 0 -58.5 9.5t-53.5 30.5t-39.5 55.5t-15.5 84.5v278h48v-277q0 -34 10 -59.5t27 -42t39 -24.5t47 -8q53 0 85 25t61 71v315h48v-449h-48v74zM260 521h-33l104 156h81z" />
    <glyph glyph-name="ugrave" unicode="&#xf9;" horiz-adv-x="484" 
d="M374 74h-2q-15 -22 -30.5 -37.5t-32.5 -25.5t-38 -15t-47 -5q-29 0 -58.5 9.5t-53.5 30.5t-39.5 55.5t-15.5 84.5v278h48v-277q0 -34 10 -59.5t27 -42t39 -24.5t47 -8q53 0 85 25t61 71v315h48v-449h-48v74zM181 677l104 -156h-33l-152 156h81z" />
    <glyph glyph-name="ucircumflex" unicode="&#xfb;" horiz-adv-x="484" 
d="M374 74h-2q-15 -22 -30.5 -37.5t-32.5 -25.5t-38 -15t-47 -5q-29 0 -58.5 9.5t-53.5 30.5t-39.5 55.5t-15.5 84.5v278h48v-277q0 -34 10 -59.5t27 -42t39 -24.5t47 -8q53 0 85 25t61 71v315h48v-449h-48v74zM378 521h-34l-103 113l-104 -113h-34l108 156h61z" />
    <glyph glyph-name="udieresis" unicode="&#xfc;" horiz-adv-x="484" 
d="M374 74h-2q-15 -22 -30.5 -37.5t-32.5 -25.5t-38 -15t-47 -5q-29 0 -58.5 9.5t-53.5 30.5t-39.5 55.5t-15.5 84.5v278h48v-277q0 -34 10 -59.5t27 -42t39 -24.5t47 -8q53 0 85 25t61 71v315h48v-449h-48v74zM329 636q18 0 31 -13t13 -31t-13 -31t-31 -13t-31 13t-13 31
t13 31t31 13zM152 636q18 0 31 -13t13 -31t-13 -31t-31 -13t-31 13t-13 31t13 31t31 13z" />
    <glyph glyph-name="dagger" unicode="&#x2020;" horiz-adv-x="490" 
d="M259 408l205 13v-55l-205 13l18 -609h-65l19 609l-206 -13v55l206 -13l-19 283h65z" />
    <glyph glyph-name="degree" unicode="&#xb0;" horiz-adv-x="400" 
d="M200 691q29 0 54.5 -11t44.5 -29.5t30 -44t11 -54.5t-11 -54.5t-30 -44.5t-44.5 -30t-54.5 -11t-54.5 11t-44 30t-29.5 44.5t-11 54.5t11 54.5t29.5 44t44 29.5t54.5 11zM200 651q-42 0 -70.5 -29t-28.5 -71t28.5 -70.5t70.5 -28.5t71 28.5t29 70.5t-29 71t-71 29z" />
    <glyph glyph-name="cent" unicode="&#xa2;" horiz-adv-x="417" 
d="M379 383q-17 7 -30.5 12t-25.5 8l-124 -354q15 -6 31.5 -8.5t35.5 -2.5q31 0 57 5.5t64 20.5v-50q-38 -13 -65.5 -18t-59.5 -5q-22 0 -41.5 3.5t-37.5 8.5l-67 -192h-44l73 209q-49 29 -76 79.5t-27 118.5q0 53 16 97t45 76t69 49.5t88 17.5q10 0 19 -0.5t18 -1.5l64 182
h44l-67 -190q20 -5 41 -12v-53zM93 223q0 -53 18 -92t51 -63l119 342q-5 1 -9.5 1h-9.5q-38 0 -69 -13.5t-53 -38.5t-34.5 -59.5t-12.5 -76.5z" />
    <glyph glyph-name="sterling" unicode="&#xa3;" horiz-adv-x="479" 
d="M151 307q4 -24 6 -50t2 -54q0 -36 -12 -76t-37 -72q14 4 30 6t36 2q24 0 46 -3.5t44 -7.5t44 -7.5t45 -3.5q26 0 49.5 4t49.5 18v-50q-22 -11 -45.5 -16.5t-53.5 -5.5q-22 0 -44.5 4l-45.5 8.5t-47.5 8.5t-49.5 4q-18 0 -34.5 -1t-33.5 -4t-35 -8t-40 -12v38
q21 15 36.5 36.5t25.5 45t14.5 47.5t4.5 45q0 29 -2.5 54t-7.5 50h-59v47h50l-15.5 81t-7.5 84q0 37 15 68.5t41 54.5t62 36t78 13q40 0 79 -10t79 -32v-56q-45 27 -82.5 38t-75.5 11q-62 0 -100.5 -34t-38.5 -89q0 -42 7 -82l15 -83h247v-47h-239z" />
    <glyph glyph-name="section" unicode="&#xa7;" horiz-adv-x="396" 
d="M286 581q-7 32 -29 49t-57 17q-19 0 -36 -6.5t-29.5 -18t-19.5 -27t-7 -33.5q0 -34 19.5 -64t48.5 -58.5t63 -57t63 -59t48.5 -65t19.5 -75.5q0 -20 -4.5 -38.5t-14 -38t-25.5 -40t-40 -45.5q27 -32 38 -59t11 -60q0 -60 -39 -96t-103 -36q-52 0 -89.5 28t-43.5 80h50
q14 -64 85 -64q41 0 67.5 25t26.5 63q0 33 -19.5 62t-48.5 57t-63.5 56t-63.5 59t-48.5 66t-19.5 77q0 40 19.5 77t64.5 82q-29 37 -39.5 63t-10.5 58q0 29 10.5 53.5t29 42t44.5 27t58 9.5q59 0 94 -31.5t41 -78.5h-51zM324 179q0 29 -13 55t-45 58q-37 37 -68 64.5
l-57 50.5q-35 -35 -49.5 -63.5t-14.5 -63.5q0 -33 15.5 -60.5t41 -53.5t57.5 -53t65 -60q68 64 68 126z" />
    <glyph glyph-name="bullet" unicode="&#x2022;" horiz-adv-x="500" 
d="M250 463q25 0 47.5 -9.5t39 -26t26 -39t9.5 -47.5t-9.5 -47.5t-26 -39t-39 -26t-47.5 -9.5t-47.5 9.5t-39 26t-26 39t-9.5 47.5t9.5 47.5t26 39t39 26t47.5 9.5z" />
    <glyph glyph-name="paragraph" unicode="&#xb6;" horiz-adv-x="650" 
d="M621 648h-96v-847h-62v847h-130v-847h-64v504q-50 -2 -90.5 12.5t-69 42.5t-44.5 66.5t-16 84.5q0 47 16.5 85t47 64.5t74 41t96.5 14.5h338v-68z" />
    <glyph glyph-name="germandbls" unicode="&#xdf;" horiz-adv-x="500" 
d="M62 487q0 97 48 150.5t137 53.5q40 0 73.5 -12.5t57.5 -34t37.5 -52t13.5 -66.5q0 -16 -4.5 -37.5t-15 -42.5t-27.5 -39t-43 -28q120 -47 120 -181q0 -45 -13.5 -83t-37 -65.5t-56.5 -43t-72 -15.5q-16 0 -29 2t-33 7v50q21 -8 33.5 -10t26.5 -2q60 0 95 43.5t35 115.5
t-35.5 113t-99.5 46v45q26 -2 46 8t33 27.5t19.5 40.5t6.5 46q0 59 -35.5 93.5t-95.5 34.5q-41 0 -67.5 -13.5t-42 -36.5t-21.5 -55t-6 -68v-478h-48v487z" />
    <glyph glyph-name="registered" unicode="&#xae;" horiz-adv-x="800" 
d="M412 547q63 0 98 -27.5t35 -76.5q0 -17 -5 -34t-17.5 -32t-33 -26.5t-51.5 -16.5q20 -12 33 -22t25.5 -27t27 -47.5t36.5 -82.5h-59q-26 58 -45 92t-38 52t-41.5 23t-55.5 5h-23v-172h-48v392h162zM363 366q69 0 97 16.5t28 56.5q0 39 -26 54t-92 15h-72v-142h65z
M400 728q77 0 145 -29.5t118.5 -80t80 -118.5t29.5 -145t-29.5 -145t-80 -118.5t-118.5 -80t-145 -29.5t-145 29.5t-118.5 80t-80 118.5t-29.5 145t29.5 145t80 118.5t118.5 80t145 29.5zM400 681q-68 0 -127 -25.5t-103.5 -70t-70 -104t-25.5 -126.5q0 -68 25.5 -127
t70 -103.5t103.5 -70t127 -25.5q67 0 126.5 25.5t104 70t70 103.5t25.5 127q0 67 -25.5 126.5t-70 104t-104 70t-126.5 25.5z" />
    <glyph glyph-name="copyright" unicode="&#xa9;" horiz-adv-x="800" 
d="M515 437q-35 81 -111 81q-29 0 -54 -10.5t-44 -30.5t-29.5 -48.5t-10.5 -64.5q0 -40 9.5 -72.5t26.5 -56t42 -36.5t55 -13q51 0 79.5 28t43.5 72l44 -16q-7 -27 -22 -50.5t-36 -40.5t-48 -27t-58 -10q-41 0 -75.5 16.5t-59 45t-38.5 67.5t-14 85q0 41 13 78t37.5 64.5
t59.5 44t80 16.5q53 0 90.5 -26.5t66.5 -83.5zM400 728q77 0 145 -29.5t118.5 -80t80 -118.5t29.5 -145t-29.5 -145t-80 -118.5t-118.5 -80t-145 -29.5t-145 29.5t-118.5 80t-80 118.5t-29.5 145t29.5 145t80 118.5t118.5 80t145 29.5zM400 681q-68 0 -127 -25.5t-103.5 -70
t-70 -104t-25.5 -126.5q0 -68 25.5 -127t70 -103.5t103.5 -70t127 -25.5q67 0 126.5 25.5t104 70t70 103.5t25.5 127q0 67 -25.5 126.5t-70 104t-104 70t-126.5 25.5z" />
    <glyph glyph-name="trademark" unicode="&#x2122;" horiz-adv-x="940" 
d="M410 714v-41h-129v-356h-51v356h-130v41h310zM531 714l99 -317h2l103 317h76v-397h-45v356h-2l-117 -356h-34l-110 356h-2v-356h-45v397h75z" />
    <glyph glyph-name="acute" unicode="&#xb4;" 
d="M186 521h-33l104 156h81z" />
    <glyph glyph-name="dieresis" unicode="&#xa8;" 
d="M255 636q18 0 31 -13t13 -31t-13 -31t-31 -13t-31 13t-13 31t13 31t31 13zM78 636q18 0 31 -13t13 -31t-13 -31t-31 -13t-31 13t-13 31t13 31t31 13z" />
    <glyph glyph-name="AE" unicode="&#xc6;" horiz-adv-x="865" 
d="M818 638h-321v-272h314v-44h-314v-278h330v-44h-383v322h-200l-200 -322h-58l426 682h406v-44zM273 366h171v279h-2z" />
    <glyph glyph-name="Oslash" unicode="&#xd8;" horiz-adv-x="823" 
d="M601 579q-36 30 -86 46.5t-102 16.5q-64 0 -119.5 -23t-97 -63.5t-65 -95.5t-23.5 -119q0 -63 22.5 -116.5t64.5 -95.5zM132 -11l-38 29l64 71q-51 51 -79 114.5t-28 137.5q0 73 28 137t76.5 111.5t114 74.5t141.5 27q68 0 123.5 -20t101.5 -54l63 70l37 -25l-67 -74
q49 -48 76.5 -110.5t27.5 -136.5t-28 -137.5t-77 -111t-115 -74.5t-142 -27q-65 0 -117.5 18.5t-98.5 49.5zM230 98q34 -25 81 -41.5t102 -16.5q64 0 119.5 23t96 63.5t64 95.5t23.5 119t-21.5 113.5t-59.5 94.5z" />
    <glyph glyph-name="plusminus" unicode="&#xb1;" horiz-adv-x="660" 
d="M592 44v-44h-524v44h524zM308 373v240h44v-240h240v-44h-240v-240h-44v240h-240v44h240z" />
    <glyph glyph-name="yen" unicode="&#xa5;" horiz-adv-x="556" 
d="M74 716l207 -354l204 354h69l-210 -354h179v-47h-212v-76h212v-47h-212v-192h-64v192h-214v47h214v76h-214v47h181l-212 354h72z" />
    <glyph glyph-name="mu" unicode="&#xb5;" horiz-adv-x="556" 
d="M149 449v-233q0 -84 29.5 -132.5t102.5 -48.5q28 0 52 8t42 27.5t28 51.5t10 80v247h48v-449h-48v50q-29 -32 -59 -45.5t-74 -13.5q-42 0 -71.5 13.5t-59.5 45.5v-227h-48v626h48z" />
    <glyph glyph-name="mu" unicode="&#x3bc;" horiz-adv-x="556" 
d="M149 449v-233q0 -84 29.5 -132.5t102.5 -48.5q28 0 52 8t42 27.5t28 51.5t10 80v247h48v-449h-48v50q-29 -32 -59 -45.5t-74 -13.5q-42 0 -71.5 13.5t-59.5 45.5v-227h-48v626h48z" />
    <glyph glyph-name="ordfeminine" unicode="&#xaa;" horiz-adv-x="281" 
d="M280 438q-46 -29 -64 -29q-23 0 -27 29q-44 -29 -84 -29q-35 0 -59.5 20.5t-24.5 50.5q0 43 43.5 69t124.5 30v31q0 50 -58 50q-12 0 -21.5 -1.5t-20 -6t-23 -12l-29.5 -18.5v39q29 17 51.5 23.5t47.5 6.5q48 0 71.5 -22t23.5 -55v-148q0 -11 3 -15.5t6 -4.5t15 9.5
t25 18.5v-36zM189 550q-60 0 -92.5 -19.5t-32.5 -51.5q0 -18 14 -29t37 -11q18 0 35.5 7.5t38.5 24.5v79z" />
    <glyph glyph-name="ordmasculine" unicode="&#xba;" horiz-adv-x="354" 
d="M329 550q0 -64 -41.5 -102.5t-110.5 -38.5q-33 0 -60.5 10.5t-48 29t-32 44.5t-11.5 57t11 56.5t31.5 44.5t48.5 29.5t61 10.5q32 0 60 -11t48.5 -30t32 -45t11.5 -55zM284 550q0 46 -30 77t-77 31t-77 -30t-30 -78q0 -49 29.5 -78.5t77.5 -29.5t77.5 30t29.5 78z" />
    <glyph glyph-name="ae" unicode="&#xe6;" horiz-adv-x="667" 
d="M341 243v-59q0 -40 11.5 -67.5t29.5 -45t41 -25.5t47 -8q79 0 160 59v-55q-40 -25 -81.5 -38t-83.5 -13q-43 0 -77 16.5t-66 53.5q-53 -38 -91.5 -54t-77.5 -16q-26 0 -48 8.5t-38 24t-25 37t-9 46.5q0 37 18 63.5t51.5 46t81.5 35t109 30.5v33q0 47 -22 73t-68 26
q-35 0 -71 -13.5t-78 -42.5v50q73 50 156 50q44 0 71.5 -15.5t50.5 -53.5q29 38 57.5 53.5t67.5 15.5q40 0 72.5 -16.5t54.5 -45t34 -68t12 -85.5h-289zM577 282q-1 30 -11.5 54t-27 40.5t-38 25.5t-44.5 9q-49 0 -81 -36t-34 -93h236zM293 243q-46 -11 -85.5 -24.5t-68 -30
t-44.5 -37t-16 -46.5q0 -32 24 -53t60 -21q29 0 59.5 14t70.5 44v154z" />
    <glyph glyph-name="oslash" unicode="&#xf8;" horiz-adv-x="542" 
d="M375 377q-44 34 -104 34q-38 0 -70.5 -14t-56.5 -39t-37.5 -59.5t-13.5 -74.5t11 -68.5t29 -52.5zM75 -30l-33 30l58 66q-27 29 -42.5 68.5t-15.5 89.5t17.5 93t48 74.5t72.5 49t91 17.5q38 0 73.5 -11.5t63.5 -32.5l53 60l31 -25l-54 -62q29 -33 45 -72.5t16 -90.5
q0 -50 -17 -92.5t-47.5 -74t-72.5 -49t-91 -17.5q-45 0 -79 13t-60 32zM165 73q22 -15 45 -25t61 -10t70.5 14t56 39t37 59t13.5 74q0 37 -11.5 69.5t-32.5 54.5z" />
    <glyph glyph-name="questiondown" unicode="&#xbf;" horiz-adv-x="381" 
d="M255.008 255.012q13.999 -15.999 18.499 -30.998q4.49902 -14.999 4.49902 -27.998q0 -25.999 -13.499 -49.4971q-13.499 -23.499 -33.998 -45.9971q-20.498 -22.499 -44.4971 -44.9971q-23.998 -22.499 -44.4971 -46.4971q-20.499 -23.999 -33.998 -50.9971
q-13.499 -26.999 -13.499 -57.9971q0 -25.998 9.99902 -44.4971q10 -18.499 27.499 -29.998q17.498 -11.499 40.4971 -16.999t48.9971 -5.5q44.9971 0 75.4951 8.5q30.498 8.49902 59.4971 23.498v-49.9961q-24.999 -10 -57.9971 -18.499q-32.998 -8.5 -77.9951 -8.5
q-36.998 0 -69.4961 9.5q-32.498 9.49902 -56.4961 27.498q-23.999 17.999 -37.498 44.4971t-13.499 60.4961q0 35.998 13.999 65.4961t34.998 55.4971q20.999 25.998 44.9971 48.9971l44.9971 44.9971q20.999 21.999 34.998 44.4971q13.999 22.499 13.999 47.4971
q0 14.999 -4.49902 25.999q-4.5 10.999 -10.5 21.998h38.998zM206.011 449h64.9961v-96.9941h-64.9961v96.9941z" />
    <glyph glyph-name="exclamdown" unicode="&#xa1;" horiz-adv-x="177" 
d="M121 449h-65v-96.9941h65v96.9941zM104 257.012h-31l-17 -489.97h65z" />
    <glyph glyph-name="logicalnot" unicode="&#xac;" horiz-adv-x="660" 
d="M592 483v-284h-44v240h-480v44h524z" />
    <glyph glyph-name="florin" unicode="&#x192;" horiz-adv-x="556" 
d="M231 -42q-19 -88 -66 -128t-119 -40q-20 0 -41 4t-44 15l9 45q26 -10 43 -13.5t41 -3.5q56 0 86.5 33.5t46.5 105.5l109 499h-83l7 39h83l11 48q20 88 66.5 128t118.5 40q20 0 41 -4t44 -15l-9 -45q-26 10 -43 13.5t-41 3.5q-56 0 -86.5 -32.5t-46.5 -104.5l-7 -32h107
l-7 -39h-107z" />
    <glyph glyph-name="guillemotleft" unicode="&#xab;" horiz-adv-x="500" 
d="M481 7h-60l-189 224l189 224h60l-188 -224zM268 7h-60l-189 224l189 224h60l-188 -224z" />
    <glyph glyph-name="guillemotright" unicode="&#xbb;" horiz-adv-x="500" 
d="M232 455h60l189 -224l-189 -224h-60l188 224zM19 455h60l189 -224l-189 -224h-60l188 224z" />
    <glyph glyph-name="ellipsis" unicode="&#x2026;" horiz-adv-x="1000" 
d="M865 0h-65v97h65v-97zM532 0h-65v97h65v-97zM199 0h-65v97h65v-97z" />
    <glyph glyph-name="Agrave" unicode="&#xc0;" horiz-adv-x="667" 
d="M608 0l-108 236h-333l-108 -236h-55l315 687h29l315 -687h-55zM333 601l-146 -321h293zM325 895l104 -156h-33l-152 156h81z" />
    <glyph glyph-name="Atilde" unicode="&#xc3;" horiz-adv-x="667" 
d="M608 0l-108 236h-333l-108 -236h-55l315 687h29l315 -687h-55zM333 601l-146 -321h293zM497 861q2 -22 -4.5 -39.5t-18.5 -30.5q-23 -26 -59 -26q-20 0 -43 8t-46 17l-44 16.5t-38 7.5q-36 0 -42 -48h-32q0 18 4.5 35.5t14.5 30.5t25.5 21t37.5 8q23 0 45 -7.5t43 -16.5
l42.5 -17t39.5 -8q20 0 30.5 11.5t14.5 37.5h30v0z" />
    <glyph glyph-name="Otilde" unicode="&#xd5;" horiz-adv-x="823" 
d="M773 341q0 -74 -28 -137.5t-77 -111t-115 -74.5t-142 -27t-141.5 27t-114 74.5t-76.5 111t-28 137.5q0 73 28 137t76.5 111.5t114 74.5t141.5 27t142 -27t115 -74.5t77 -111.5t28 -137zM716 341q0 64 -23.5 119t-64 95.5t-96 63.5t-119.5 23t-119.5 -23t-97 -63.5
t-65 -95.5t-23.5 -119t23.5 -119t65 -95.5t97 -63.5t119.5 -23t119.5 23t96 63.5t64 95.5t23.5 119zM575 861q2 -22 -4.5 -39.5t-18.5 -30.5q-23 -26 -59 -26q-20 0 -43 8t-46 17l-44 16.5t-38 7.5q-36 0 -42 -48h-32q0 18 4.5 35.5t14.5 30.5t25.5 21t37.5 8q23 0 45 -7.5
t43 -16.5l42.5 -17t39.5 -8q20 0 30.5 11.5t14.5 37.5h30v0z" />
    <glyph glyph-name="OE" unicode="&#x152;" horiz-adv-x="896" 
d="M851 638h-322v-274h315v-44h-315v-276h329v-44h-450q-96 0 -165.5 31t-114.5 80.5t-66 109.5t-21 119q0 62 22.5 123.5t67.5 110t113.5 78.5t161.5 30h445v-44zM417 638q-86 0 -146.5 -27.5t-99 -71t-56 -96t-17.5 -103.5q0 -54 19 -107t58.5 -95t100 -68t143.5 -26h57
v594h-59z" />
    <glyph glyph-name="oe" unicode="&#x153;" horiz-adv-x="833" 
d="M481 242q-2 -54 8 -92.5t29 -63t46 -36.5t59 -12q44 0 82.5 16t77.5 51v-55q-74 -59 -166 -59q-60 0 -99 25.5t-64 79.5q-42 -55 -87.5 -80t-104.5 -25q-46 0 -86 15.5t-70 45.5t-47.5 73.5t-17.5 98.5q0 52 16.5 95t46.5 74t71.5 48t91.5 17q60 0 105 -23t82 -72
q23 45 66 70t88 25q39 0 73.5 -15.5t60 -43.5t39.5 -68t12 -89h-312zM737 280q-5 64 -40.5 97.5t-87.5 33.5q-24 0 -46.5 -9t-40 -26t-28.5 -41t-11 -55h254zM430 233q0 83 -42.5 130.5t-119.5 47.5q-39 0 -71.5 -13.5t-56 -37.5t-36 -58t-12.5 -76q0 -41 13 -75.5t36 -59.5
t54.5 -39t69.5 -14q37 0 67.5 14t52.5 40t33.5 61.5t11.5 79.5z" />
    <glyph glyph-name="endash" unicode="&#x2013;" horiz-adv-x="500" 
d="M506 266v-32h-512v32h512z" />
    <glyph glyph-name="emdash" unicode="&#x2014;" horiz-adv-x="1000" 
d="M1006 266v-32h-1012v32h1012z" />
    <glyph glyph-name="quotedblleft" unicode="&#x201c;" horiz-adv-x="396" 
d="M275 546q0 38 16 76t49 62v-35q-14 -20 -17.5 -38t-3.5 -44h21v-97h-65v76zM56 546q0 38 16 76t49 62v-35q-14 -20 -17.5 -38t-3.5 -44h21v-97h-65v76z" />
    <glyph glyph-name="quotedblright" unicode="&#x201d;" horiz-adv-x="396" 
d="M340 608q0 -38 -16 -76t-49 -62v35q14 20 17.5 38t3.5 44h-21v97h65v-76zM121 608q0 -38 -16 -76t-49 -62v35q14 20 17.5 38t3.5 44h-21v97h65v-76z" />
    <glyph glyph-name="quoteleft" unicode="&#x2018;" horiz-adv-x="177" 
d="M56 546q0 38 16 76t49 62v-35q-14 -20 -17.5 -38t-3.5 -44h21v-97h-65v76z" />
    <glyph glyph-name="quoteright" unicode="&#x2019;" horiz-adv-x="177" 
d="M121 608q0 -38 -16 -76t-49 -62v35q14 20 17.5 38t3.5 44h-21v97h65v-76z" />
    <glyph glyph-name="divide" unicode="&#xf7;" horiz-adv-x="660" 
d="M592 373v-44h-524v44h524zM330 478q-17 0 -28 11t-11 28t11 28t28 11t28 -11t11 -28t-11 -28t-28 -11zM330 146q-17 0 -28 11t-11 28t11 28t28 11t28 -11t11 -28t-11 -28t-28 -11z" />
    <glyph glyph-name="ydieresis" unicode="&#xff;" horiz-adv-x="417" 
d="M87 -230h-49l157 317l-189 362h50l163 -314l155 314h49zM297 636q18 0 31 -13t13 -31t-13 -31t-31 -13t-31 13t-13 31t13 31t31 13zM120 636q18 0 31 -13t13 -31t-13 -31t-31 -13t-31 13t-13 31t13 31t31 13z" />
    <glyph glyph-name="Ydieresis" unicode="&#x178;" horiz-adv-x="583" 
d="M318 366v-366h-53v366l-265 316h64l228 -270l227 270h64zM380 854q18 0 31 -13t13 -31t-13 -31t-31 -13t-31 13t-13 31t13 31t31 13zM203 854q18 0 31 -13t13 -31t-13 -31t-31 -13t-31 13t-13 31t13 31t31 13z" />
    <glyph glyph-name="fraction" unicode="&#x2044;" horiz-adv-x="135" 
d="M-176 -27h-39l526 718h39z" />
    <glyph glyph-name="currency" unicode="&#xa4;" horiz-adv-x="556" 
d="M277 557q38 0 72.5 -12.5t63.5 -35.5l63 63l32 -32l-63 -63q48 -60 48 -135q0 -43 -14 -77t-34 -59l63 -63l-32 -32l-63 63q-60 -48 -136 -48q-45 0 -78.5 14.5t-56.5 33.5l-63 -63l-32 32l63 63q-23 30 -35.5 62.5t-12.5 73.5q0 42 12.5 74t35.5 61l-63 63l32 32l63 -63
q29 23 62.5 35.5t72.5 12.5zM277 509q-35 0 -65.5 -13t-53 -35.5t-35.5 -53t-13 -65.5t13 -65.5t35.5 -53.5t53 -36t65.5 -13t65.5 13t53.5 36t36 53.5t13 65.5t-13 65.5t-36 53t-53.5 35.5t-65.5 13z" />
    <glyph glyph-name="guilsinglleft" unicode="&#x2039;" horiz-adv-x="281" 
d="M265 7h-60l-189 224l189 224h60l-188 -224z" />
    <glyph glyph-name="guilsinglright" unicode="&#x203a;" horiz-adv-x="281" 
d="M16 455h60l189 -224l-189 -224h-60l188 224z" />
    <glyph glyph-name="daggerdbl" unicode="&#x2021;" horiz-adv-x="479" 
d="M227 411l-201 -14v55l201 -14l-19 253h63l-18 -253l200 14v-55l-200 14l13 -180l-13 -181l200 14v-55l-200 14l18 -253h-63l19 253l-201 -14v55l201 -14l-14 181z" />
    <glyph glyph-name="periodcentered" unicode="&#xb7;" horiz-adv-x="281" 
d="M141 400q23 0 38.5 -15.5t15.5 -38.5t-15.5 -38.5t-38.5 -15.5t-38.5 15.5t-15.5 38.5t15.5 38.5t38.5 15.5z" />
    <glyph glyph-name="quotesinglbase" unicode="&#x201a;" horiz-adv-x="177" 
d="M121 21q0 -38 -16 -76t-49 -62v35q14 20 17.5 38t3.5 44h-21v97h65v-76z" />
    <glyph glyph-name="quotedblbase" unicode="&#x201e;" horiz-adv-x="396" 
d="M338 21q0 -38 -16 -76t-49 -62v35q14 20 17.5 38t3.5 44h-21v97h65v-76zM123 21q0 -38 -16 -76t-49 -62v35q14 20 17.5 38t3.5 44h-21v97h65v-76z" />
    <glyph glyph-name="perthousand" unicode="&#x2030;" horiz-adv-x="1080" 
d="M1050 149q0 -33 -13 -62.5t-34.5 -51.5t-51 -34.5t-62.5 -12.5t-62.5 12.5t-51.5 34.5t-34.5 51.5t-12.5 62.5t12.5 62.5t34.5 51.5t51.5 34.5t62.5 12.5t62.5 -12.5t51 -34.5t34.5 -51.5t13 -62.5zM1007 149q0 24 -9.5 45.5t-25.5 37.5t-37.5 25.5t-45.5 9.5t-45.5 -9.5
t-37.5 -25.5t-25.5 -37.5t-9.5 -45.5q0 -25 9.5 -46.5t25.5 -37.5t37.5 -25t45.5 -9t45.5 9.5t37.5 25.5t25.5 37.5t9.5 45.5zM679 149q0 -33 -13 -62.5t-34.5 -51.5t-51 -34.5t-62.5 -12.5t-62.5 12.5t-51.5 34.5t-34.5 51.5t-12.5 62.5t12.5 62.5t34.5 51.5t51.5 34.5
t62.5 12.5t62.5 -12.5t51 -34.5t34.5 -51.5t13 -62.5zM636 149q0 24 -9.5 45.5t-25.5 37.5t-37.5 25.5t-45.5 9.5t-45.5 -9.5t-37.5 -25.5t-25.5 -37.5t-9.5 -45.5q0 -25 9.5 -46.5t25.5 -37.5t37.5 -25t45.5 -9t45.5 9.5t37.5 25.5t25.5 37.5t9.5 45.5zM352 530
q0 -33 -13 -62.5t-34.5 -51.5t-51 -34.5t-62.5 -12.5t-62.5 12.5t-51.5 34.5t-34.5 51.5t-12.5 62.5t12.5 62.5t34.5 51.5t51.5 34.5t62.5 12.5t62.5 -12.5t51 -34.5t34.5 -51.5t13 -62.5zM309 530q0 24 -9.5 45.5t-25.5 37.5t-37.5 25.5t-45.5 9.5t-45.5 -9.5t-37.5 -25.5
t-25.5 -37.5t-9.5 -45.5q0 -25 9.5 -46.5t25.5 -37.5t37.5 -25t45.5 -9t45.5 9.5t37.5 25.5t25.5 37.5t9.5 45.5zM96 -11h-50l550 699h49z" />
    <glyph glyph-name="Acircumflex" unicode="&#xc2;" horiz-adv-x="667" 
d="M608 0l-108 236h-333l-108 -236h-55l315 687h29l315 -687h-55zM333 601l-146 -321h293zM471 739h-34l-103 113l-104 -113h-34l108 156h61z" />
    <glyph glyph-name="Ecircumflex" unicode="&#xca;" horiz-adv-x="490" 
d="M452 638h-319v-273h311v-44h-311v-277h327v-44h-380v682h372v-44zM404 739h-34l-103 113l-104 -113h-34l108 156h61z" />
    <glyph glyph-name="Aacute" unicode="&#xc1;" horiz-adv-x="667" 
d="M608 0l-108 236h-333l-108 -236h-55l315 687h29l315 -687h-55zM333 601l-146 -321h293zM332 739h-33l104 156h81z" />
    <glyph glyph-name="Edieresis" unicode="&#xcb;" horiz-adv-x="490" 
d="M452 638h-319v-273h311v-44h-311v-277h327v-44h-380v682h372v-44zM357 854q18 0 31 -13t13 -31t-13 -31t-31 -13t-31 13t-13 31t13 31t31 13zM180 854q18 0 31 -13t13 -31t-13 -31t-31 -13t-31 13t-13 31t13 31t31 13z" />
    <glyph glyph-name="Egrave" unicode="&#xc8;" horiz-adv-x="490" 
d="M452 638h-319v-273h311v-44h-311v-277h327v-44h-380v682h372v-44zM215 895l104 -156h-33l-152 156h81z" />
    <glyph glyph-name="Iacute" unicode="&#xcd;" horiz-adv-x="208" 
d="M131 0h-53v682h53v-682zM99 739h-33l104 156h81z" />
    <glyph glyph-name="Icircumflex" unicode="&#xce;" horiz-adv-x="208" 
d="M131 0h-53v682h53v-682zM243 739h-34l-103 113l-104 -113h-34l108 156h61z" />
    <glyph glyph-name="Idieresis" unicode="&#xcf;" horiz-adv-x="208" 
d="M131 0h-53v682h53v-682zM194 854q18 0 31 -13t13 -31t-13 -31t-31 -13t-31 13t-13 31t13 31t31 13zM17 854q18 0 31 -13t13 -31t-13 -31t-31 -13t-31 13t-13 31t13 31t31 13z" />
    <glyph glyph-name="Igrave" unicode="&#xcc;" horiz-adv-x="208" 
d="M131 0h-53v682h53v-682zM57 895l104 -156h-33l-152 156h81z" />
    <glyph glyph-name="Oacute" unicode="&#xd3;" horiz-adv-x="823" 
d="M773 341q0 -74 -28 -137.5t-77 -111t-115 -74.5t-142 -27t-141.5 27t-114 74.5t-76.5 111t-28 137.5q0 73 28 137t76.5 111.5t114 74.5t141.5 27t142 -27t115 -74.5t77 -111.5t28 -137zM716 341q0 64 -23.5 119t-64 95.5t-96 63.5t-119.5 23t-119.5 -23t-97 -63.5
t-65 -95.5t-23.5 -119t23.5 -119t65 -95.5t97 -63.5t119.5 -23t119.5 23t96 63.5t64 95.5t23.5 119zM431 739h-33l104 156h81z" />
    <glyph glyph-name="Ocircumflex" unicode="&#xd4;" horiz-adv-x="823" 
d="M773 341q0 -74 -28 -137.5t-77 -111t-115 -74.5t-142 -27t-141.5 27t-114 74.5t-76.5 111t-28 137.5q0 73 28 137t76.5 111.5t114 74.5t141.5 27t142 -27t115 -74.5t77 -111.5t28 -137zM716 341q0 64 -23.5 119t-64 95.5t-96 63.5t-119.5 23t-119.5 -23t-97 -63.5
t-65 -95.5t-23.5 -119t23.5 -119t65 -95.5t97 -63.5t119.5 -23t119.5 23t96 63.5t64 95.5t23.5 119zM549 739h-34l-103 113l-104 -113h-34l108 156h61z" />
    <glyph glyph-name="Ograve" unicode="&#xd2;" horiz-adv-x="823" 
d="M773 341q0 -74 -28 -137.5t-77 -111t-115 -74.5t-142 -27t-141.5 27t-114 74.5t-76.5 111t-28 137.5q0 73 28 137t76.5 111.5t114 74.5t141.5 27t142 -27t115 -74.5t77 -111.5t28 -137zM716 341q0 64 -23.5 119t-64 95.5t-96 63.5t-119.5 23t-119.5 -23t-97 -63.5
t-65 -95.5t-23.5 -119t23.5 -119t65 -95.5t97 -63.5t119.5 -23t119.5 23t96 63.5t64 95.5t23.5 119zM367 895l104 -156h-33l-152 156h81z" />
    <glyph glyph-name="Uacute" unicode="&#xda;" horiz-adv-x="698" 
d="M349 -9q-60 0 -112 19t-90.5 57t-60.5 96t-22 135v384h53v-382q0 -69 18.5 -118.5t50 -81.5t74 -47t89.5 -15t89.5 15t74 47t50 81.5t18.5 118.5v382h53v-384q0 -77 -22 -135t-60.5 -96t-90.5 -57t-112 -19zM345 739h-33l104 156h81z" />
    <glyph glyph-name="Ucircumflex" unicode="&#xdb;" horiz-adv-x="698" 
d="M349 -9q-60 0 -112 19t-90.5 57t-60.5 96t-22 135v384h53v-382q0 -69 18.5 -118.5t50 -81.5t74 -47t89.5 -15t89.5 15t74 47t50 81.5t18.5 118.5v382h53v-384q0 -77 -22 -135t-60.5 -96t-90.5 -57t-112 -19zM487 739h-34l-103 113l-104 -113h-34l108 156h61z" />
    <glyph glyph-name="Ugrave" unicode="&#xd9;" horiz-adv-x="698" 
d="M349 -9q-60 0 -112 19t-90.5 57t-60.5 96t-22 135v384h53v-382q0 -69 18.5 -118.5t50 -81.5t74 -47t89.5 -15t89.5 15t74 47t50 81.5t18.5 118.5v382h53v-384q0 -77 -22 -135t-60.5 -96t-90.5 -57t-112 -19zM302 895l104 -156h-33l-152 156h81z" />
    <glyph glyph-name="dotlessi" unicode="&#x131;" horiz-adv-x="188" 
d="M118 0h-48v449h48v-449z" />
    <glyph glyph-name="circumflex" unicode="&#x2c6;" 
d="M304 521h-34l-103 113l-104 -113h-34l108 156h61z" />
    <glyph glyph-name="tilde" unicode="&#x2dc;" 
d="M330 643q2 -22 -4.5 -39.5t-18.5 -30.5q-23 -26 -59 -26q-20 0 -43 8t-46 17l-44 16.5t-38 7.5q-36 0 -42 -48h-32q0 18 4.5 35.5t14.5 30.5t25.5 21t37.5 8q23 0 45 -7.5t43 -16.5l42.5 -17t39.5 -8q20 0 30.5 11.5t14.5 37.5h30v0z" />
    <glyph glyph-name="macron" unicode="&#xaf;" 
d="M300 572h-267v51h267v-51z" />
    <glyph glyph-name="breve" unicode="&#x2d8;" 
d="M303 647q-43 -114 -135 -114q-23 0 -45 8.5t-40 25.5q-17 14 -28 31t-25 49h41q32 -67 96 -67q32 0 55 16t42 51h39z" />
    <glyph glyph-name="dotaccent" unicode="&#x2d9;" 
d="M166 636q18 0 31 -13t13 -31t-13 -31t-31 -13t-31 13t-13 31t13 31t31 13z" />
    <glyph glyph-name="ring" unicode="&#x2da;" 
d="M167 652q-25 0 -42.5 -17t-17.5 -42t17.5 -42.5t42.5 -17.5t42 17.5t17 42.5t-17 42t-42 17zM167 679q36 0 61 -25t25 -61t-25 -61.5t-61 -25.5t-61.5 25.5t-25.5 61.5t25.5 61t61.5 25z" />
    <glyph glyph-name="cedilla" unicode="&#xb8;" 
d="M186 -35q32 -5 47 -22.5t15 -40.5q0 -24 -12 -40.5t-31.5 -25.5t-45.5 -10.5t-53 4.5l5 32q44 -4 71 2.5t27 34.5q0 38 -62 39l21 70h30z" />
    <glyph glyph-name="hungarumlaut" unicode="&#x2dd;" 
d="M233 521h-33l104 156h81zM100 521h-33l104 156h81z" />
    <glyph glyph-name="ogonek" unicode="&#x2db;" 
d="M232 -165q-32 -8 -57 -4.5t-42.5 15t-26.5 29t-9 37.5q0 25 9 42.5t21 29t24 18t19 8.5h32q-27 -27 -40 -43t-13 -39q0 -29 20.5 -44.5t62.5 -10.5v-38z" />
    <glyph glyph-name="caron" unicode="&#x2c7;" 
d="M304 677.032h-34l-103 -112.993l-104 112.993h-34l108 -155.991h61z" />
    <glyph glyph-name="Eth" unicode="&#xd0;" horiz-adv-x="740" 
d="M-23 364h102v318h239q87 0 156 -24.5t117 -69t73.5 -107.5t25.5 -140t-25.5 -140t-73.5 -107.5t-117 -69t-156 -24.5h-239v320h-102v44zM633 341q0 76 -24.5 131.5t-66.5 92.5t-99 55t-122 18h-189v-274h221v-44h-221v-276h192q64 0 120.5 18t98.5 54.5t66 92.5t24 132z
" />
    <glyph glyph-name="Euro" unicode="&#x20ac;" horiz-adv-x="559" 
d="M529 54l-29 -19t-39.5 -20.5t-50 -16.5t-59.5 -7q-17 0 -40.5 3.5t-50 14t-53 28.5t-50 48t-41.5 73t-26 102h-74l9 48h61q-2 17 -1.5 35t1.5 29h-70l9 48h65q8 56 29 105.5t54.5 86t79.5 58t103 21.5q60 0 105 -17.5t74 -32.5l-10 -51q-42 23 -81 37t-86 14
q-45 0 -81 -17.5t-62.5 -47.5t-43.5 -70.5t-24 -85.5h344l-9 -48h-340q-2 -19 -1.5 -34.5t1.5 -29.5h329l-9 -48h-315l5 -27t8.5 -34.5t14 -38t21.5 -37.5q9 -11 22.5 -25t33 -26.5t44.5 -21t57 -8.5q50 0 92.5 20t83.5 47v-55z" />
    <glyph glyph-name="uni00A0" unicode="&#xa0;" horiz-adv-x="278" 
 />
    <glyph glyph-name="notequal" unicode="&#x2260;" horiz-adv-x="549" 
d="M147 -14h-66l95 218h-138v82h174l59 135h-233v82h269l96 217h65l-95 -217h138v-82h-174l-59 -135h233v-82h-269z" />
    <glyph glyph-name="infinity" unicode="&#x221e;" horiz-adv-x="713" 
d="M336 396l33 40t37 36.5t43 27t50 10.5q35 0 61.5 -12.5t44 -34t26.5 -50t9 -60.5q0 -46 -13 -82.5t-56 -61.5q-17 -9 -35 -14.5t-37 -5.5q-28 0 -51 10.5t-42.5 27t-36.5 36.5l-33 40q-26 -33 -61 -58.5t-80 -25.5q-27 0 -49 11t-37.5 29t-24.5 41.5t-9 49.5q0 25 9 48.5
t24.5 41.5t37.5 29t49 11q45 0 80 -25.5t61 -58.5zM370 350q10 -16 23.5 -34.5t29.5 -34.5t35 -26.5t40 -10.5q22 0 38.5 8.5t27.5 23t16 33.5t5 39q0 21 -5 40.5t-16 34t-28 23.5t-40 9q-20 0 -38.5 -11t-34 -27t-29 -34zM303 350l-21.5 25.5t-25 24.5t-29 18.5t-32.5 7.5
q-32 0 -49 -22.5t-17 -52.5t17.5 -53t49.5 -23q16 0 31.5 7t29.5 18.5t25.5 24.5t20.5 25z" />
    <glyph glyph-name="lessequal" unicode="&#x2264;" horiz-adv-x="549" 
d="M38 454l474 200v-88l-376 -153l376 -156v-88l-474 203v82zM38 52v81h473v-81h-473z" />
    <glyph glyph-name="greaterequal" unicode="&#x2265;" horiz-adv-x="549" 
d="M38 169v88l375 156l-375 153v88l474 -200v-82zM38 52v81h473v-81h-473z" />
    <glyph glyph-name="partialdiff" unicode="&#x2202;" horiz-adv-x="494" 
d="M142 585q12 27 29 52.5t39 45.5t49 32.5t59 12.5q51 0 82 -28.5t47.5 -70.5t22 -90t5.5 -87q0 -52 -7.5 -110.5t-25.5 -115t-48 -105t-75 -81.5q-31 -23 -67 -37.5t-74 -14.5t-66.5 13t-47 36t-28 54t-9.5 66q0 83 35 139t90.5 90t125.5 49t141 16q-1 25 -3 62t-11.5 71
t-29.5 58t-56 24q-23 0 -40.5 -10.5t-31 -26.5t-23 -35.5t-16.5 -37.5zM417 389q-41 -3 -79 -7.5t-72 -17t-63 -35t-52 -60.5q-17 -27 -26.5 -58t-9.5 -63q0 -18 6 -34.5t17 -29.5t26 -21t34 -8q21 0 41 8t37 19q36 23 61 59t41.5 77.5t25.5 86t13 84.5z" />
    <glyph glyph-name="summation" unicode="&#x2211;" horiz-adv-x="713" 
d="M672 728v-80h-483l297 -378l-317 -402h508v-78h-617v91l302 385l-294 377v85h604z" />
    <glyph glyph-name="product" unicode="&#x220f;" horiz-adv-x="823" 
d="M744 728v-938h-94v853h-477v-853h-94v938h665z" />
    <glyph glyph-name="pi" unicode="&#x3c0;" horiz-adv-x="690" 
d="M247 0h-88v447h-137v72h646v-72h-118v-447h-88v447h-215v-447z" />
    <glyph glyph-name="integral" unicode="&#x222b;" horiz-adv-x="274" 
d="M274 857q0 -20 -12.5 -35t-33.5 -15q-11 0 -18.5 4t-14 9.5t-12 9.5t-11.5 4q-13 0 -16.5 -10t-3.5 -21q0 -17 1.5 -35.5t3.5 -35.5q8 -77 13 -154t5 -155v-37.5t-1 -37.5q-2 -58 -3.5 -115t-3.5 -115q-1 -17 -2 -40.5t-5 -48.5t-11 -49.5t-19 -43.5t-29.5 -31t-42.5 -12
q-26 0 -42 16.5t-16 42.5q0 20 11.5 34t32.5 14q12 0 20 -5t13.5 -10.5l11 -10.5t13.5 -5q12 0 15.5 10t3.5 20q0 14 -1.5 29t-3.5 29q-21 179 -18 361v19l8 270q1 24 5 58.5t15 67t31.5 55t54.5 22.5q22 0 42 -15t20 -38z" />
    <glyph glyph-name="Omega" unicode="&#x3a9;" horiz-adv-x="768" 
d="M242 78q-88 55 -128.5 132.5t-40.5 181.5q0 73 22 135.5t63 108.5t101 72t136 26q75 0 133.5 -26.5t99 -73t61.5 -109t21 -134.5q0 -202 -168 -313l178 3v-81h-281v86q43 21 75 52t53 69t31.5 81.5t10.5 90.5q0 51 -12 100.5t-38 88.5t-67 62.5t-99 23.5t-99 -23.5
t-67 -62t-38 -87.5t-12 -100q0 -46 9.5 -90t29.5 -82.5t52 -69.5t76 -51v-88h-282v82l180 -4v0z" />
    <glyph glyph-name="Omega" unicode="&#x2126;" horiz-adv-x="768" 
d="M242 78q-88 55 -128.5 132.5t-40.5 181.5q0 73 22 135.5t63 108.5t101 72t136 26q75 0 133.5 -26.5t99 -73t61.5 -109t21 -134.5q0 -202 -168 -313l178 3v-81h-281v86q43 21 75 52t53 69t31.5 81.5t10.5 90.5q0 51 -12 100.5t-38 88.5t-67 62.5t-99 23.5t-99 -23.5
t-67 -62t-38 -87.5t-12 -100q0 -46 9.5 -90t29.5 -82.5t52 -69.5t76 -51v-88h-282v82l180 -4v0z" />
    <glyph glyph-name="radical" unicode="&#x221a;" horiz-adv-x="549" 
d="M397 -38l-242 499l-97 -45l-17 31l147 74l197 -402h2l126 794h36z" />
    <glyph glyph-name="approxequal" unicode="&#x2248;" horiz-adv-x="549" 
d="M25 460q26 31 60.5 45t75.5 14q34 0 65 -10t60 -22.5t56.5 -22.5t55.5 -10q36 0 69.5 20.5t56.5 46.5v-104q-29 -28 -61 -42t-74 -14q-34 0 -64 10.5t-58.5 22.5t-56.5 22.5t-58 10.5q-41 0 -70 -20t-57 -47v100zM25 284q26 30 60.5 44t75.5 14q34 0 65.5 -10t61 -22.5
t57 -22.5t53.5 -10q36 0 69.5 20.5t56.5 46.5v-104q-29 -28 -61 -41.5t-74 -13.5q-34 0 -64 10t-58.5 22.5t-56.5 22.5t-58 10q-41 0 -70 -20t-57 -46v100z" />
    <glyph glyph-name="Delta" unicode="&#x394;" horiz-adv-x="612" 
d="M13 0l307 677l279 -677h-586zM289 512l-215 -472h410z" />
    <glyph glyph-name="Delta" unicode="&#x2206;" horiz-adv-x="612" 
d="M13 0l307 677l279 -677h-586zM289 512l-215 -472h410z" />
    <glyph glyph-name="lozenge" unicode="&#x25ca;" horiz-adv-x="494" 
d="M472 346l-204 -346h-54l-191 346l191 348h54zM76 346l166 -300l175 300l-175 301z" />
    <glyph glyph-name="Wcircumflex" unicode="&#x174;" horiz-adv-x="1031" 
d="M287 -7h-14l-274 689h54l226 -566l229 566h16l228 -566l226 566h54l-274 -689h-13l-229 576zM653 739h-34l-103 113l-104 -113h-34l108 156h61z" />
    <glyph glyph-name="wcircumflex" unicode="&#x175;" horiz-adv-x="708" 
d="M514 -9h-23l-138 365l-139 -365h-22l-192 458h47l153 -366l141 366h26l137 -366l156 366h48zM491 521h-34l-103 113l-104 -113h-34l108 156h61z" />
    <glyph glyph-name="Ycircumflex" unicode="&#x176;" horiz-adv-x="583" 
d="M318 366v-366h-53v366l-265 316h64l228 -270l227 270h64zM429 739h-34l-103 113l-104 -113h-34l108 156h61z" />
    <glyph glyph-name="ycircumflex" unicode="&#x177;" horiz-adv-x="417" 
d="M87 -230h-49l157 317l-189 362h50l163 -314l155 314h49zM346 521h-34l-103 113l-104 -113h-34l108 156h61z" />
    <glyph glyph-name="eth" unicode="&#xf0;" horiz-adv-x="559" 
d="M473 227q0 42 -14 77.5t-39.5 60.5t-61 39t-78.5 14q-42 0 -77.5 -15t-62 -41.5t-41.5 -62.5t-15 -78q0 -41 15 -75.5t41 -60t62.5 -40t79.5 -14.5t78.5 14t60.5 40t38.5 62t13.5 80zM367 596q75 -63 116 -150.5t41 -195.5q0 -59 -17.5 -107t-50 -82t-78 -52t-102.5 -18
q-51 0 -94.5 17.5t-75.5 48.5t-50 73t-18 91q0 51 18.5 94t51 75t77 50t96.5 18q56 0 98.5 -18.5t80.5 -63.5l2 2q-15 48 -50 100.5t-91 96.5l-143 -67l-15 33l125 58q-20 14 -42.5 25.5t-47.5 21.5l19 36q65 -24 118 -61l133 61l15 -33z" />
    <glyph glyph-name="Lslash" unicode="&#x141;" horiz-adv-x="469" 
d="M132 351l167 137v-50l-167 -137v-257h337v-44h-390v262l-121 -100v50l121 100v370h53v-331z" />
    </font>
</defs>
</svg>
