<?xml version="1.0" standalone="no"?>
<!DOCTYPE svg PUBLIC "-//W3C//DTD SVG 1.1//EN" "http://www.w3.org/Graphics/SVG/1.1/DTD/svg11.dtd" >
<svg>
<metadata>
Created by FontForge 20090622 at Tue Feb  7 12:04:28 2017
 By deploy user
Font software Copyright 1990 Adobe Systems Incorporated. Typeface Designs Copyright The Monotype Corporation. All Rights Reserved.
</metadata>
<defs>
<font id="GillSansforJL-Regular" horiz-adv-x="500" >
  <font-face 
    font-family="Gill Sans for JL Regular"
    font-weight="400"
    font-stretch="normal"
    units-per-em="1000"
    panose-1="2 0 5 6 4 0 0 2 0 3"
    ascent="700"
    descent="-300"
    x-height="449"
    cap-height="682"
    bbox="-162 -230 1041 913"
    underline-thickness="50"
    underline-position="-50"
    unicode-range="U+0020-U+FB02"
  />
<missing-glyph horiz-adv-x="278" 
 />
    <glyph glyph-name="fi" unicode="fi" 
d="M269 374h-100v-374h-89v374h-67v75h67q-2 124 48 183t142 59q75 0 120.5 -38.5t47.5 -104.5h-89q-12 33 -31 48t-50 15q-109 0 -99 -162h100v-75zM438 0h-89v449h89v-449z" />
    <glyph glyph-name="fl" unicode="fl" 
d="M296 595q-11 5 -19.5 6.5t-20.5 1.5q-54 0 -74.5 -29.5t-20.5 -81.5v-43h81v-80h-81v-369h-89v369h-63v80h63v33q0 66 15 102.5t42 63.5q29 29 68.5 40t98.5 -6v-87zM435 0h-89v682h89v-682z" />
    <glyph glyph-name=".notdef" horiz-adv-x="278" 
 />
    <glyph glyph-name=".null" horiz-adv-x="0" 
 />
    <glyph glyph-name="nonmarkingreturn" horiz-adv-x="278" 
 />
    <glyph glyph-name="space" unicode=" " horiz-adv-x="278" 
 />
    <glyph glyph-name="Scaron" unicode="&#x160;" horiz-adv-x="458" 
d="M399 532q-44 42 -84.5 56.5t-75.5 14.5q-48 0 -78 -22.5t-30 -58.5q0 -33 22 -56t54.5 -43.5t71 -41t71 -48t54.5 -65.5t22 -92q0 -40 -14.5 -74t-40 -58.5t-60.5 -38.5t-76 -14q-56 0 -102 15.5t-89 47.5v124q38 -48 83.5 -73.5t96.5 -25.5q28 0 49 8t35 20.5t20.5 28
t6.5 29.5q0 35 -22 61.5t-54.5 49t-71 44.5t-71 48.5t-54.5 60t-22 80.5q0 42 15 75.5t42 57t65 36.5t85 13q80 0 152 -48v-111zM182 727l-91 151h53l83 -87l87 87h55l-94 -151h-93z" />
    <glyph glyph-name="scaron" unicode="&#x161;" horiz-adv-x="385" 
d="M324 333q-38 25 -71.5 36t-58.5 11q-27 0 -43 -11.5t-16 -29.5q0 -15 25 -34.5t84 -55.5q57 -35 79 -63t22 -63q0 -30 -11 -54t-31 -41.5t-47 -27t-59 -9.5q-42 0 -77 9t-79 32v96q44 -30 82 -45t65 -14t46.5 14t19.5 37q0 15 -15.5 29t-39 28l-50.5 29t-50.5 34
t-39 42.5t-15.5 53.5q0 57 40 89.5t108 32.5q62 0 132 -37v-88zM145 507l-91 151h53l83 -87l87 87h55l-94 -151h-93z" />
    <glyph glyph-name="Yacute" unicode="&#xdd;" horiz-adv-x="604" 
d="M486 682h118l-253 -322v-360h-98v361l-253 321h118l183 -235zM414 874l-112 -147h-55l67 147h100z" />
    <glyph glyph-name="yacute" unicode="&#xfd;" horiz-adv-x="438" 
d="M120 -230h-99l153 326l-174 353h101l121 -253l116 253h100zM331 654l-112 -147h-55l67 147h100z" />
    <glyph glyph-name="Thorn" unicode="&#xde;" horiz-adv-x="510" 
d="M168 682v-148h115q56 0 97 -15.5t67.5 -42t39.5 -62.5t13 -76t-13.5 -75t-42 -60.5t-72 -40.5t-102.5 -15h-102v-147h-98v682h98zM168 235h111q55 0 87.5 28t32.5 79q0 19 -5.5 37.5t-19 33.5t-36 24t-55.5 9h-115v-211z" />
    <glyph glyph-name="thorn" unicode="&#xfe;" 
d="M146 -230h-89v912h89v-233h65q124 0 188.5 -58t64.5 -170q0 -51 -17 -93t-47 -72.5t-72 -47.5t-92 -17q-41 0 -90 20v-241zM146 91q42 -20 84 -20q31 0 57.5 11.5t45.5 31.5t29.5 47.5t10.5 60.5q0 70 -36.5 108.5t-109.5 38.5h-81v-278z" />
    <glyph glyph-name="Zcaron" unicode="&#x17d;" horiz-adv-x="646" 
d="M43 594v88h588l-434 -594h434v-88h-615l434 594h-407zM276 727l-91 151h53l83 -87l87 87h55l-94 -151h-93z" />
    <glyph glyph-name="zcaron" unicode="&#x17e;" horiz-adv-x="417" 
d="M165 80h240v-80h-394l238 369h-228v80h383zM161 507l-91 151h53l83 -87l87 87h55l-94 -151h-93z" />
    <glyph glyph-name="onehalf" unicode="&#xbd;" horiz-adv-x="751" 
d="M706 0h-267v7q81 83 124.5 138.5t43.5 97.5q0 27 -17.5 43.5t-46.5 16.5q-27 0 -52.5 -16t-42.5 -42v78q49 36 100 36q57 0 93 -31t36 -81q0 -40 -30.5 -86.5t-91.5 -106.5h151v-54zM124 -27h-67l455 718h67zM45 614l113 77h29v-359h-72v257l-70 -48v73z" />
    <glyph glyph-name="onequarter" unicode="&#xbc;" horiz-adv-x="699" 
d="M609 164h45v-49h-45v-115h-68v115h-170v25l205 220h33v-196zM463 164h78v84zM124 -27h-67l455 718h67zM45 614l113 77h29v-359h-72v257l-70 -48v73z" />
    <glyph glyph-name="one.superior" unicode="&#xb9;" horiz-adv-x="277" 
d="M45 614l113 77h29v-359h-72v257l-70 -48v73z" />
    <glyph glyph-name="threequarters" unicode="&#xbe;" horiz-adv-x="753" 
d="M178 -27h-67l455 718h67zM55 674q20 9 39 13t44 4q57 0 90.5 -25.5t33.5 -68.5q0 -28 -11 -46.5t-36 -31.5q26 -10 40 -31.5t14 -51.5q0 -48 -37 -78.5t-96 -30.5q-44 0 -91 22v63q27 -16 49 -22.5t45 -6.5q27 0 42.5 14t15.5 37q0 58 -84 55v52q24 -2 39.5 1.5t24.5 11
t13 17t4 18.5q0 23 -17 36.5t-47 13.5q-18 0 -33.5 -4.5t-41.5 -15.5v55zM663 164h45v-49h-45v-115h-68v115h-170v25l205 220h33v-196zM517 164h78v84z" />
    <glyph glyph-name="three.superior" unicode="&#xb3;" horiz-adv-x="314" 
d="M55 674q20 9 39 13t44 4q57 0 90.5 -25.5t33.5 -68.5q0 -28 -11 -46.5t-36 -31.5q26 -10 40 -31.5t14 -51.5q0 -48 -37 -78.5t-96 -30.5q-44 0 -91 22v63q27 -16 49 -22.5t45 -6.5q27 0 42.5 14t15.5 37q0 58 -84 55v52q24 -2 39.5 1.5t24.5 11t13 17t4 18.5
q0 23 -17 36.5t-47 13.5q-18 0 -33.5 -4.5t-41.5 -15.5v55z" />
    <glyph glyph-name="two.superior" unicode="&#xb2;" horiz-adv-x="357" 
d="M312 332h-267v7q81 83 124.5 138.5t43.5 97.5q0 27 -17.5 43.5t-46.5 16.5q-27 0 -52.5 -16t-42.5 -42v78q49 36 100 36q57 0 93 -31t36 -81q0 -40 -30.5 -86.5t-91.5 -106.5h151v-54z" />
    <glyph glyph-name="brokenbar" unicode="&#xa6;" horiz-adv-x="260" 
d="M92 176h76v-406h-76v406zM92 682h76v-340h-76v340z" />
    <glyph glyph-name="minus" unicode="&#x2212;" horiz-adv-x="584" 
d="M528 394v-82h-472v82h472z" />
    <glyph glyph-name="multiply" unicode="&#xd7;" horiz-adv-x="584" 
d="M233 354l-154 154l59 59l154 -154l153 153l59 -59l-153 -153l153 -153l-59 -59l-153 153l-154 -154l-59 59z" />
    <glyph glyph-name="lslash" unicode="&#x142;" horiz-adv-x="219" 
d="M233 404l-79 -64v-340h-89v276l-79 -64v78l79 64v328h89v-264l79 64v-78z" />
    <glyph glyph-name="exclam" unicode="!" horiz-adv-x="271" 
d="M136 111q25 0 42.5 -17.5t17.5 -42.5t-17.5 -42.5t-42.5 -17.5t-42.5 17.5t-17.5 42.5t17.5 42.5t42.5 17.5zM169 194h-70l-9 488h89z" />
    <glyph glyph-name="quotedbl" unicode="&#x22;" horiz-adv-x="354" 
d="M218 599v117h88v-117l-23 -137h-42zM48 599v117h88v-117l-23 -137h-42z" />
    <glyph glyph-name="numbersign" unicode="#" horiz-adv-x="584" 
d="M268 617l-41 -195h194l41 195h72l-41 -195h91v-69h-105l-36 -170h141v-69h-155l-41 -195h-72l41 195h-194l-41 -195h-72l41 195h-90v69h104l36 170h-140v69h154l41 195h72zM177 183h194l36 170h-194z" />
    <glyph glyph-name="dollar" unicode="$" horiz-adv-x="542" 
d="M470 488q-13 13 -30.5 25.5t-37.5 23t-41 18t-40 12.5v-198q86 -23 133.5 -74t47.5 -119q0 -29 -11 -60t-33.5 -57t-56.5 -44.5t-80 -23.5v-109h-82v109q-51 3 -96 23t-92 47v121q24 -21 44.5 -37t41.5 -27.5t45.5 -20.5t56.5 -16v216q-48 13 -83 32.5t-58.5 42.5
t-34.5 49t-11 51q0 73 49.5 121.5t137.5 61.5v76h82v-76q17 -2 37 -7t40.5 -12.5t39 -17.5t32.5 -22v-108zM239 567q-39 -5 -64 -28t-25 -54q0 -29 21 -51t68 -38v171zM321 82q85 20 85 86q0 31 -19 53t-66 41v-180z" />
    <glyph glyph-name="percent" unicode="%" horiz-adv-x="680" 
d="M502 222q-32 0 -55.5 -23.5t-23.5 -55.5q0 -33 23.5 -56t55.5 -23q33 0 56 23t23 56q0 32 -23 55.5t-56 23.5zM502 296q31 0 59 -12t49 -33t33 -49t12 -59q0 -32 -12 -59.5t-33 -48.5t-49 -33t-59 -12q-32 0 -59.5 12t-48.5 32.5t-33 48.5t-12 60q0 31 12 59t33 49
t48.5 33t59.5 12zM153 -10h-75l449 701h75zM178 690q31 0 59 -12t49 -33t33 -49t12 -59q0 -32 -12 -59.5t-33 -48.5t-49 -33t-59 -12q-32 0 -59.5 12t-48.5 32.5t-33 48.5t-12 60q0 31 12 59t33 49t48.5 33t59.5 12zM178 616q-32 0 -55.5 -23.5t-23.5 -55.5q0 -33 23.5 -56
t55.5 -23q33 0 56 23t23 56q0 32 -23 55.5t-56 23.5z" />
    <glyph glyph-name="ampersand" unicode="&#x26;" horiz-adv-x="625" 
d="M273 669q34 0 64.5 -10t53.5 -29t36.5 -47t13.5 -64q0 -31 -9.5 -56.5t-26 -47t-38 -39t-45.5 -33.5l122 -133q19 31 33 64t24 65h93q-13 -49 -35.5 -99t-54.5 -95l134 -145h-123l-71 76q-42 -38 -91.5 -61.5t-107.5 -23.5q-38 0 -75 8t-66 28t-47 53.5t-18 84.5
q0 34 12.5 61.5t33 50.5t47 42.5t54.5 36.5q-14 15 -28.5 33.5t-26.5 39.5t-20 44.5t-8 50.5q0 64 45 104.5t125 40.5zM245 75q42 0 77.5 17t64.5 46l-144 157q-22 -14 -41 -27.5t-33.5 -29.5t-23 -33.5t-8.5 -38.5q0 -51 28.5 -71t79.5 -20zM198 524q0 -35 19 -61.5
t48 -57.5q37 24 61.5 51.5t24.5 62.5t-21.5 52.5t-56.5 17.5q-41 0 -58 -19.5t-17 -45.5z" />
    <glyph glyph-name="quotesingle" unicode="'" horiz-adv-x="188" 
d="M50 599v117h88v-117l-23 -137h-42z" />
    <glyph glyph-name="parenleft" unicode="(" horiz-adv-x="323" 
d="M167 232q0 -270 144 -462h-53q-45 44 -80.5 98t-61 114t-39 123.5t-13.5 126.5t13.5 126.5t39 123.5t61 114t80.5 98h53q-144 -192 -144 -462z" />
    <glyph glyph-name="parenright" unicode=")" horiz-adv-x="323" 
d="M156 232q0 270 -144 462h53q45 -44 80.5 -98t61 -114t39 -123.5t13.5 -126.5t-13.5 -126.5t-39 -123.5t-61 -114t-80.5 -98h-53q144 192 144 462z" />
    <glyph glyph-name="asterisk" unicode="*" horiz-adv-x="417" 
d="M49 557q-9 3 -17.5 8.5t-14 13t-6.5 16.5t5 20q12 20 31.5 16.5t34.5 -17.5l100 -87q11 9 20 11l-25 130q-2 9 -1.5 19t4 19t11 14.5t19.5 5.5t19 -5.5t10.5 -14t4 -18.5t-1.5 -20l-25 -130q13 -3 20 -12l100 87q7 6 16 10.5t18 6t17.5 -2.5t14.5 -14q12 -21 -1.5 -35.5
t-32.5 -21.5l-125 -43q2 -5 1.5 -10.5t-1.5 -12.5l125 -43q9 -3 17.5 -8.5t14 -13t6.5 -17t-5 -19.5q-12 -20 -31.5 -16t-34.5 17l-100 87q-10 -7 -20 -10l25 -131q2 -9 1.5 -19t-4 -19t-11 -14.5t-19.5 -5.5q-24 0 -30 19t-2 39l25 131q-12 5 -19 12l-101 -88
q-14 -12 -34 -16t-32 16q-12 21 1.5 35.5t32.5 21.5l127 44q-4 10 1 21z" />
    <glyph glyph-name="plus" unicode="+" horiz-adv-x="584" 
d="M333 589v-195h195v-82h-195v-195h-82v195h-195v82h195v195h82z" />
    <glyph glyph-name="comma" unicode="," horiz-adv-x="219" 
d="M59 -99q12 8 20.5 21t13 28t5 30.5t-2.5 29.5q-22 1 -35.5 16t-13.5 40t16.5 41t42.5 16q32 0 51.5 -26t19.5 -71q0 -21 -7 -43.5t-21.5 -42t-36.5 -35t-52 -23.5v19z" />
    <glyph glyph-name="hyphen" unicode="-" horiz-adv-x="323" 
d="M283 174h-243v93h243v-93z" />
    <glyph glyph-name="period" unicode="." horiz-adv-x="219" 
d="M109 111q25 0 42.5 -17.5t17.5 -42.5t-17.5 -42.5t-42.5 -17.5t-42.5 17.5t-17.5 42.5t17.5 42.5t42.5 17.5z" />
    <glyph glyph-name="slash" unicode="/" horiz-adv-x="281" 
d="M204 691h70l-196 -700h-70z" />
    <glyph glyph-name="zero" unicode="0" 
d="M470 341q0 -79 -16 -143.5t-44.5 -110.5t-69.5 -71t-90 -25q-50 0 -90.5 25t-69 71t-44.5 110.5t-16 143.5t16 143.5t44.5 110.5t69 71t90.5 25q49 0 90 -25t69.5 -71t44.5 -110.5t16 -143.5zM372 341q0 121 -32.5 189t-89.5 68t-89.5 -68t-32.5 -189t32.5 -189t89.5 -68
t89.5 68t32.5 189z" />
    <glyph glyph-name="one" unicode="1" horiz-adv-x="401" 
d="M45 570l147 121h37v-691h-102v523l-82 -68v115z" />
    <glyph glyph-name="two" unicode="2" 
d="M466 0h-432v7l60.5 73.5l64.5 80.5t61 82t51 78l21 38t15 34t9 35t3 39q0 57 -33 92.5t-84 35.5q-37 0 -74.5 -19.5t-79.5 -72.5v123q81 65 161 65q46 0 84.5 -15.5t66 -43.5t42.5 -67.5t15 -86.5q0 -42 -12 -81.5t-37.5 -84.5t-65.5 -98t-97 -121h261v-93z" />
    <glyph glyph-name="three" unicode="3" 
d="M81 662q31 15 62 22t69 7q46 0 83 -12.5t63 -36t40.5 -56.5t14.5 -73q0 -57 -20 -92t-67 -61q25 -8 43.5 -24.5t30.5 -38t18 -47.5t6 -52q0 -46 -16 -84t-44.5 -65.5t-68 -42.5t-86.5 -15q-35 0 -71.5 10t-73.5 29v106q77 -52 152 -52q51 0 80.5 29.5t29.5 79.5
q0 25 -9 46.5t-27.5 37.5t-46 24t-63.5 6v90q68 0 101.5 26t33.5 73q0 48 -32 75t-86 27q-28 0 -54.5 -6.5t-61.5 -22.5v93z" />
    <glyph glyph-name="four" unicode="4" 
d="M398 312h73v-88h-73v-224h-98v224h-289v45l345 422h42v-379zM142 312h158v194h-2z" />
    <glyph glyph-name="five" unicode="5" 
d="M404 594h-214v-171q58 3 104 -12t78 -44.5t49 -70t17 -87.5t-16.5 -87t-46.5 -69t-71 -45.5t-89 -16.5q-45 0 -82.5 9.5t-82.5 32.5v101q74 -50 149 -50q29 0 54.5 10t45 26.5t30.5 39t11 47.5q0 33 -16.5 60.5t-47 45.5t-75 22.5t-100.5 -8.5v355h303v-88z" />
    <glyph glyph-name="six" unicode="6" 
d="M376 616q-36 -21 -69 -49.5t-61 -61t-48.5 -68t-30.5 -71.5q20 11 46.5 19.5t60.5 8.5q41 0 76 -15t60.5 -42t40 -63.5t14.5 -78.5t-16 -79t-43.5 -64.5t-64 -44t-77.5 -16.5q-49 0 -89.5 17.5t-69.5 49.5t-45 76.5t-16 98.5q0 64 18 127t52.5 122t85.5 112t117 97z
M146 265q-10 -42 -3.5 -75.5t23 -57t41 -36t51.5 -12.5q49 0 79 30.5t30 81.5q0 45 -32 75t-81 30q-16 0 -28.5 -1.5t-25 -6t-25.5 -11.5t-29 -17z" />
    <glyph glyph-name="seven" unicode="7" 
d="M181 -9l-87 38l250 560h-295v93h441z" />
    <glyph glyph-name="eight" unicode="8" 
d="M468 184q0 -41 -16.5 -76t-45.5 -61t-68.5 -41t-85.5 -15q-47 0 -87 15t-69.5 41t-46.5 61.5t-17 76.5q0 106 97 163q-38 28 -59.5 65.5t-21.5 81.5q0 42 16 78t44 62t66 41t83 15q43 0 80 -15t64 -41.5t42 -63t15 -78.5q0 -38 -20.5 -77t-64.5 -68q48 -25 71.5 -68.5
t23.5 -95.5zM360 495q0 45 -29.5 74t-75.5 29q-49 0 -79 -27.5t-30 -73.5q0 -21 8.5 -40t23 -33t34 -22.5t41.5 -8.5t41.5 8t34 22t23 32.5t8.5 39.5zM370 192q0 47 -33 77.5t-85 30.5q-56 0 -89 -30t-33 -78t33.5 -78t86.5 -30q30 0 52.5 9t37.5 24t22.5 34.5t7.5 40.5z
" />
    <glyph glyph-name="nine" unicode="9" 
d="M127 63q87 57 140.5 124t67.5 132q-23 -14 -51 -21.5t-55 -7.5q-41 0 -76 15.5t-61 42.5t-41 63t-15 78q0 38 15 74t42 64.5t65.5 46t85.5 17.5t87 -19t69 -52t45 -78.5t16 -99.5q0 -62 -20.5 -126.5t-56.5 -124.5t-86.5 -111.5t-110.5 -88.5zM134 490q0 -22 9 -41.5
t25 -34t37 -23t45 -8.5q22 0 49.5 8.5t55.5 28.5q4 18 4.5 30t0.5 25q0 25 -9 47t-24.5 39t-36 27t-44.5 10q-49 0 -80.5 -30t-31.5 -78z" />
    <glyph glyph-name="colon" unicode=":" horiz-adv-x="219" 
d="M109 458q25 0 42.5 -17.5t17.5 -42.5t-17.5 -42.5t-42.5 -17.5t-42.5 17.5t-17.5 42.5t17.5 42.5t42.5 17.5zM109 111q25 0 42.5 -17.5t17.5 -42.5t-17.5 -42.5t-42.5 -17.5t-42.5 17.5t-17.5 42.5t17.5 42.5t42.5 17.5z" />
    <glyph glyph-name="semicolon" unicode=";" horiz-adv-x="219" 
d="M61 -96q15 13 23.5 26t12.5 26t4.5 26.5t-0.5 28.5q-24 3 -38.5 19t-14.5 40q0 30 17 45.5t43 15.5q31 0 49 -27.5t18 -65.5q0 -56 -29 -96t-85 -57v19zM169 398q0 -25 -17.5 -42.5t-42.5 -17.5t-42.5 17.5t-17.5 42.5t17.5 42.5t42.5 17.5t42.5 -17.5t17.5 -42.5z" />
    <glyph glyph-name="less" unicode="&#x3c;" horiz-adv-x="584" 
d="M55 395l474 202v-87l-376 -156l376 -156v-87l-474 202v82z" />
    <glyph glyph-name="equal" unicode="=" horiz-adv-x="584" 
d="M528 503v-82h-472v82h472zM528 285v-82h-472v82h472z" />
    <glyph glyph-name="greater" unicode="&#x3e;" horiz-adv-x="584" 
d="M55 111v87l376 156l-376 156v87l474 -202v-82z" />
    <glyph glyph-name="question" unicode="?" horiz-adv-x="414" 
d="M169 111q25 0 42.5 -17.5t17.5 -42.5t-17.5 -42.5t-42.5 -17.5t-42.5 17.5t-17.5 42.5t17.5 42.5t42.5 17.5zM125 194q-14 16 -18.5 31.5t-4.5 31.5q0 31 13.5 54.5t33.5 43.5t43.5 37.5t43.5 37t33.5 41.5t13.5 51q0 17 -5 33t-17 28.5t-30.5 20t-45.5 7.5
q-47 0 -85.5 -12t-84.5 -39v85q20 12 39 20.5t39.5 14.5t43.5 8.5t51 2.5q40 0 74 -10.5t59 -31.5t39 -53t14 -74q0 -41 -13.5 -71.5t-34.5 -53t-44.5 -40.5l-44.5 -35.5t-34.5 -36t-13.5 -43.5q0 -15 4.5 -26t10.5 -22h-79z" />
    <glyph glyph-name="at" unicode="@" horiz-adv-x="1010" 
d="M981 9q-66 -108 -173 -163.5t-260 -55.5q-115 0 -206.5 30t-155.5 87t-98 138.5t-34 183.5q0 53 11.5 110.5t35.5 113t62.5 105.5t92 88t123.5 60.5t158 22.5q91 0 168 -28.5t132.5 -79t87 -120.5t31.5 -153q0 -67 -24.5 -130t-65.5 -112t-93.5 -78.5t-108.5 -29.5
q-97 0 -97 82q-33 -38 -72 -59.5t-76 -21.5q-39 0 -71.5 16.5t-56.5 46t-37.5 70t-13.5 88.5q0 58 21.5 114t57.5 99t81.5 69.5t93.5 26.5q45 0 83 -23t64 -67l17 76h88l-82 -377q-6 -27 1.5 -43.5t30.5 -16.5q15 0 46 17t62.5 50.5t55 84.5t23.5 119q0 66 -26.5 123t-73 98
t-111 64.5t-139.5 23.5q-88 0 -162.5 -32t-128.5 -88t-84.5 -133t-30.5 -168q0 -89 28.5 -158.5t82.5 -117.5t132.5 -73.5t178.5 -25.5q126 0 211.5 42t130.5 105h90zM331 213q0 -64 30 -103t78 -39q33 0 64 21t55.5 55.5t39.5 78.5t15 90q0 66 -30.5 104t-82.5 38
q-32 0 -62.5 -20.5t-54 -55t-38 -78.5t-14.5 -91z" />
    <glyph glyph-name="A" unicode="A" horiz-adv-x="667" 
d="M667 0h-100l-91 201h-290l-86 -201h-100l293 686h69zM224 289h212l-110 247z" />
    <glyph glyph-name="B" unicode="B" horiz-adv-x="563" 
d="M75 682h198q55 0 95 -15t65.5 -39.5t37.5 -56t12 -63.5q0 -54 -25 -89t-79 -57v-2q77 -14 120.5 -61.5t43.5 -116.5q0 -32 -12.5 -64t-40.5 -58.5t-72.5 -43t-108.5 -16.5h-234v682zM173 390h65q144 0 144 109q0 19 -6 36.5t-20 30.5t-36.5 20.5t-56.5 7.5h-90v-204z
M173 88h123q43 0 71.5 9.5t45 25t23 35t6.5 38.5q0 47 -36.5 76.5t-114.5 29.5h-118v-214z" />
    <glyph glyph-name="C" unicode="C" horiz-adv-x="708" 
d="M656 530q-63 37 -119 54t-116 17q-59 0 -108.5 -19.5t-86 -54.5t-57 -83t-20.5 -104q0 -57 20 -105t56.5 -82t87 -53t112.5 -19q58 0 119 19.5t119 57.5v-107q-51 -26 -108.5 -43t-138.5 -17q-96 0 -165.5 33t-114.5 83.5t-66.5 110t-21.5 113.5q0 78 28 144t77.5 114
t118.5 75t150 27q53 0 108.5 -13.5t125.5 -42.5v-105z" />
    <glyph glyph-name="D" unicode="D" horiz-adv-x="750" 
d="M76 682h265q94 0 163 -30.5t113 -79.5t65.5 -110t21.5 -121q0 -66 -25 -127.5t-71.5 -109t-114 -76t-151.5 -28.5h-266v682zM174 88h156q83 0 136 27.5t83.5 67.5t42 83t11.5 75q0 51 -16.5 97t-51 80.5t-86.5 55t-124 20.5h-151v-506z" />
    <glyph glyph-name="E" unicode="E" 
d="M462 594h-289v-206h279v-88h-279v-212h298v-88h-396v682h387v-88z" />
    <glyph glyph-name="F" unicode="F" horiz-adv-x="469" 
d="M440 594h-266v-189h266v-88h-266v-317h-98v682h364v-88z" />
    <glyph glyph-name="G" unicode="G" horiz-adv-x="740" 
d="M673 47q-68 -30 -128.5 -43t-131.5 -13q-78 0 -144.5 26t-115 72t-76 109.5t-27.5 138.5t28 140t77 112.5t116 74.5t145 27q30 0 56.5 -2.5t54.5 -9.5t60 -18t72 -28v-99q-122 67 -245 67q-56 0 -104 -20t-83 -55t-55.5 -83t-20.5 -103q0 -57 20.5 -104.5t57 -82
t87 -53.5t111.5 -19q40 0 76.5 8t71.5 19v140h-131v88h229v-289z" />
    <glyph glyph-name="H" unicode="H" horiz-adv-x="729" 
d="M653 0h-98v297h-382v-297h-98v682h98v-297h382v297h98v-682z" />
    <glyph glyph-name="I" unicode="I" horiz-adv-x="250" 
d="M174 0h-98v682h98v-682z" />
    <glyph glyph-name="J" unicode="J" horiz-adv-x="250" 
d="M174 -8q0 -48 -10 -88.5t-32.5 -70t-58.5 -46.5t-87 -17q-9 0 -15.5 0.5t-14.5 1.5l-18 91h25q39 0 61.5 10t34 29.5t14.5 49t3 69.5v661h98v-690z" />
    <glyph glyph-name="K" unicode="K" horiz-adv-x="656" 
d="M655 0h-135l-347 337v-337h-98v682h98v-312l287 312h122l-297 -323z" />
    <glyph glyph-name="L" unicode="L" horiz-adv-x="490" 
d="M172 88h308v-88h-406v682h98v-594z" />
    <glyph glyph-name="M" unicode="M" horiz-adv-x="781" 
d="M709 0h-98v531h-2l-210 -264h-16l-210 264h-2v-531h-98v682h92l226 -280l227 280h91v-682z" />
    <glyph glyph-name="N" unicode="N" horiz-adv-x="781" 
d="M706 0h-84l-456 525v-525h-92v682h78l462 -528v528h92v-682z" />
    <glyph glyph-name="O" unicode="O" horiz-adv-x="823" 
d="M45 341q0 71 26 134.5t74 111.5t115.5 76t150.5 28q84 0 152 -28t116 -76t73.5 -111.5t25.5 -134.5q0 -69 -25 -132.5t-72.5 -111.5t-116 -77t-155.5 -29q-84 0 -151 28.5t-114.5 77t-73 112t-25.5 132.5zM146 341q0 -56 20 -103.5t55.5 -82.5t84 -54.5t105.5 -19.5
t106 19.5t84.5 54.5t55.5 82.5t20 103.5t-20 104t-55.5 82.5t-84.5 54t-106 19.5t-105.5 -19.5t-84 -54t-55.5 -82.5t-20 -104z" />
    <glyph glyph-name="P" unicode="P" horiz-adv-x="510" 
d="M283 682q56 0 97 -15.5t67.5 -42t39.5 -62.5t13 -76t-13.5 -75t-42 -60.5t-72 -40.5t-102.5 -15h-102v-295h-98v682h213zM168 383h111q55 0 87.5 28t32.5 79q0 19 -5.5 37.5t-19 33.5t-36 24t-55.5 9h-115v-211z" />
    <glyph glyph-name="Q" unicode="Q" horiz-adv-x="823" 
d="M45 341q0 71 26 134.5t74 111.5t115.5 76t150.5 28q84 0 152 -28t116 -76t73.5 -111.5t25.5 -134.5q0 -60 -19 -116t-55.5 -101.5t-89 -78t-119.5 -45.5q54 -26 117 -44t133 -17l-79 -78q-99 8 -180 46.5t-152 90.5q-67 12 -120.5 44t-91 78t-57.5 102.5t-20 118.5z
M146 341q0 -56 20 -103.5t55.5 -82.5t84 -54.5t105.5 -19.5t106 19.5t84.5 54.5t55.5 82.5t20 103.5t-20 104t-55.5 82.5t-84.5 54t-106 19.5t-105.5 -19.5t-84 -54t-55.5 -82.5t-20 -104z" />
    <glyph glyph-name="R" unicode="R" horiz-adv-x="604" 
d="M249 682q104 0 164 -51t60 -140q0 -60 -29.5 -102.5t-84.5 -64.5q46 -31 79.5 -78t72.5 -111l20 -32l19.5 -29l23 -32.5l30.5 -41.5h-117l-90 140q-34 52 -59.5 83t-46 47.5t-38.5 21t-37 4.5h-41v-296h-98v682h172zM175 384h63q39 0 65 9.5t41.5 25t21.5 35.5t6 41
q-1 48 -31.5 75.5t-102.5 27.5h-63v-214z" />
    <glyph glyph-name="S" unicode="S" horiz-adv-x="458" 
d="M399 532q-44 42 -84.5 56.5t-75.5 14.5q-48 0 -78 -22.5t-30 -58.5q0 -33 22 -56t54.5 -43.5t71 -41t71 -48t54.5 -65.5t22 -92q0 -40 -14.5 -74t-40 -58.5t-60.5 -38.5t-76 -14q-56 0 -102 15.5t-89 47.5v124q38 -48 83.5 -73.5t96.5 -25.5q28 0 49 8t35 20.5t20.5 28
t6.5 29.5q0 35 -22 61.5t-54.5 49t-71 44.5t-71 48.5t-54.5 60t-22 80.5q0 42 15 75.5t42 57t65 36.5t85 13q80 0 152 -48v-111z" />
    <glyph glyph-name="T" unicode="T" horiz-adv-x="604" 
d="M587 594h-236v-594h-98v594h-236v88h570v-88z" />
    <glyph glyph-name="U" unicode="U" horiz-adv-x="708" 
d="M648 268q0 -63 -19 -114t-56.5 -87t-94.5 -56t-133 -20q-54 0 -105 15.5t-91 48t-64 83t-24 120.5v424h98v-403q0 -29 2 -50t7 -37t12.5 -28.5t19.5 -24.5q58 -58 147 -58q57 0 97 16t63 39q26 26 34.5 63.5t8.5 85.5v397h98v-414z" />
    <glyph glyph-name="V" unicode="V" horiz-adv-x="604" 
d="M315 -6h-20l-295 688h98l205 -479l204 479h97z" />
    <glyph glyph-name="W" unicode="W" horiz-adv-x="1042" 
d="M764 -6h-19l-224 558l-226 -558h-19l-276 688h98l188 -470l189 470h93l190 -470l186 470h97z" />
    <glyph glyph-name="X" unicode="X" horiz-adv-x="708" 
d="M415 353l291 -353h-118l-232 282l-235 -282h-119l294 353l-273 329h119l214 -260l213 260h118z" />
    <glyph glyph-name="Y" unicode="Y" horiz-adv-x="604" 
d="M486 682h118l-253 -322v-360h-98v361l-253 321h118l183 -235z" />
    <glyph glyph-name="Z" unicode="Z" horiz-adv-x="646" 
d="M43 594v88h588l-434 -594h434v-88h-615l434 594h-407z" />
    <glyph glyph-name="bracketleft" unicode="[" horiz-adv-x="333" 
d="M319 602h-137v-743h137v-80h-233v903h233v-80z" />
    <glyph glyph-name="backslash" unicode="\" horiz-adv-x="281" 
d="M204 -9l-196 700h70l196 -700h-70z" />
    <glyph glyph-name="bracketright" unicode="]" horiz-adv-x="333" 
d="M14 -141h137v743h-137v80h233v-903h-233v80z" />
    <glyph glyph-name="asciicircum" unicode="^" horiz-adv-x="469" 
d="M26 291l173 391h71l173 -391h-89l-120 292l-118 -292h-90z" />
    <glyph glyph-name="underscore" unicode="_" 
d="M506 -75v-50h-512v50h512z" />
    <glyph glyph-name="grave" unicode="`" horiz-adv-x="333" 
d="M227 507h-55l-112 147h100z" />
    <glyph glyph-name="a" unicode="a" horiz-adv-x="431" 
d="M415 26q-24 -20 -44.5 -27.5t-41.5 -7.5q-57 0 -68 46q-58 -46 -121 -46q-25 0 -45 9t-34.5 24t-22.5 35t-8 42q0 33 14 56t35.5 38.5t49 26.5l54.5 21l79 28v24q0 42 -20 60.5t-61 18.5q-37 0 -73.5 -18t-68.5 -56v97q52 61 149 61q34 0 64 -9t52 -27t34.5 -46t12.5 -66
v-231q0 -23 17 -23q15 0 47 24v-54zM262 222q-29 -10 -54.5 -20t-45 -22.5t-31 -27.5t-11.5 -35q0 -28 18 -45.5t46 -17.5q21 0 40.5 10t37.5 27v131z" />
    <glyph glyph-name="b" unicode="b" 
d="M148 417q57 41 124 41q42 0 77.5 -17t61.5 -47t40.5 -71t14.5 -89q0 -115 -63.5 -179t-176.5 -64q-45 0 -89.5 9t-77.5 25v657h89v-265zM148 89q20 -6 45 -10t45 -4q30 0 55 11t43.5 30.5t28.5 46t10 58.5q0 72 -34 114.5t-91 42.5q-28 0 -50.5 -10t-51.5 -36v-243z" />
    <glyph glyph-name="c" unicode="c" horiz-adv-x="438" 
d="M393 332q-38 26 -66.5 35t-57.5 9q-61 0 -99 -41.5t-38 -110.5q0 -70 41.5 -109.5t110.5 -39.5q29 0 57 7.5t62 22.5v-88q-11 -5 -27 -10t-34 -8.5t-36.5 -5.5t-36.5 -2q-50 0 -92 16.5t-72 46.5t-47 71t-17 91q0 55 15.5 100t44.5 76.5t70 48.5t92 17q39 0 68.5 -8.5
t61.5 -22.5v-95z" />
    <glyph glyph-name="d" unicode="d" horiz-adv-x="507" 
d="M448 0h-189q-50 0 -90.5 16.5t-69 47t-43.5 74t-15 97.5q0 49 16.5 90t46.5 70.5t71 46t90 16.5q23 0 45 -4t49 -14v242h89v-682zM359 361q-23 9 -41.5 13t-41.5 4q-65 0 -104.5 -42.5t-39.5 -113.5q0 -32 7 -58.5t23 -46.5t42 -31t65 -11h90v286z" />
    <glyph glyph-name="e" unicode="e" horiz-adv-x="479" 
d="M438 44q-41 -27 -81.5 -40t-97.5 -13q-53 0 -93.5 20t-68 53t-42 76t-14.5 90q0 51 15.5 93t43 72t66 46.5t85.5 16.5q90 0 142.5 -61t52.5 -186h-316q21 -135 151 -135q41 0 79.5 14t77.5 40v-86zM358 270q-2 51 -29.5 81t-75.5 30q-51 0 -81.5 -28.5t-39.5 -82.5h226z
" />
    <glyph glyph-name="f" unicode="f" horiz-adv-x="250" 
d="M296 595q-11 5 -19.5 6.5t-20.5 1.5q-54 0 -74.5 -29.5t-20.5 -81.5v-43h81v-80h-81v-369h-89v369h-63v80h63v33q0 66 15 102.5t42 63.5q29 29 68.5 40t98.5 -6v-87z" />
    <glyph glyph-name="g" unicode="g" horiz-adv-x="427" 
d="M421 380h-92q26 -26 36.5 -47.5t10.5 -50.5q0 -28 -13.5 -56t-28.5 -45q-23 -24 -54 -33t-59.5 -14t-48.5 -11.5t-20 -26.5q0 -19 34.5 -31.5t102.5 -26.5q72 -14 101 -48t29 -77q0 -67 -56 -105t-156 -38q-45 0 -83 10t-65.5 28t-43 43t-15.5 55q0 50 27 80t86 44
q-45 28 -45 57q0 22 19.5 39t51.5 25v2q-50 21 -75 57q-24 34 -24 84q0 72 52.5 113.5t143.5 41.5h185v-69zM296 293q0 16 -7 30.5t-19 25t-27.5 17t-33.5 6.5q-37 0 -63 -24t-26 -57q0 -37 24.5 -59.5t65.5 -22.5q38 0 62 23.5t24 60.5zM333 -94q0 21 -15 35t-37.5 22.5
t-48 11.5t-46.5 3q-45 0 -73.5 -19t-28.5 -49q0 -34 32 -51.5t93 -17.5q59 0 91.5 17t32.5 48z" />
    <glyph glyph-name="h" unicode="h" 
d="M150 390h2q26 32 61 50t73 18q66 0 109.5 -45.5t43.5 -137.5v-275h-89v278q0 50 -23.5 79.5t-64.5 29.5q-29 0 -54.5 -15t-57.5 -50v-322h-89v682h89v-292z" />
    <glyph glyph-name="i" unicode="i" horiz-adv-x="219" 
d="M154 0h-89v449h89v-449zM163 585q0 -22 -15.5 -37.5t-37.5 -15.5t-37.5 15.5t-15.5 37.5t15.5 37.5t37.5 15.5t37.5 -15.5t15.5 -37.5z" />
    <glyph glyph-name="j" unicode="j" horiz-adv-x="211" 
d="M150 -59q0 -72 -22.5 -109.5t-66.5 -61.5l-67 66q29 12 48 36t19 62v515h89v-508zM159 585q0 -22 -15.5 -37.5t-37.5 -15.5t-37.5 15.5t-15.5 37.5t15.5 37.5t37.5 15.5t37.5 -15.5t15.5 -37.5z" />
    <glyph glyph-name="k" unicode="k" horiz-adv-x="479" 
d="M151 236l192 213h106l-192 -220l232 -229h-120l-218 222v-222h-89v682h89v-446z" />
    <glyph glyph-name="l" unicode="l" horiz-adv-x="219" 
d="M154 0h-89v682h89v-682z" />
    <glyph glyph-name="m" unicode="m" horiz-adv-x="771" 
d="M148 449v-59q68 68 131 68q88 0 134 -81q29 33 65.5 57t84.5 24q69 0 109 -48t40 -128v-282h-89v278q0 51 -27.5 77.5t-65.5 27.5q-22 0 -49 -16t-51 -41v-326h-89v279q0 55 -24 79.5t-57 24.5q-34 0 -59 -12.5t-53 -44.5v-326h-89v449h89z" />
    <glyph glyph-name="n" unicode="n" 
d="M150 390h2q26 32 61 50t73 18q32 0 60 -11t48.5 -33.5t32.5 -56.5t12 -80v-277h-89v278q0 50 -23.5 79.5t-64.5 29.5q-29 0 -54.5 -15t-57.5 -50v-322h-89v449h89v-59z" />
    <glyph glyph-name="o" unicode="o" horiz-adv-x="552" 
d="M273 458q53 0 97.5 -17t77 -47.5t50.5 -72.5t18 -92q0 -53 -17.5 -97t-50 -75.5t-77 -48.5t-98.5 -17q-52 0 -95.5 18t-75 49.5t-49 75t-17.5 95.5q0 48 18 90t50 73t75.5 48.5t93.5 17.5zM272 378q-32 0 -58.5 -11t-45.5 -31t-30 -47.5t-11 -59.5q0 -72 40 -115t105 -43
q71 0 112 42t41 115q0 33 -11.5 60.5t-31.5 47.5t-48.5 31t-61.5 11z" />
    <glyph glyph-name="p" unicode="p" 
d="M146 -230h-89v679h154q124 0 188.5 -58t64.5 -170q0 -51 -17 -93t-47 -72.5t-72 -47.5t-92 -17q-41 0 -90 20v-241zM146 91q42 -20 84 -20q31 0 57.5 11.5t45.5 31.5t29.5 47.5t10.5 60.5q0 70 -36.5 108.5t-109.5 38.5h-81v-278z" />
    <glyph glyph-name="q" unicode="q" 
d="M354 7q-25 -8 -48 -12t-42 -4q-50 0 -92 17t-72 47.5t-47 72.5t-17 93q0 27 9 66t35 75t73.5 61.5t125.5 25.5h164v-679h-89v237zM273 369q-27 0 -53 -8.5t-46.5 -26.5t-33.5 -46t-13 -66q0 -33 10.5 -61.5t29.5 -49.5t45.5 -33t57.5 -12q42 0 84 20v283h-81z" />
    <glyph glyph-name="r" unicode="r" horiz-adv-x="344" 
d="M338 369q-14 2 -30 4t-39 2t-45 -8t-38.5 -23.5t-26.5 -39.5t-10 -57v-247h-89v449h89v-77q30 47 66.5 66.5t81.5 19.5q19 0 41 -5v-84z" />
    <glyph glyph-name="s" unicode="s" horiz-adv-x="385" 
d="M324 333q-38 25 -71.5 36t-58.5 11q-27 0 -43 -11.5t-16 -29.5q0 -15 25 -34.5t84 -55.5q57 -35 79 -63t22 -63q0 -30 -11 -54t-31 -41.5t-47 -27t-59 -9.5q-42 0 -77 9t-79 32v96q44 -30 82 -45t65 -14t46.5 14t19.5 37q0 15 -15.5 29t-39 28l-50.5 29t-50.5 34
t-39 42.5t-15.5 53.5q0 57 40 89.5t108 32.5q62 0 132 -37v-88z" />
    <glyph glyph-name="t" unicode="t" horiz-adv-x="362" 
d="M182 449h142v-80h-142v-230q0 -40 19.5 -54t44.5 -14q29 0 51.5 6.5t49.5 23.5v-80q-23 -13 -50 -21.5t-58 -8.5q-73 0 -109.5 40t-36.5 101v237h-78v80h78v128h89v-128z" />
    <glyph glyph-name="u" unicode="u" 
d="M348 0v57q-28 -30 -64 -48t-69 -18q-69 0 -112 46.5t-43 132.5v279h89v-285q0 -48 23 -73.5t69 -25.5q62 0 107 63v321h89v-449h-89z" />
    <glyph glyph-name="v" unicode="v" horiz-adv-x="438" 
d="M3 449h97l121 -276l118 276h95l-198 -458h-30z" />
    <glyph glyph-name="w" unicode="w" horiz-adv-x="719" 
d="M507 177l117 272h95l-198 -458h-28l-133 314l-132 -314h-28l-200 458h95l118 -272l114 272h66z" />
    <glyph glyph-name="x" unicode="x" 
d="M302 228l198 -228h-114l-141 161l-133 -161h-112l189 228l-189 221h112l133 -154l128 154h114z" />
    <glyph glyph-name="y" unicode="y" horiz-adv-x="438" 
d="M120 -230h-99l153 326l-174 353h101l121 -253l116 253h100z" />
    <glyph glyph-name="z" unicode="z" horiz-adv-x="417" 
d="M165 80h240v-80h-394l238 369h-228v80h383z" />
    <glyph glyph-name="braceleft" unicode="{" horiz-adv-x="333" 
d="M28 299q31 0 50.5 11t30.5 32t15.5 51.5t4.5 68.5v88q0 87 31 132.5t111 45.5h39v-76h-15q-26 0 -42.5 -4t-25.5 -15.5t-12.5 -31t-3.5 -50.5v-72q0 -51 -5.5 -87t-17.5 -61.5t-31.5 -42.5t-47.5 -29q28 -12 47.5 -29t31.5 -42.5t17.5 -61.5t5.5 -87v-72q0 -31 3.5 -50.5
t12.5 -31t25.5 -15.5t42.5 -4h15v-76h-39q-80 0 -111 45.5t-31 132.5v88q0 38 -4.5 68.5t-15.5 51.5t-30.5 32t-50.5 11v80z" />
    <glyph glyph-name="bar" unicode="|" horiz-adv-x="260" 
d="M92 682h76v-912h-76v912z" />
    <glyph glyph-name="braceright" unicode="}" horiz-adv-x="333" 
d="M305 219q-31 0 -50.5 -11t-31 -32t-15.5 -51.5t-4 -68.5v-88q0 -87 -31 -132.5t-111 -45.5h-39v76h15q26 0 42.5 4t25.5 15.5t12.5 31t3.5 50.5v72q0 51 5.5 87t17.5 61.5t31.5 42.5t47.5 29q-28 12 -47.5 29t-31.5 42.5t-17.5 61.5t-5.5 87v72q0 31 -3.5 50.5t-12.5 31
t-25.5 15.5t-42.5 4h-15v76h39q80 0 111 -45.5t31 -132.5v-88q0 -38 4 -68.5t15.5 -51.5t31 -32t50.5 -11v-80z" />
    <glyph glyph-name="asciitilde" unicode="~" horiz-adv-x="584" 
d="M25 281q32 27 70 45.5t79 18.5q31 0 62.5 -12t63.5 -26l62 -26t58 -12q33 0 70.5 20.5t69.5 46.5v-83q-31 -26 -69 -45t-77 -19q-29 0 -61 12t-64 26t-63 26t-59 12q-37 0 -71.5 -19.5t-70.5 -47.5v83z" />
    <glyph glyph-name="Adieresis" unicode="&#xc4;" horiz-adv-x="667" 
d="M667 0h-100l-91 201h-290l-86 -201h-100l293 686h69zM224 289h212l-110 247zM241 848q20 0 33 -13t13 -33t-13 -33.5t-33 -13.5t-33.5 13.5t-13.5 33.5t13.5 33t33.5 13zM427 848q20 0 33 -13t13 -33t-13 -33.5t-33 -13.5t-33.5 13.5t-13.5 33.5t13.5 33t33.5 13z" />
    <glyph glyph-name="Aring" unicode="&#xc5;" horiz-adv-x="667" 
d="M667 0h-100l-91 201h-290l-86 -201h-100l293 686h69zM224 289h212l-110 247zM334 911q19 0 36 -7.5t29.5 -20t20 -29.5t7.5 -36t-7.5 -36t-20 -29.5t-29.5 -20t-36 -7.5t-36 7.5t-29.5 20t-20 29.5t-7.5 36t7.5 36t20 29.5t29.5 20t36 7.5zM334 873q-23 0 -39 -16
t-16 -39t16 -39t39 -16t39 16t16 39t-16 39t-39 16z" />
    <glyph glyph-name="Ccedilla" unicode="&#xc7;" horiz-adv-x="708" 
d="M663 51q-25 -13 -51 -24t-57 -19t-69.5 -12.5t-89.5 -4.5l-4 -14q25 -7 39.5 -23.5t14.5 -39.5q0 -28 -12 -47.5t-32.5 -30t-49 -13.5t-61.5 2v55q35 -5 59.5 2t24.5 24q0 13 -14.5 20.5t-43.5 4.5l24 67q-76 13 -131.5 48.5t-91.5 82.5t-53 100.5t-17 101.5q0 78 28 144
t77.5 114t118.5 75t150 27q53 0 108.5 -13.5t125.5 -42.5v-105q-63 37 -119 54t-116 17q-59 0 -108.5 -19.5t-86 -54.5t-57 -83t-20.5 -104q0 -57 20 -105t56.5 -82t87 -53t112.5 -19q58 0 119 19.5t119 57.5v-107z" />
    <glyph glyph-name="Eacute" unicode="&#xc9;" 
d="M462 594h-289v-206h279v-88h-279v-212h298v-88h-396v682h387v-88zM401 874l-112 -147h-55l67 147h100z" />
    <glyph glyph-name="Ntilde" unicode="&#xd1;" horiz-adv-x="781" 
d="M706 0h-84l-456 525v-525h-92v682h78l462 -528v528h92v-682zM537 863q0 -54 -22 -86t-57 -32q-21 0 -38.5 5.5t-34 12t-32.5 12t-34 5.5q-29 0 -34 -35h-41q4 55 23.5 85t54.5 30q19 0 39 -5.5t39 -12l35.5 -12t27.5 -5.5q30 0 36 38h38z" />
    <glyph glyph-name="Odieresis" unicode="&#xd6;" horiz-adv-x="823" 
d="M45 341q0 71 26 134.5t74 111.5t115.5 76t150.5 28q84 0 152 -28t116 -76t73.5 -111.5t25.5 -134.5q0 -69 -25 -132.5t-72.5 -111.5t-116 -77t-155.5 -29q-84 0 -151 28.5t-114.5 77t-73 112t-25.5 132.5zM146 341q0 -56 20 -103.5t55.5 -82.5t84 -54.5t105.5 -19.5
t106 19.5t84.5 54.5t55.5 82.5t20 103.5t-20 104t-55.5 82.5t-84.5 54t-106 19.5t-105.5 -19.5t-84 -54t-55.5 -82.5t-20 -104zM319 848q20 0 33 -13t13 -33t-13 -33.5t-33 -13.5t-33.5 13.5t-13.5 33.5t13.5 33t33.5 13zM505 848q20 0 33 -13t13 -33t-13 -33.5t-33 -13.5
t-33.5 13.5t-13.5 33.5t13.5 33t33.5 13z" />
    <glyph glyph-name="Udieresis" unicode="&#xdc;" horiz-adv-x="708" 
d="M648 268q0 -63 -19 -114t-56.5 -87t-94.5 -56t-133 -20q-54 0 -105 15.5t-91 48t-64 83t-24 120.5v424h98v-403q0 -29 2 -50t7 -37t12.5 -28.5t19.5 -24.5q58 -58 147 -58q57 0 97 16t63 39q26 26 34.5 63.5t8.5 85.5v397h98v-414zM262 848q20 0 33 -13t13 -33t-13 -33.5
t-33 -13.5t-33.5 13.5t-13.5 33.5t13.5 33t33.5 13zM448 848q20 0 33 -13t13 -33t-13 -33.5t-33 -13.5t-33.5 13.5t-13.5 33.5t13.5 33t33.5 13z" />
    <glyph glyph-name="aacute" unicode="&#xe1;" horiz-adv-x="431" 
d="M415 26q-24 -20 -44.5 -27.5t-41.5 -7.5q-57 0 -68 46q-58 -46 -121 -46q-25 0 -45 9t-34.5 24t-22.5 35t-8 42q0 33 14 56t35.5 38.5t49 26.5l54.5 21l79 28v24q0 42 -20 60.5t-61 18.5q-37 0 -73.5 -18t-68.5 -56v97q52 61 149 61q34 0 64 -9t52 -27t34.5 -46t12.5 -66
v-231q0 -23 17 -23q15 0 47 24v-54zM262 222q-29 -10 -54.5 -20t-45 -22.5t-31 -27.5t-11.5 -35q0 -28 18 -45.5t46 -17.5q21 0 40.5 10t37.5 27v131zM329 654l-112 -147h-55l67 147h100z" />
    <glyph glyph-name="agrave" unicode="&#xe0;" horiz-adv-x="431" 
d="M415 26q-24 -20 -44.5 -27.5t-41.5 -7.5q-57 0 -68 46q-58 -46 -121 -46q-25 0 -45 9t-34.5 24t-22.5 35t-8 42q0 33 14 56t35.5 38.5t49 26.5l54.5 21l79 28v24q0 42 -20 60.5t-61 18.5q-37 0 -73.5 -18t-68.5 -56v97q52 61 149 61q34 0 64 -9t52 -27t34.5 -46t12.5 -66
v-231q0 -23 17 -23q15 0 47 24v-54zM262 222q-29 -10 -54.5 -20t-45 -22.5t-31 -27.5t-11.5 -35q0 -28 18 -45.5t46 -17.5q21 0 40.5 10t37.5 27v131zM258 507h-55l-112 147h100z" />
    <glyph glyph-name="acircumflex" unicode="&#xe2;" horiz-adv-x="431" 
d="M415 26q-24 -20 -44.5 -27.5t-41.5 -7.5q-57 0 -68 46q-58 -46 -121 -46q-25 0 -45 9t-34.5 24t-22.5 35t-8 42q0 33 14 56t35.5 38.5t49 26.5l54.5 21l79 28v24q0 42 -20 60.5t-61 18.5q-37 0 -73.5 -18t-68.5 -56v97q52 61 149 61q34 0 64 -9t52 -27t34.5 -46t12.5 -66
v-231q0 -23 17 -23q15 0 47 24v-54zM262 222q-29 -10 -54.5 -20t-45 -22.5t-31 -27.5t-11.5 -35q0 -28 18 -45.5t46 -17.5q21 0 40.5 10t37.5 27v131zM337 506h-55l-87 87l-83 -87h-53l91 151h93z" />
    <glyph glyph-name="adieresis" unicode="&#xe4;" horiz-adv-x="431" 
d="M415 26q-24 -20 -44.5 -27.5t-41.5 -7.5q-57 0 -68 46q-58 -46 -121 -46q-25 0 -45 9t-34.5 24t-22.5 35t-8 42q0 33 14 56t35.5 38.5t49 26.5l54.5 21l79 28v24q0 42 -20 60.5t-61 18.5q-37 0 -73.5 -18t-68.5 -56v97q52 61 149 61q34 0 64 -9t52 -27t34.5 -46t12.5 -66
v-231q0 -23 17 -23q15 0 47 24v-54zM262 222q-29 -10 -54.5 -20t-45 -22.5t-31 -27.5t-11.5 -35q0 -28 18 -45.5t46 -17.5q21 0 40.5 10t37.5 27v131zM105 628q20 0 33 -13t13 -33t-13 -33.5t-33 -13.5t-33.5 13.5t-13.5 33.5t13.5 33t33.5 13zM291 628q20 0 33 -13t13 -33
t-13 -33.5t-33 -13.5t-33.5 13.5t-13.5 33.5t13.5 33t33.5 13z" />
    <glyph glyph-name="atilde" unicode="&#xe3;" horiz-adv-x="431" 
d="M415 26q-24 -20 -44.5 -27.5t-41.5 -7.5q-57 0 -68 46q-58 -46 -121 -46q-25 0 -45 9t-34.5 24t-22.5 35t-8 42q0 33 14 56t35.5 38.5t49 26.5l54.5 21l79 28v24q0 42 -20 60.5t-61 18.5q-37 0 -73.5 -18t-68.5 -56v97q52 61 149 61q34 0 64 -9t52 -27t34.5 -46t12.5 -66
v-231q0 -23 17 -23q15 0 47 24v-54zM262 222q-29 -10 -54.5 -20t-45 -22.5t-31 -27.5t-11.5 -35q0 -28 18 -45.5t46 -17.5q21 0 40.5 10t37.5 27v131zM344 643q0 -54 -22 -86t-57 -32q-21 0 -38.5 5.5t-34 12t-32.5 12t-34 5.5q-29 0 -34 -35h-41q4 55 23.5 85t54.5 30
q19 0 39 -5.5t39 -12l35.5 -12t27.5 -5.5q30 0 36 38h38z" />
    <glyph glyph-name="aring" unicode="&#xe5;" horiz-adv-x="431" 
d="M415 26q-24 -20 -44.5 -27.5t-41.5 -7.5q-57 0 -68 46q-58 -46 -121 -46q-25 0 -45 9t-34.5 24t-22.5 35t-8 42q0 33 14 56t35.5 38.5t49 26.5l54.5 21l79 28v24q0 42 -20 60.5t-61 18.5q-37 0 -73.5 -18t-68.5 -56v97q52 61 149 61q34 0 64 -9t52 -27t34.5 -46t12.5 -66
v-231q0 -23 17 -23q15 0 47 24v-54zM262 222q-29 -10 -54.5 -20t-45 -22.5t-31 -27.5t-11.5 -35q0 -28 18 -45.5t46 -17.5q21 0 40.5 10t37.5 27v131zM198 691q19 0 36 -7.5t29.5 -20t20 -29.5t7.5 -36t-7.5 -36t-20 -29.5t-29.5 -20t-36 -7.5t-36 7.5t-29.5 20t-20 29.5
t-7.5 36t7.5 36t20 29.5t29.5 20t36 7.5zM198 653q-23 0 -39 -16t-16 -39t16 -39t39 -16t39 16t16 39t-16 39t-39 16z" />
    <glyph glyph-name="ccedilla" unicode="&#xe7;" horiz-adv-x="438" 
d="M403 17q-23 -11 -61.5 -18.5t-80.5 -7.5l-4 -14q25 -7 39.5 -23.5t14.5 -39.5q0 -28 -12 -47.5t-32.5 -30t-49 -13.5t-61.5 2v55q35 -5 59.5 2t24.5 24q0 13 -14.5 20.5t-43.5 4.5l24 68q-75 18 -120 76t-45 141q0 55 15.5 100t44.5 76.5t70 48.5t92 17q39 0 68.5 -8.5
t61.5 -22.5v-95q-38 26 -66.5 35t-57.5 9q-61 0 -99 -41.5t-38 -110.5q0 -70 41.5 -109.5t110.5 -39.5q29 0 57 7.5t62 22.5v-88z" />
    <glyph glyph-name="eacute" unicode="&#xe9;" horiz-adv-x="479" 
d="M438 44q-41 -27 -81.5 -40t-97.5 -13q-53 0 -93.5 20t-68 53t-42 76t-14.5 90q0 51 15.5 93t43 72t66 46.5t85.5 16.5q90 0 142.5 -61t52.5 -186h-316q21 -135 151 -135q41 0 79.5 14t77.5 40v-86zM358 270q-2 51 -29.5 81t-75.5 30q-51 0 -81.5 -28.5t-39.5 -82.5h226z
M351 654l-112 -147h-55l67 147h100z" />
    <glyph glyph-name="egrave" unicode="&#xe8;" horiz-adv-x="479" 
d="M438 44q-41 -27 -81.5 -40t-97.5 -13q-53 0 -93.5 20t-68 53t-42 76t-14.5 90q0 51 15.5 93t43 72t66 46.5t85.5 16.5q90 0 142.5 -61t52.5 -186h-316q21 -135 151 -135q41 0 79.5 14t77.5 40v-86zM358 270q-2 51 -29.5 81t-75.5 30q-51 0 -81.5 -28.5t-39.5 -82.5h226z
M300 507h-55l-112 147h100z" />
    <glyph glyph-name="ecircumflex" unicode="&#xea;" horiz-adv-x="479" 
d="M438 44q-41 -27 -81.5 -40t-97.5 -13q-53 0 -93.5 20t-68 53t-42 76t-14.5 90q0 51 15.5 93t43 72t66 46.5t85.5 16.5q90 0 142.5 -61t52.5 -186h-316q21 -135 151 -135q41 0 79.5 14t77.5 40v-86zM358 270q-2 51 -29.5 81t-75.5 30q-51 0 -81.5 -28.5t-39.5 -82.5h226z
M379 506h-55l-87 87l-83 -87h-53l91 151h93z" />
    <glyph glyph-name="edieresis" unicode="&#xeb;" horiz-adv-x="479" 
d="M438 44q-41 -27 -81.5 -40t-97.5 -13q-53 0 -93.5 20t-68 53t-42 76t-14.5 90q0 51 15.5 93t43 72t66 46.5t85.5 16.5q90 0 142.5 -61t52.5 -186h-316q21 -135 151 -135q41 0 79.5 14t77.5 40v-86zM358 270q-2 51 -29.5 81t-75.5 30q-51 0 -81.5 -28.5t-39.5 -82.5h226z
M147 628q20 0 33 -13t13 -33t-13 -33.5t-33 -13.5t-33.5 13.5t-13.5 33.5t13.5 33t33.5 13zM333 628q20 0 33 -13t13 -33t-13 -33.5t-33 -13.5t-33.5 13.5t-13.5 33.5t13.5 33t33.5 13z" />
    <glyph glyph-name="iacute" unicode="&#xed;" horiz-adv-x="219" 
d="M154 0h-89v449h89v-449zM222 654l-112 -147h-55l67 147h100z" />
    <glyph glyph-name="igrave" unicode="&#xec;" horiz-adv-x="219" 
d="M154 0h-89v449h89v-449zM171 507h-55l-112 147h100z" />
    <glyph glyph-name="icircumflex" unicode="&#xee;" horiz-adv-x="219" 
d="M154 0h-89v449h89v-449zM250 506h-55l-87 87l-83 -87h-53l91 151h93z" />
    <glyph glyph-name="idieresis" unicode="&#xef;" horiz-adv-x="219" 
d="M154 0h-89v449h89v-449zM18 628q20 0 33 -13t13 -33t-13 -33.5t-33 -13.5t-33.5 13.5t-13.5 33.5t13.5 33t33.5 13zM204 628q20 0 33 -13t13 -33t-13 -33.5t-33 -13.5t-33.5 13.5t-13.5 33.5t13.5 33t33.5 13z" />
    <glyph glyph-name="ntilde" unicode="&#xf1;" 
d="M150 390h2q26 32 61 50t73 18q32 0 60 -11t48.5 -33.5t32.5 -56.5t12 -80v-277h-89v278q0 50 -23.5 79.5t-64.5 29.5q-29 0 -54.5 -15t-57.5 -50v-322h-89v449h89v-59zM397 643q0 -54 -22 -86t-57 -32q-21 0 -38.5 5.5t-34 12t-32.5 12t-34 5.5q-29 0 -34 -35h-41
q4 55 23.5 85t54.5 30q19 0 39 -5.5t39 -12l35.5 -12t27.5 -5.5q30 0 36 38h38z" />
    <glyph glyph-name="oacute" unicode="&#xf3;" horiz-adv-x="552" 
d="M273 458q53 0 97.5 -17t77 -47.5t50.5 -72.5t18 -92q0 -53 -17.5 -97t-50 -75.5t-77 -48.5t-98.5 -17q-52 0 -95.5 18t-75 49.5t-49 75t-17.5 95.5q0 48 18 90t50 73t75.5 48.5t93.5 17.5zM272 378q-32 0 -58.5 -11t-45.5 -31t-30 -47.5t-11 -59.5q0 -72 40 -115t105 -43
q71 0 112 42t41 115q0 33 -11.5 60.5t-31.5 47.5t-48.5 31t-61.5 11zM388 654l-112 -147h-55l67 147h100z" />
    <glyph glyph-name="ograve" unicode="&#xf2;" horiz-adv-x="552" 
d="M273 458q53 0 97.5 -17t77 -47.5t50.5 -72.5t18 -92q0 -53 -17.5 -97t-50 -75.5t-77 -48.5t-98.5 -17q-52 0 -95.5 18t-75 49.5t-49 75t-17.5 95.5q0 48 18 90t50 73t75.5 48.5t93.5 17.5zM272 378q-32 0 -58.5 -11t-45.5 -31t-30 -47.5t-11 -59.5q0 -72 40 -115t105 -43
q71 0 112 42t41 115q0 33 -11.5 60.5t-31.5 47.5t-48.5 31t-61.5 11zM337 507h-55l-112 147h100z" />
    <glyph glyph-name="ocircumflex" unicode="&#xf4;" horiz-adv-x="552" 
d="M273 458q53 0 97.5 -17t77 -47.5t50.5 -72.5t18 -92q0 -53 -17.5 -97t-50 -75.5t-77 -48.5t-98.5 -17q-52 0 -95.5 18t-75 49.5t-49 75t-17.5 95.5q0 48 18 90t50 73t75.5 48.5t93.5 17.5zM272 378q-32 0 -58.5 -11t-45.5 -31t-30 -47.5t-11 -59.5q0 -72 40 -115t105 -43
q71 0 112 42t41 115q0 33 -11.5 60.5t-31.5 47.5t-48.5 31t-61.5 11zM416 506h-55l-87 87l-83 -87h-53l91 151h93z" />
    <glyph glyph-name="odieresis" unicode="&#xf6;" horiz-adv-x="552" 
d="M273 458q53 0 97.5 -17t77 -47.5t50.5 -72.5t18 -92q0 -53 -17.5 -97t-50 -75.5t-77 -48.5t-98.5 -17q-52 0 -95.5 18t-75 49.5t-49 75t-17.5 95.5q0 48 18 90t50 73t75.5 48.5t93.5 17.5zM272 378q-32 0 -58.5 -11t-45.5 -31t-30 -47.5t-11 -59.5q0 -72 40 -115t105 -43
q71 0 112 42t41 115q0 33 -11.5 60.5t-31.5 47.5t-48.5 31t-61.5 11zM184 628q20 0 33 -13t13 -33t-13 -33.5t-33 -13.5t-33.5 13.5t-13.5 33.5t13.5 33t33.5 13zM370 628q20 0 33 -13t13 -33t-13 -33.5t-33 -13.5t-33.5 13.5t-13.5 33.5t13.5 33t33.5 13z" />
    <glyph glyph-name="otilde" unicode="&#xf5;" horiz-adv-x="552" 
d="M273 458q53 0 97.5 -17t77 -47.5t50.5 -72.5t18 -92q0 -53 -17.5 -97t-50 -75.5t-77 -48.5t-98.5 -17q-52 0 -95.5 18t-75 49.5t-49 75t-17.5 95.5q0 48 18 90t50 73t75.5 48.5t93.5 17.5zM272 378q-32 0 -58.5 -11t-45.5 -31t-30 -47.5t-11 -59.5q0 -72 40 -115t105 -43
q71 0 112 42t41 115q0 33 -11.5 60.5t-31.5 47.5t-48.5 31t-61.5 11zM423 643q0 -54 -22 -86t-57 -32q-21 0 -38.5 5.5t-34 12t-32.5 12t-34 5.5q-29 0 -34 -35h-41q4 55 23.5 85t54.5 30q19 0 39 -5.5t39 -12l35.5 -12t27.5 -5.5q30 0 36 38h38z" />
    <glyph glyph-name="uacute" unicode="&#xfa;" 
d="M348 0v57q-28 -30 -64 -48t-69 -18q-69 0 -112 46.5t-43 132.5v279h89v-285q0 -48 23 -73.5t69 -25.5q62 0 107 63v321h89v-449h-89zM362 654l-112 -147h-55l67 147h100z" />
    <glyph glyph-name="ugrave" unicode="&#xf9;" 
d="M348 0v57q-28 -30 -64 -48t-69 -18q-69 0 -112 46.5t-43 132.5v279h89v-285q0 -48 23 -73.5t69 -25.5q62 0 107 63v321h89v-449h-89zM311 507h-55l-112 147h100z" />
    <glyph glyph-name="ucircumflex" unicode="&#xfb;" 
d="M348 0v57q-28 -30 -64 -48t-69 -18q-69 0 -112 46.5t-43 132.5v279h89v-285q0 -48 23 -73.5t69 -25.5q62 0 107 63v321h89v-449h-89zM390 506h-55l-87 87l-83 -87h-53l91 151h93z" />
    <glyph glyph-name="udieresis" unicode="&#xfc;" 
d="M348 0v57q-28 -30 -64 -48t-69 -18q-69 0 -112 46.5t-43 132.5v279h89v-285q0 -48 23 -73.5t69 -25.5q62 0 107 63v321h89v-449h-89zM158 628q20 0 33 -13t13 -33t-13 -33.5t-33 -13.5t-33.5 13.5t-13.5 33.5t13.5 33t33.5 13zM344 628q20 0 33 -13t13 -33t-13 -33.5
t-33 -13.5t-33.5 13.5t-13.5 33.5t13.5 33t33.5 13z" />
    <glyph glyph-name="dagger" unicode="&#x2020;" horiz-adv-x="490" 
d="M249 691q22 0 33.5 -24.5t11.5 -69.5q0 -19 -3.5 -43t-8 -49t-9.5 -48.5t-8 -42.5q35 12 66 19t61 7q12 0 24.5 -2.5t23 -8t17 -13.5t6.5 -20q0 -24 -21.5 -35t-45.5 -11q-29 0 -66.5 9t-65.5 17l9.5 -102.5t10.5 -120t8.5 -120t3.5 -101.5q0 -33 -2 -62.5t-7.5 -51.5
t-15.5 -35t-27 -13q-34 0 -43.5 37t-9.5 106q0 26 2 63.5t4.5 80t6.5 88.5l7.5 88.5t7 79.5t6.5 63q-28 -9 -63 -17.5t-64 -8.5q-12 0 -24.5 2t-23 7.5t-17 13.5t-6.5 20q0 18 15.5 32.5t57.5 14.5q29 0 63.5 -8t61.5 -18q-5 21 -9.5 45.5l-9 49t-7 47t-2.5 40.5q0 45 12 70
t40 25z" />
    <glyph glyph-name="degree" unicode="&#xb0;" horiz-adv-x="396" 
d="M197 675q-35 0 -58.5 -23.5t-23.5 -58.5t23.5 -59t58.5 -24t59 24t24 59t-24 58.5t-59 23.5zM197 728q28 0 52.5 -10.5t43 -29t29 -43t10.5 -52.5t-10.5 -52.5t-29 -43t-43 -29t-52.5 -10.5t-52.5 10.5t-43 29t-29 43t-10.5 52.5t10.5 52.5t29 43t43 29t52.5 10.5z" />
    <glyph glyph-name="cent" unicode="&#xa2;" horiz-adv-x="438" 
d="M345 445q9 -4 23 -9t22 -10v-94q-15 12 -35 21.5t-38 14.5l-102 -281q22 -9 47 -11.5t49.5 0.5t47 10.5t41.5 18.5v-86q-58 -21 -108.5 -26.5t-106.5 7.5l-69 -190h-47l77 209q-49 28 -78.5 81t-29.5 116q0 57 17.5 104.5t51.5 80t83.5 47.5t112.5 7l59 165h46zM274 375
q-35 3 -61.5 -9.5t-45.5 -34t-28.5 -50.5t-9.5 -60q0 -69 49 -112z" />
    <glyph glyph-name="sterling" unicode="&#xa3;" horiz-adv-x="531" 
d="M225 288q6 -41 6 -85q0 -28 -8.5 -53.5t-23.5 -49.5q6 1 12 1h12q21 0 42 -3.5t42 -7.5t43 -7.5t45 -3.5q26 0 49.5 4t49.5 18v-88q-22 -11 -45.5 -16.5t-53.5 -5.5q-22 0 -44.5 4l-45.5 8.5t-47.5 8.5t-49.5 4q-18 0 -34.5 -1t-33.5 -4t-35 -8t-40 -12v68q47 29 64 65.5
t17 78.5q0 23 -2 44t-5 41h-73v86h56q-8 36 -14.5 71.5t-6.5 73.5q0 39 14.5 71t40.5 54.5t62.5 34.5t81.5 12t85.5 -12t72.5 -30v-100q-42 26 -79 40t-79 14q-23 0 -42.5 -4.5t-34.5 -14.5t-23.5 -26.5t-8.5 -41.5q0 -36 5.5 -70.5t13.5 -71.5h220v-86h-205z" />
    <glyph glyph-name="section" unicode="&#xa7;" horiz-adv-x="406" 
d="M150 559q0 -33 16.5 -60.5t41.5 -53.5t54 -52.5t54 -57.5t41.5 -68t16.5 -84q0 -42 -17.5 -77t-56.5 -74q35 -52 35 -113q0 -32 -12 -59t-33.5 -47t-50.5 -31.5t-63 -11.5q-48 0 -80.5 26t-32.5 65q0 25 16.5 42.5t39.5 17.5q21 0 34 -14t13 -33q0 -5 -2.5 -11.5
t-2.5 -13t5 -11t19 -4.5q29 0 50.5 21t21.5 50q0 31 -16.5 59.5t-41.5 56t-54.5 56.5t-54.5 62t-41.5 71.5t-16.5 85.5q0 45 15.5 78.5t50.5 65.5q-13 22 -20.5 47.5t-7.5 50.5q0 19 7.5 45.5t25 50.5t47 40.5t73.5 16.5q51 0 84 -24t33 -61q0 -24 -14.5 -39.5t-37.5 -15.5
q-19 0 -29.5 13t-10.5 26q0 17 -3.5 27t-25.5 10q-32 0 -50.5 -18t-18.5 -50zM140 384q-14 -14 -23 -34.5t-9 -37.5q0 -32 13.5 -59.5t35.5 -53.5t48.5 -52.5t53.5 -56.5q20 20 28.5 42t8.5 43q0 33 -15 59.5t-38 50.5t-50.5 48t-52.5 51z" />
    <glyph glyph-name="bullet" unicode="&#x2022;" horiz-adv-x="354" 
d="M177 465q25 0 48 -10t39.5 -26.5t26.5 -39.5t10 -48q0 -26 -10 -48.5t-26.5 -39t-39.5 -26.5t-48 -10q-26 0 -48.5 10t-39 26.5t-26.5 39t-10 48.5q0 25 10 48t26.5 39.5t39 26.5t48.5 10z" />
    <glyph glyph-name="paragraph" unicode="&#xb6;" horiz-adv-x="542" 
d="M198 311q-93 5 -145 59t-52 144q0 97 59.5 149.5t170.5 52.5h309v-80h-70v-835h-83v835h-109v-835h-80v510z" />
    <glyph glyph-name="germandbls" unicode="&#xdf;" 
d="M59 517q0 42 14 74.5t39 54.5t60 33.5t77 11.5q89 0 139.5 -43.5t50.5 -121.5q0 -51 -26.5 -90.5t-72.5 -58.5v-2q60 -15 93.5 -62t33.5 -117q0 -46 -13 -84t-36.5 -65t-57 -41.5t-73.5 -14.5q-16 0 -28.5 2t-35.5 7v87q15 -7 24 -9t24 -2q48 0 76.5 33.5t28.5 88.5
q0 26 -6.5 50.5t-22.5 43.5t-44.5 30t-71.5 10v80q58 -2 87.5 25.5t29.5 78.5q0 45 -28 75.5t-70 30.5q-21 0 -40 -6t-32.5 -19.5t-21.5 -35.5t-8 -55v-506h-89v517z" />
    <glyph glyph-name="registered" unicode="&#xae;" horiz-adv-x="740" 
d="M208 552h175q37 0 62 -10t40.5 -25.5t22 -34t6.5 -34.5q0 -48 -31 -79.5t-82 -34.5v-2q26 -9 46.5 -34t45.5 -65l48 -77h-78l-35 62q-19 33 -33 54t-26.5 32.5t-26.5 15.5t-32 4h-38v-168h-64v396zM364 379q37 0 59.5 14.5t22.5 45.5q0 27 -19.5 43t-51.5 16h-103v-119
h92zM677 360q0 64 -24 120t-66 97.5t-98 65.5t-120 24t-120 -24t-97.5 -65.5t-65.5 -97.5t-24 -120t24 -120t65.5 -98t97.5 -66t120 -24t120 24t98 66t66 98t24 120zM738 360q0 -77 -29 -144t-79 -117t-117.5 -79t-143.5 -29q-77 0 -144 29t-116.5 79t-78.5 117t-29 144
q0 76 29 143.5t78.5 117t116.5 78.5t144 29q76 0 143.5 -29t117.5 -78.5t79 -117t29 -143.5z" />
    <glyph glyph-name="copyright" unicode="&#xa9;" horiz-adv-x="740" 
d="M548 282q-15 -64 -62.5 -98.5t-119.5 -34.5q-44 0 -78.5 15t-59.5 43t-38 68t-13 90q0 46 14 83t40 63t62 40.5t81 14.5q64 0 107 -29.5t60 -85.5l-58 -14q-30 75 -114 75q-57 0 -91 -42.5t-34 -114.5q0 -70 33 -109.5t93 -39.5q43 0 75 25.5t43 68.5zM738 360
q0 -77 -29 -144t-79 -117t-117.5 -79t-143.5 -29q-77 0 -144 29t-116.5 79t-78.5 117t-29 144q0 76 29 143.5t78.5 117t116.5 78.5t144 29q76 0 143.5 -29t117.5 -78.5t79 -117t29 -143.5zM677 360q0 64 -24 120t-66 97.5t-98 65.5t-120 24t-120 -24t-97.5 -65.5
t-65.5 -97.5t-24 -120t24 -120t65.5 -98t97.5 -66t120 -24t120 24t98 66t66 98t24 120z" />
    <glyph glyph-name="trademark" unicode="&#x2122;" horiz-adv-x="1000" 
d="M239 657h-129v59h325v-59h-130v-339h-66v339zM480 716h98l99 -318h2l96 318h96v-398h-61v334h-2l-100 -334h-60l-105 339h-2v-339h-61v398z" />
    <glyph glyph-name="acute" unicode="&#xb4;" horiz-adv-x="333" 
d="M278 654l-112 -147h-55l67 147h100z" />
    <glyph glyph-name="dieresis" unicode="&#xa8;" horiz-adv-x="333" 
d="M74 628q20 0 33 -13t13 -33t-13 -33.5t-33 -13.5t-33.5 13.5t-13.5 33.5t13.5 33t33.5 13zM260 628q20 0 33 -13t13 -33t-13 -33.5t-33 -13.5t-33.5 13.5t-13.5 33.5t13.5 33t33.5 13z" />
    <glyph glyph-name="AE" unicode="&#xc6;" horiz-adv-x="896" 
d="M851 594h-280v-205h271v-88h-271v-213h291v-88h-389v301h-191l-179 -301h-101l404 682h445v-88zM332 389h141v233h-2z" />
    <glyph glyph-name="Oslash" unicode="&#xd8;" horiz-adv-x="823" 
d="M558 561q-33 19 -67.5 29.5t-79.5 10.5q-57 0 -105.5 -19.5t-84 -54t-55.5 -82.5t-20 -104q0 -55 18.5 -99t51.5 -82zM151 -4l-47 33l49 57q-52 52 -80 116t-28 139q0 71 26 134.5t74 111.5t115.5 76t150.5 28q62 0 113 -14t96 -43l51 59l46 -40l-48 -56
q53 -47 81 -115.5t28 -140.5q0 -69 -25 -132.5t-72.5 -111.5t-116 -77t-155.5 -29q-56 0 -111 15t-100 45zM261 124q31 -19 67.5 -31t82.5 -12q57 0 106 19.5t84.5 54.5t55.5 82.5t20 103.5q0 57 -19.5 102.5t-52.5 79.5z" />
    <glyph glyph-name="plusminus" unicode="&#xb1;" horiz-adv-x="584" 
d="M528 82v-82h-472v82h472zM333 589v-195h195v-82h-195v-195h-82v195h-195v82h195v195h82z" />
    <glyph glyph-name="yen" unicode="&#xa5;" horiz-adv-x="552" 
d="M233 159h-203v67h203v70h-203v73h167l-198 347h98l180 -322l173 322h103l-196 -347h165v-73h-200v-70h200v-67h-200v-159h-89v159z" />
    <glyph glyph-name="mu" unicode="&#xb5;" horiz-adv-x="552" 
d="M469 0h-82v53h-2q-19 -33 -43 -47.5t-62 -14.5q-33 0 -57.5 12.5t-44.5 41.5h-2v-217h-89v621h89v-248q0 -73 27.5 -108t71.5 -35q50 0 77.5 37t27.5 104v250h89v-449z" />
    <glyph glyph-name="mu" unicode="&#x3bc;" horiz-adv-x="552" 
d="M469 0h-82v53h-2q-19 -33 -43 -47.5t-62 -14.5q-33 0 -57.5 12.5t-44.5 41.5h-2v-217h-89v621h89v-248q0 -73 27.5 -108t71.5 -35q50 0 77.5 37t27.5 104v250h89v-449z" />
    <glyph glyph-name="ordfeminine" unicode="&#xaa;" horiz-adv-x="281" 
d="M273 432q-22 -14 -34.5 -18.5t-28.5 -4.5q-38 0 -47 23q-16 -11 -35.5 -17t-37.5 -6q-32 0 -53.5 20t-21.5 49q0 21 11 36t31 26.5t47 20.5t59 17q0 32 -8 44.5t-37 12.5q-26 0 -47.5 -11.5t-50.5 -40.5v69q36 39 103 39q21 0 40.5 -5t34.5 -15.5t24 -27.5t9 -41v-126
q0 -14 1 -18t4 -4q4 0 12 4.5t25 15.5v-42zM163 543q-40 -14 -59.5 -24.5t-19.5 -31.5q0 -34 35 -34q12 0 21 3.5t23 14.5v72z" />
    <glyph glyph-name="ordmasculine" unicode="&#xba;" horiz-adv-x="365" 
d="M342 550q0 -30 -12 -56t-33.5 -45t-51 -29.5t-63.5 -10.5t-63 10.5t-50.5 29.5t-33.5 45t-12 56t12 56t33.5 45t50.5 29.5t63 10.5t63.5 -10.5t51 -29.5t33.5 -45t12 -56zM273 550q0 39 -24.5 63t-65.5 24q-42 0 -66.5 -24t-24.5 -63t24.5 -63t66.5 -24q41 0 65.5 24
t24.5 63z" />
    <glyph glyph-name="ae" unicode="&#xe6;" horiz-adv-x="667" 
d="M629 39q-30 -22 -68.5 -35t-82.5 -13q-49 0 -91 19t-63 51q-86 -70 -172 -70q-26 0 -47 8.5t-37 24t-24.5 36.5t-8.5 46q0 32 14 55.5t42 42t71 34t100 30.5q4 54 -12.5 82t-58.5 28q-43 0 -77 -18t-69 -59v107q26 22 63 36t82 14q42 0 77 -15.5t57 -42.5q26 26 62 42
t70 16q39 0 71.5 -15t55.5 -42.5t34.5 -67.5t9.5 -90h-276q0 -44 11.5 -76t30.5 -53.5t44 -32t53 -10.5q35 0 67.5 14t71.5 43v-89zM539 302q-5 39 -25 57.5t-62 18.5q-31 0 -54.5 -20.5t-35.5 -55.5h177zM262 224q-67 -25 -101.5 -46.5t-34.5 -53.5q0 -30 17.5 -51
t43.5 -21q9 0 16 1t15 3.5t18.5 8t25.5 14.5v145z" />
    <glyph glyph-name="oslash" unicode="&#xf8;" horiz-adv-x="552" 
d="M359 355q-14 8 -36.5 15.5t-50.5 7.5q-32 0 -58.5 -11t-45.5 -31t-30 -47.5t-11 -59.5q0 -27 8 -56t25 -50zM82 -37l-33 30l55 64q-32 32 -50 76t-18 96q0 48 18 90t50 73t75.5 48.5t93.5 17.5q42 0 78 -10.5t62 -28.5l47 54l33 -30l-44 -51q67 -67 67 -163
q0 -53 -17.5 -97t-50 -75.5t-77 -48.5t-98.5 -17q-40 0 -74.5 10.5t-60.5 27.5zM193 93q17 -11 35.5 -16.5t43.5 -5.5q71 0 112 42t41 115q0 22 -8 49t-25 48z" />
    <glyph glyph-name="questiondown" unicode="&#xbf;" horiz-adv-x="414" 
d="M245.011 387.007q-24.999 0 -42.498 17.499t-17.499 42.4971q0 24.999 17.499 42.498q17.499 17.498 42.498 17.498q24.998 0 42.4971 -17.498q17.499 -17.499 17.499 -42.498q0 -24.998 -17.499 -42.4971t-42.4971 -17.499zM289.008 304.012
q13.999 -15.999 18.499 -31.498q4.49902 -15.499 4.49902 -31.498q0 -30.998 -13.499 -54.4971q-13.499 -23.498 -33.498 -43.4971q-19.998 -19.999 -43.4971 -37.4971q-23.498 -17.499 -43.4971 -36.998t-33.498 -41.498q-13.499 -21.998 -13.499 -50.9961
q0 -16.999 4.99902 -32.998q5 -15.999 16.999 -28.499q12 -12.499 30.498 -19.998q18.499 -7.5 45.498 -7.5q46.9971 0 85.4941 11.999q38.498 12 84.4951 38.998v-84.9951q-19.999 -11.999 -38.998 -20.498q-18.998 -8.5 -39.4971 -14.5
q-20.499 -5.99902 -43.4971 -8.49902q-22.999 -2.5 -50.9971 -2.5q-39.998 0 -73.9961 10.499q-33.998 10.5 -58.9961 31.499q-24.998 20.998 -38.998 52.9961q-13.999 31.998 -13.999 73.9961q0 40.9971 13.5 71.4951q13.499 30.498 34.4971 52.9971
q20.999 22.498 44.498 40.4971l44.4971 35.498t34.498 35.998t13.499 43.4971q0 14.999 -4.5 25.999q-4.5 10.999 -10.499 21.998h78.9951z" />
    <glyph glyph-name="exclamdown" unicode="&#xa1;" horiz-adv-x="271" 
d="M136 388.007q25 0 42.5 17.499t17.5 42.4971q0 24.999 -17.5 42.498q-17.5 17.498 -42.5 17.498t-42.5 -17.498q-17.5 -17.499 -17.5 -42.498q0 -24.998 17.5 -42.4971t42.5 -17.499zM169 305.012h-70l-9 -487.97h89z" />
    <glyph glyph-name="logicalnot" unicode="&#xac;" horiz-adv-x="584" 
d="M446 126v213h-391v82h473v-295h-82z" />
    <glyph glyph-name="florin" unicode="&#x192;" horiz-adv-x="552" 
d="M40 -122q26 -6 43.5 -8.5t31.5 -2.5q48 0 58 59l90 524h-98l11 68h99l14 85q11 67 45.5 96.5t94.5 29.5q21 0 44.5 -4.5t56.5 -14.5l-17 -75l-46 10.5t-32 3.5q-30 0 -41.5 -19.5t-19.5 -60.5l-9 -51h99l-12 -68h-100l-93 -533q-12 -70 -41.5 -98.5t-88.5 -28.5
q-20 0 -48.5 3t-57.5 9z" />
    <glyph glyph-name="guillemotleft" unicode="&#xab;" horiz-adv-x="490" 
d="M468 0h-88l-147 225l147 225h88l-148 -225zM265 0h-88l-147 225l147 225h88l-148 -225z" />
    <glyph glyph-name="guillemotright" unicode="&#xbb;" horiz-adv-x="490" 
d="M225 450h88l147 -225l-147 -225h-88l148 225zM22 450h88l147 -225l-147 -225h-88l148 225z" />
    <glyph glyph-name="ellipsis" unicode="&#x2026;" horiz-adv-x="1000" 
d="M166 111q25 0 42.5 -17.5t17.5 -42.5t-17.5 -42.5t-42.5 -17.5t-42.5 17.5t-17.5 42.5t17.5 42.5t42.5 17.5zM500 111q25 0 42.5 -17.5t17.5 -42.5t-17.5 -42.5t-42.5 -17.5t-42.5 17.5t-17.5 42.5t17.5 42.5t42.5 17.5zM834 111q25 0 42.5 -17.5t17.5 -42.5t-17.5 -42.5
t-42.5 -17.5t-42.5 17.5t-17.5 42.5t17.5 42.5t42.5 17.5z" />
    <glyph glyph-name="Agrave" unicode="&#xc0;" horiz-adv-x="667" 
d="M667 0h-100l-91 201h-290l-86 -201h-100l293 686h69zM224 289h212l-110 247zM394 727h-55l-112 147h100z" />
    <glyph glyph-name="Atilde" unicode="&#xc3;" horiz-adv-x="667" 
d="M667 0h-100l-91 201h-290l-86 -201h-100l293 686h69zM224 289h212l-110 247zM480 863q0 -54 -22 -86t-57 -32q-21 0 -38.5 5.5t-34 12t-32.5 12t-34 5.5q-29 0 -34 -35h-41q4 55 23.5 85t54.5 30q19 0 39 -5.5t39 -12l35.5 -12t27.5 -5.5q30 0 36 38h38z" />
    <glyph glyph-name="Otilde" unicode="&#xd5;" horiz-adv-x="823" 
d="M45 341q0 71 26 134.5t74 111.5t115.5 76t150.5 28q84 0 152 -28t116 -76t73.5 -111.5t25.5 -134.5q0 -69 -25 -132.5t-72.5 -111.5t-116 -77t-155.5 -29q-84 0 -151 28.5t-114.5 77t-73 112t-25.5 132.5zM146 341q0 -56 20 -103.5t55.5 -82.5t84 -54.5t105.5 -19.5
t106 19.5t84.5 54.5t55.5 82.5t20 103.5t-20 104t-55.5 82.5t-84.5 54t-106 19.5t-105.5 -19.5t-84 -54t-55.5 -82.5t-20 -104zM558 863q0 -54 -22 -86t-57 -32q-21 0 -38.5 5.5t-34 12t-32.5 12t-34 5.5q-29 0 -34 -35h-41q4 55 23.5 85t54.5 30q19 0 39 -5.5t39 -12
l35.5 -12t27.5 -5.5q30 0 36 38h38z" />
    <glyph glyph-name="OE" unicode="&#x152;" horiz-adv-x="917" 
d="M875 594h-279v-205h269v-88h-269v-213h290v-88h-444q-83 0 -155 24t-125.5 68t-84 107t-30.5 141q0 76 28 139t79 108t122 70t157 25h442v-88zM498 597h-57q-73 0 -128 -21.5t-91.5 -57t-55 -82t-18.5 -95.5q0 -54 21.5 -101t59.5 -81.5t89.5 -54t111.5 -19.5h68v512z
" />
    <glyph glyph-name="oe" unicode="&#x153;" horiz-adv-x="833" 
d="M798 39q-14 -9 -29.5 -17.5t-34.5 -15.5t-43 -11t-55 -4q-55 0 -98 23t-69 66q-35 -44 -85 -66.5t-110 -22.5q-49 0 -92.5 17.5t-76 48t-51.5 71t-19 86.5q0 54 18 99t50 77t77.5 50t99.5 18q61 0 106.5 -22.5t82.5 -70.5q27 46 68.5 69.5t92.5 23.5q33 0 64.5 -13.5
t54.5 -40.5t36.5 -67t10.5 -94h-280q-3 -39 6.5 -71t28 -54.5t45.5 -34.5t59 -12q38 0 71 13.5t72 44.5v-90zM708 302q-9 76 -83 76q-76 0 -100 -76h183zM278 378q-33 0 -61 -12.5t-48.5 -34t-31.5 -50.5t-11 -63q0 -30 11.5 -56.5t32 -46.5t47.5 -32t58 -12q34 0 61 11.5
t46.5 32.5t30 49.5t10.5 62.5q0 30 -11 57.5t-30.5 48.5t-46 33t-57.5 12z" />
    <glyph glyph-name="endash" unicode="&#x2013;" 
d="M509 221h-518v64h518v-64z" />
    <glyph glyph-name="emdash" unicode="&#x2014;" horiz-adv-x="1000" 
d="M1009 221h-1018v64h1018v-64z" />
    <glyph glyph-name="quotedblleft" unicode="&#x201c;" horiz-adv-x="427" 
d="M373 672q-15 -13 -23.5 -26t-12.5 -26t-4.5 -26.5t0.5 -28.5q24 -3 38.5 -19t14.5 -40q0 -30 -17 -45.5t-43 -15.5q-31 0 -49 27.5t-18 65.5q0 56 29 96t85 57v-19zM155 672q-15 -13 -23.5 -26t-12.5 -26t-4.5 -26.5t0.5 -28.5q24 -3 38.5 -19t14.5 -40q0 -30 -17 -45.5
t-43 -15.5q-31 0 -49 27.5t-18 65.5q0 56 29 96t85 57v-19z" />
    <glyph glyph-name="quotedblright" unicode="&#x201d;" horiz-adv-x="427" 
d="M272 464q15 13 23.5 26t12.5 26t4.5 26.5t-0.5 28.5q-24 3 -38.5 19t-14.5 40q0 30 17 45.5t43 15.5q31 0 49 -27.5t18 -65.5q0 -56 -29 -96t-85 -57v19zM54 464q15 13 23.5 26t12.5 26t4.5 26.5t-0.5 28.5q-24 3 -38.5 19t-14.5 40q0 30 17 45.5t43 15.5q31 0 49 -27.5
t18 -65.5q0 -56 -29 -96t-85 -57v19z" />
    <glyph glyph-name="quoteleft" unicode="&#x2018;" horiz-adv-x="219" 
d="M160 672q-15 -13 -23.5 -26t-12.5 -26t-4.5 -26.5t0.5 -28.5q24 -3 38.5 -19t14.5 -40q0 -30 -17 -45.5t-43 -15.5q-31 0 -49 27.5t-18 65.5q0 56 29 96t85 57v-19z" />
    <glyph glyph-name="quoteright" unicode="&#x2019;" horiz-adv-x="219" 
d="M59 464q15 13 23.5 26t12.5 26t4.5 26.5t-0.5 28.5q-24 3 -38.5 19t-14.5 40q0 30 17 45.5t43 15.5q31 0 49 -27.5t18 -65.5q0 -56 -29 -96t-85 -57v19z" />
    <glyph glyph-name="divide" unicode="&#xf7;" horiz-adv-x="584" 
d="M528 394v-82h-472v82h472zM292 259q22 0 37.5 -15.5t15.5 -37.5t-15.5 -37.5t-37.5 -15.5t-37.5 15.5t-15.5 37.5t15.5 37.5t37.5 15.5zM292 553q22 0 37.5 -15.5t15.5 -37.5t-15.5 -37.5t-37.5 -15.5t-37.5 15.5t-15.5 37.5t15.5 37.5t37.5 15.5z" />
    <glyph glyph-name="ydieresis" unicode="&#xff;" horiz-adv-x="438" 
d="M120 -230h-99l153 326l-174 353h101l121 -253l116 253h100zM127 628q20 0 33 -13t13 -33t-13 -33.5t-33 -13.5t-33.5 13.5t-13.5 33.5t13.5 33t33.5 13zM313 628q20 0 33 -13t13 -33t-13 -33.5t-33 -13.5t-33.5 13.5t-13.5 33.5t13.5 33t33.5 13z" />
    <glyph glyph-name="Ydieresis" unicode="&#x178;" horiz-adv-x="604" 
d="M486 682h118l-253 -322v-360h-98v361l-253 321h118l183 -235zM210 848q20 0 33 -13t13 -33t-13 -33.5t-33 -13.5t-33.5 13.5t-13.5 33.5t13.5 33t33.5 13zM396 848q20 0 33 -13t13 -33t-13 -33.5t-33 -13.5t-33.5 13.5t-13.5 33.5t13.5 33t33.5 13z" />
    <glyph glyph-name="fraction" unicode="&#x2044;" horiz-adv-x="198" 
d="M-95 -27h-67l455 718h67z" />
    <glyph glyph-name="currency" unicode="&#xa4;" horiz-adv-x="552" 
d="M515 159l-57 -57l-67 67q-22 -15 -51.5 -25t-63.5 -10q-36 0 -65 10.5t-50 24.5l-67 -67l-57 57l67 67q-14 20 -24.5 50.5t-10.5 64.5q0 35 10.5 65t24.5 50l-67 67l57 57l67 -67q19 14 50 24.5t65 10.5q33 0 62 -9.5t53 -25.5l67 67l57 -57l-67 -67q9 -12 15.5 -27.5
t11 -31t6.5 -30t2 -26.5q0 -30 -10 -62t-25 -53zM276 468q-26 0 -49.5 -10t-40.5 -27.5t-27 -40.5t-10 -49t10 -49.5t27 -40.5t40.5 -27t49.5 -10t49 10t40.5 27t27.5 40.5t10 49.5t-10 49t-27.5 40.5t-40.5 27.5t-49 10z" />
    <glyph glyph-name="guilsinglleft" unicode="&#x2039;" horiz-adv-x="313" 
d="M271 0h-88l-147 225l147 225h88l-148 -225z" />
    <glyph glyph-name="guilsinglright" unicode="&#x203a;" horiz-adv-x="313" 
d="M42 450h88l147 -225l-147 -225h-88l148 225z" />
    <glyph glyph-name="daggerdbl" unicode="&#x2021;" horiz-adv-x="490" 
d="M244 691q15 0 25 -8.5t15 -21.5t7 -29t2 -31q0 -17 -3 -38.5t-7.5 -44.5t-9.5 -44.5l-9 -37.5q14 5 30.5 10t34 9t34.5 6.5t32 2.5q26 0 47 -10.5t21 -36.5q0 -12 -7 -20t-17.5 -13t-23 -7.5t-24.5 -2.5q-29 0 -63.5 8.5t-63.5 16.5q0 -17 2.5 -38.5t5.5 -44.5t5.5 -44.5
t2.5 -39.5q0 -19 -2.5 -41t-5.5 -44.5t-5.5 -44.5t-2.5 -41q11 4 28 9t35 8.5t35.5 6t29.5 2.5t24.5 -2.5t23 -8t17 -13.5t6.5 -20q0 -27 -21.5 -36.5t-48.5 -9.5q-14 0 -31 2.5t-34.5 6.5t-34 9t-29.5 10q4 -15 9 -36.5t9.5 -44.5t7.5 -45t3 -37t-2 -31.5t-7 -30t-14.5 -22
t-24.5 -8.5t-24 8.5t-14.5 21.5t-7.5 28.5t-2 30.5q0 38 9.5 83.5t19.5 82.5q-14 -5 -31 -10t-34.5 -9t-34.5 -6.5t-32 -2.5q-26 0 -46.5 10t-20.5 36q0 12 7 20.5t17.5 13.5t23.5 7.5t25 2.5q11 0 28 -2.5t35 -6.5t35 -8.5l28 -7.5q-1 11 -3.5 35l-5.5 51q-2 27 -4.5 51
t-2.5 35q0 16 2.5 38t5.5 44.5t5.5 44t2.5 38.5q-28 -8 -63.5 -16.5t-64.5 -8.5q-12 0 -24.5 2.5t-23 7.5t-17 13t-6.5 20q0 28 21.5 37.5t49.5 9.5q11 0 29 -2.5t36.5 -7t36 -9.5t27.5 -10q-5 16 -10.5 39t-10 47t-7 47t-2.5 40q0 13 2.5 28t7.5 27t14 20t23 8z" />
    <glyph glyph-name="periodcentered" unicode="&#xb7;" horiz-adv-x="260" 
d="M130 405q25 0 42.5 -17.5t17.5 -42.5t-17.5 -42.5t-42.5 -17.5t-42.5 17.5t-17.5 42.5t17.5 42.5t42.5 17.5z" />
    <glyph glyph-name="quotesinglbase" unicode="&#x201a;" horiz-adv-x="219" 
d="M59 -96q15 13 23.5 26t12.5 26t4.5 26.5t-0.5 28.5q-24 3 -38.5 19t-14.5 40q0 30 17 45.5t43 15.5q31 0 49 -27.5t18 -65.5q0 -56 -29 -96t-85 -57v19z" />
    <glyph glyph-name="quotedblbase" unicode="&#x201e;" horiz-adv-x="427" 
d="M283 -96q15 13 23.5 26t12.5 26t4.5 26.5t-0.5 28.5q-24 3 -38.5 19t-14.5 40q0 30 17 45.5t43 15.5q31 0 49 -27.5t18 -65.5q0 -56 -29 -96t-85 -57v19zM64 -96q15 13 23.5 26t12.5 26t4.5 26.5t-0.5 28.5q-24 3 -38.5 19t-14.5 40q0 30 17 45.5t43 15.5q31 0 49 -27.5
t18 -65.5q0 -56 -29 -96t-85 -57v19z" />
    <glyph glyph-name="perthousand" unicode="&#x2030;" horiz-adv-x="1010" 
d="M845 222q-32 0 -55.5 -23.5t-23.5 -55.5q0 -33 23.5 -56t55.5 -23q33 0 56 23t23 56q0 32 -23 55.5t-56 23.5zM845 296q31 0 59 -12t49 -33t33 -49t12 -59q0 -32 -12 -59.5t-33 -48.5t-49 -33t-59 -12q-32 0 -59.5 12t-48.5 32.5t-33 48.5t-12 60q0 31 12 59t33 49
t48.5 33t59.5 12zM136 -10h-75l449 701h75zM482 296q31 0 59 -12t49 -33t33 -49t12 -59q0 -32 -12 -59.5t-33 -48.5t-49 -33t-59 -12q-32 0 -59.5 12t-48.5 32.5t-33 48.5t-12 60q0 31 12 59t33 49t48.5 33t59.5 12zM482 222q-32 0 -55.5 -23.5t-23.5 -55.5q0 -33 23.5 -56
t55.5 -23q33 0 56 23t23 56q0 32 -23 55.5t-56 23.5zM166 690q31 0 59 -12t49 -33t33 -49t12 -59q0 -32 -12 -59.5t-33 -48.5t-49 -33t-59 -12q-32 0 -59.5 12t-48.5 32.5t-33 48.5t-12 60q0 31 12 59t33 49t48.5 33t59.5 12zM166 616q-32 0 -55.5 -23.5t-23.5 -55.5
q0 -33 23.5 -56t55.5 -23q33 0 56 23t23 56q0 32 -23 55.5t-56 23.5z" />
    <glyph glyph-name="Acircumflex" unicode="&#xc2;" horiz-adv-x="667" 
d="M667 0h-100l-91 201h-290l-86 -201h-100l293 686h69zM224 289h212l-110 247zM473 726h-55l-87 87l-83 -87h-53l91 151h93z" />
    <glyph glyph-name="Ecircumflex" unicode="&#xca;" 
d="M462 594h-289v-206h279v-88h-279v-212h298v-88h-396v682h387v-88zM390 726h-55l-87 87l-83 -87h-53l91 151h93z" />
    <glyph glyph-name="Aacute" unicode="&#xc1;" horiz-adv-x="667" 
d="M667 0h-100l-91 201h-290l-86 -201h-100l293 686h69zM224 289h212l-110 247zM445 874l-112 -147h-55l67 147h100z" />
    <glyph glyph-name="Edieresis" unicode="&#xcb;" 
d="M462 594h-289v-206h279v-88h-279v-212h298v-88h-396v682h387v-88zM158 848q20 0 33 -13t13 -33t-13 -33.5t-33 -13.5t-33.5 13.5t-13.5 33.5t13.5 33t33.5 13zM344 848q20 0 33 -13t13 -33t-13 -33.5t-33 -13.5t-33.5 13.5t-13.5 33.5t13.5 33t33.5 13z" />
    <glyph glyph-name="Egrave" unicode="&#xc8;" 
d="M462 594h-289v-206h279v-88h-279v-212h298v-88h-396v682h387v-88zM311 727h-55l-112 147h100z" />
    <glyph glyph-name="Iacute" unicode="&#xcd;" horiz-adv-x="250" 
d="M174 0h-98v682h98v-682zM238 874l-112 -147h-55l67 147h100z" />
    <glyph glyph-name="Icircumflex" unicode="&#xce;" horiz-adv-x="250" 
d="M174 0h-98v682h98v-682zM266 726h-55l-87 87l-83 -87h-53l91 151h93z" />
    <glyph glyph-name="Idieresis" unicode="&#xcf;" horiz-adv-x="250" 
d="M174 0h-98v682h98v-682zM34 848q20 0 33 -13t13 -33t-13 -33.5t-33 -13.5t-33.5 13.5t-13.5 33.5t13.5 33t33.5 13zM220 848q20 0 33 -13t13 -33t-13 -33.5t-33 -13.5t-33.5 13.5t-13.5 33.5t13.5 33t33.5 13z" />
    <glyph glyph-name="Igrave" unicode="&#xcc;" horiz-adv-x="250" 
d="M174 0h-98v682h98v-682zM187 727h-55l-112 147h100z" />
    <glyph glyph-name="Oacute" unicode="&#xd3;" horiz-adv-x="823" 
d="M45 341q0 71 26 134.5t74 111.5t115.5 76t150.5 28q84 0 152 -28t116 -76t73.5 -111.5t25.5 -134.5q0 -69 -25 -132.5t-72.5 -111.5t-116 -77t-155.5 -29q-84 0 -151 28.5t-114.5 77t-73 112t-25.5 132.5zM146 341q0 -56 20 -103.5t55.5 -82.5t84 -54.5t105.5 -19.5
t106 19.5t84.5 54.5t55.5 82.5t20 103.5t-20 104t-55.5 82.5t-84.5 54t-106 19.5t-105.5 -19.5t-84 -54t-55.5 -82.5t-20 -104zM523 874l-112 -147h-55l67 147h100z" />
    <glyph glyph-name="Ocircumflex" unicode="&#xd4;" horiz-adv-x="823" 
d="M45 341q0 71 26 134.5t74 111.5t115.5 76t150.5 28q84 0 152 -28t116 -76t73.5 -111.5t25.5 -134.5q0 -69 -25 -132.5t-72.5 -111.5t-116 -77t-155.5 -29q-84 0 -151 28.5t-114.5 77t-73 112t-25.5 132.5zM146 341q0 -56 20 -103.5t55.5 -82.5t84 -54.5t105.5 -19.5
t106 19.5t84.5 54.5t55.5 82.5t20 103.5t-20 104t-55.5 82.5t-84.5 54t-106 19.5t-105.5 -19.5t-84 -54t-55.5 -82.5t-20 -104zM551 726h-55l-87 87l-83 -87h-53l91 151h93z" />
    <glyph glyph-name="Ograve" unicode="&#xd2;" horiz-adv-x="823" 
d="M45 341q0 71 26 134.5t74 111.5t115.5 76t150.5 28q84 0 152 -28t116 -76t73.5 -111.5t25.5 -134.5q0 -69 -25 -132.5t-72.5 -111.5t-116 -77t-155.5 -29q-84 0 -151 28.5t-114.5 77t-73 112t-25.5 132.5zM146 341q0 -56 20 -103.5t55.5 -82.5t84 -54.5t105.5 -19.5
t106 19.5t84.5 54.5t55.5 82.5t20 103.5t-20 104t-55.5 82.5t-84.5 54t-106 19.5t-105.5 -19.5t-84 -54t-55.5 -82.5t-20 -104zM472 727h-55l-112 147h100z" />
    <glyph glyph-name="Uacute" unicode="&#xda;" horiz-adv-x="708" 
d="M648 268q0 -63 -19 -114t-56.5 -87t-94.5 -56t-133 -20q-54 0 -105 15.5t-91 48t-64 83t-24 120.5v424h98v-403q0 -29 2 -50t7 -37t12.5 -28.5t19.5 -24.5q58 -58 147 -58q57 0 97 16t63 39q26 26 34.5 63.5t8.5 85.5v397h98v-414zM466 874l-112 -147h-55l67 147h100z
" />
    <glyph glyph-name="Ucircumflex" unicode="&#xdb;" horiz-adv-x="708" 
d="M648 268q0 -63 -19 -114t-56.5 -87t-94.5 -56t-133 -20q-54 0 -105 15.5t-91 48t-64 83t-24 120.5v424h98v-403q0 -29 2 -50t7 -37t12.5 -28.5t19.5 -24.5q58 -58 147 -58q57 0 97 16t63 39q26 26 34.5 63.5t8.5 85.5v397h98v-414zM494 726h-55l-87 87l-83 -87h-53
l91 151h93z" />
    <glyph glyph-name="Ugrave" unicode="&#xd9;" horiz-adv-x="708" 
d="M648 268q0 -63 -19 -114t-56.5 -87t-94.5 -56t-133 -20q-54 0 -105 15.5t-91 48t-64 83t-24 120.5v424h98v-403q0 -29 2 -50t7 -37t12.5 -28.5t19.5 -24.5q58 -58 147 -58q57 0 97 16t63 39q26 26 34.5 63.5t8.5 85.5v397h98v-414zM415 727h-55l-112 147h100z" />
    <glyph glyph-name="dotlessi" unicode="&#x131;" horiz-adv-x="219" 
d="M154 0h-89v449h89v-449z" />
    <glyph glyph-name="circumflex" unicode="&#x2c6;" horiz-adv-x="333" 
d="M306 506h-55l-87 87l-83 -87h-53l91 151h93z" />
    <glyph glyph-name="tilde" unicode="&#x2dc;" horiz-adv-x="333" 
d="M313 643q0 -54 -22 -86t-57 -32q-21 0 -38.5 5.5t-34 12t-32.5 12t-34 5.5q-29 0 -34 -35h-41q4 55 23.5 85t54.5 30q19 0 39 -5.5t39 -12l35.5 -12t27.5 -5.5q30 0 36 38h38z" />
    <glyph glyph-name="macron" unicode="&#xaf;" horiz-adv-x="333" 
d="M332 542h-331v73h331v-73z" />
    <glyph glyph-name="breve" unicode="&#x2d8;" horiz-adv-x="333" 
d="M308 643q-11 -63 -47 -96t-93 -33q-58 0 -95 33t-48 96h67q15 -62 77 -62q57 0 71 62h68z" />
    <glyph glyph-name="dotaccent" unicode="&#x2d9;" horiz-adv-x="333" 
d="M167 628q20 0 33 -13t13 -33t-13 -33.5t-33 -13.5t-33.5 13.5t-13.5 33.5t13.5 33t33.5 13z" />
    <glyph glyph-name="ring" unicode="&#x2da;" horiz-adv-x="333" 
d="M167 691q19 0 36 -7.5t29.5 -20t20 -29.5t7.5 -36t-7.5 -36t-20 -29.5t-29.5 -20t-36 -7.5t-36 7.5t-29.5 20t-20 29.5t-7.5 36t7.5 36t20 29.5t29.5 20t36 7.5zM167 653q-23 0 -39 -16t-16 -39t16 -39t39 -16t39 16t16 39t-16 39t-39 16z" />
    <glyph glyph-name="cedilla" unicode="&#xb8;" horiz-adv-x="333" 
d="M202 -16q25 -7 39.5 -23.5t14.5 -39.5q0 -28 -12 -47.5t-32.5 -30t-49 -13.5t-61.5 2v55q35 -5 59.5 2t24.5 24q0 13 -14.5 20.5t-43.5 4.5l25 70h57z" />
    <glyph glyph-name="hungarumlaut" unicode="&#x2dd;" horiz-adv-x="333" 
d="M169 654l-112 -147h-55l67 147h100zM329 654l-112 -147h-55l67 147h100z" />
    <glyph glyph-name="ogonek" unicode="&#x2db;" horiz-adv-x="333" 
d="M266 -163q-22 -9 -35 -12t-38 -3q-45 0 -73 26.5t-28 67.5q0 48 44 93h67q-17 -20 -26 -39.5t-9 -30.5q0 -19 15 -32.5t36 -13.5q5 0 19 3.5t28 7.5v-67z" />
    <glyph glyph-name="caron" unicode="&#x2c7;" horiz-adv-x="333" 
d="M119 507l-91 151h53l83 -87l87 87h55l-94 -151h-93z" />
    <glyph glyph-name="Eth" unicode="&#xd0;" horiz-adv-x="750" 
d="M76 297h-80v88h80v297h265q85 0 152.5 -29t114.5 -76.5t71.5 -109t24.5 -126.5q0 -66 -25 -128t-71.5 -109t-114 -75.5t-151.5 -28.5h-266v297zM332 88q57 0 106.5 16.5t86 49t57.5 79.5t21 108q0 51 -16.5 97t-51 80.5t-86.5 55t-124 20.5h-151v-209h193v-88h-193v-209
h158z" />
    <glyph glyph-name="Euro" unicode="&#x20ac;" horiz-adv-x="610" 
d="M498 444l-14 -76h-288q-2 -14 -1.5 -28.5t1.5 -25.5h278l-14 -76h-252q12 -43 31 -73t43 -48.5t52 -27t58 -8.5q33 0 60 7.5t48 18.5t36.5 22t24.5 19v-107l-23.5 -15t-35.5 -16.5t-49 -13t-64 -5.5q-54 0 -95 14t-71 36t-50.5 50t-34 55t-21 51.5t-10.5 40.5h-79l14 76
h56q-1 16 -0.5 28t1.5 26h-71l13 76h69q8 37 28.5 80.5t55 80.5t84 61.5t116.5 24.5q59 0 103 -12.5t68 -20.5l-19 -93q-32 13 -69 24.5t-86 11.5q-23 0 -49 -5.5t-50.5 -22.5t-46.5 -47.5t-37 -81.5h290z" />
    <glyph glyph-name="uni00A0" unicode="&#xa0;" horiz-adv-x="278" 
 />
    <glyph glyph-name="notequal" unicode="&#x2260;" horiz-adv-x="549" 
d="M147 -14h-66l95 218h-138v82h174l59 135h-233v82h269l96 217h65l-95 -217h138v-82h-174l-59 -135h233v-82h-269z" />
    <glyph glyph-name="infinity" unicode="&#x221e;" horiz-adv-x="713" 
d="M336 396l33 40t37 36.5t43 27t50 10.5q35 0 61.5 -12.5t44 -34t26.5 -50t9 -60.5q0 -46 -13 -82.5t-56 -61.5q-17 -9 -35 -14.5t-37 -5.5q-28 0 -51 10.5t-42.5 27t-36.5 36.5l-33 40q-26 -33 -61 -58.5t-80 -25.5q-27 0 -49 11t-37.5 29t-24.5 41.5t-9 49.5q0 25 9 48.5
t24.5 41.5t37.5 29t49 11q45 0 80 -25.5t61 -58.5zM370 350q10 -16 23.5 -34.5t29.5 -34.5t35 -26.5t40 -10.5q22 0 38.5 8.5t27.5 23t16 33.5t5 39q0 21 -5 40.5t-16 34t-28 23.5t-40 9q-20 0 -38.5 -11t-34 -27t-29 -34zM303 350l-21.5 25.5t-25 24.5t-29 18.5t-32.5 7.5
q-32 0 -49 -22.5t-17 -52.5t17.5 -53t49.5 -23q16 0 31.5 7t29.5 18.5t25.5 24.5t20.5 25z" />
    <glyph glyph-name="lessequal" unicode="&#x2264;" horiz-adv-x="549" 
d="M38 454l474 200v-88l-376 -153l376 -156v-88l-474 203v82zM38 52v81h473v-81h-473z" />
    <glyph glyph-name="greaterequal" unicode="&#x2265;" horiz-adv-x="549" 
d="M38 169v88l375 156l-375 153v88l474 -200v-82zM38 52v81h473v-81h-473z" />
    <glyph glyph-name="partialdiff" unicode="&#x2202;" horiz-adv-x="494" 
d="M142 585q12 27 29 52.5t39 45.5t49 32.5t59 12.5q51 0 82 -28.5t47.5 -70.5t22 -90t5.5 -87q0 -52 -7.5 -110.5t-25.5 -115t-48 -105t-75 -81.5q-31 -23 -67 -37.5t-74 -14.5t-66.5 13t-47 36t-28 54t-9.5 66q0 83 35 139t90.5 90t125.5 49t141 16q-1 25 -3 62t-11.5 71
t-29.5 58t-56 24q-23 0 -40.5 -10.5t-31 -26.5t-23 -35.5t-16.5 -37.5zM417 389q-41 -3 -79 -7.5t-72 -17t-63 -35t-52 -60.5q-17 -27 -26.5 -58t-9.5 -63q0 -18 6 -34.5t17 -29.5t26 -21t34 -8q21 0 41 8t37 19q36 23 61 59t41.5 77.5t25.5 86t13 84.5z" />
    <glyph glyph-name="summation" unicode="&#x2211;" horiz-adv-x="713" 
d="M672 728v-80h-483l297 -378l-317 -402h508v-78h-617v91l302 385l-294 377v85h604z" />
    <glyph glyph-name="product" unicode="&#x220f;" horiz-adv-x="823" 
d="M744 728v-938h-94v853h-477v-853h-94v938h665z" />
    <glyph glyph-name="pi" unicode="&#x3c0;" horiz-adv-x="690" 
d="M247 0h-88v447h-137v72h646v-72h-118v-447h-88v447h-215v-447z" />
    <glyph glyph-name="integral" unicode="&#x222b;" horiz-adv-x="274" 
d="M274 857q0 -20 -12.5 -35t-33.5 -15q-11 0 -18.5 4t-14 9.5t-12 9.5t-11.5 4q-13 0 -16.5 -10t-3.5 -21q0 -17 1.5 -35.5t3.5 -35.5q8 -77 13 -154t5 -155v-37.5t-1 -37.5q-2 -58 -3.5 -115t-3.5 -115q-1 -17 -2 -40.5t-5 -48.5t-11 -49.5t-19 -43.5t-29.5 -31t-42.5 -12
q-26 0 -42 16.5t-16 42.5q0 20 11.5 34t32.5 14q12 0 20 -5t13.5 -10.5l11 -10.5t13.5 -5q12 0 15.5 10t3.5 20q0 14 -1.5 29t-3.5 29q-21 179 -18 361v19l8 270q1 24 5 58.5t15 67t31.5 55t54.5 22.5q22 0 42 -15t20 -38z" />
    <glyph glyph-name="Omega" unicode="&#x3a9;" horiz-adv-x="768" 
d="M242 78q-88 55 -128.5 132.5t-40.5 181.5q0 73 22 135.5t63 108.5t101 72t136 26q75 0 133.5 -26.5t99 -73t61.5 -109t21 -134.5q0 -202 -168 -313l178 3v-81h-281v86q43 21 75 52t53 69t31.5 81.5t10.5 90.5q0 51 -12 100.5t-38 88.5t-67 62.5t-99 23.5t-99 -23.5
t-67 -62t-38 -87.5t-12 -100q0 -46 9.5 -90t29.5 -82.5t52 -69.5t76 -51v-88h-282v82z" />
    <glyph glyph-name="Omega" unicode="&#x2126;" horiz-adv-x="768" 
d="M242 78q-88 55 -128.5 132.5t-40.5 181.5q0 73 22 135.5t63 108.5t101 72t136 26q75 0 133.5 -26.5t99 -73t61.5 -109t21 -134.5q0 -202 -168 -313l178 3v-81h-281v86q43 21 75 52t53 69t31.5 81.5t10.5 90.5q0 51 -12 100.5t-38 88.5t-67 62.5t-99 23.5t-99 -23.5
t-67 -62t-38 -87.5t-12 -100q0 -46 9.5 -90t29.5 -82.5t52 -69.5t76 -51v-88h-282v82z" />
    <glyph glyph-name="radical" unicode="&#x221a;" horiz-adv-x="549" 
d="M397 -38l-242 499l-97 -45l-17 31l147 74l197 -402h2l126 794h36z" />
    <glyph glyph-name="approxequal" unicode="&#x2248;" horiz-adv-x="549" 
d="M25 460q26 31 60.5 45t75.5 14q34 0 65 -10t60 -22.5t56.5 -22.5t55.5 -10q36 0 69.5 20.5t56.5 46.5v-104q-29 -28 -61 -42t-74 -14q-34 0 -64 10.5t-58.5 22.5t-56.5 22.5t-58 10.5q-41 0 -70 -20t-57 -47v100zM25 284q26 30 60.5 44t75.5 14q34 0 65.5 -10t61 -22.5
t57 -22.5t53.5 -10q36 0 69.5 20.5t56.5 46.5v-104q-29 -28 -61 -41.5t-74 -13.5q-34 0 -64 10t-58.5 22.5t-56.5 22.5t-58 10q-41 0 -70 -20t-57 -46v100z" />
    <glyph glyph-name="Delta" unicode="&#x394;" horiz-adv-x="612" 
d="M13 0l307 677l279 -677h-586zM289 512l-215 -472h410z" />
    <glyph glyph-name="Delta" unicode="&#x2206;" horiz-adv-x="612" 
d="M13 0l307 677l279 -677h-586zM289 512l-215 -472h410z" />
    <glyph glyph-name="lozenge" unicode="&#x25ca;" horiz-adv-x="494" 
d="M472 346l-204 -346h-54l-191 346l191 348h54zM76 346l166 -300l175 300l-175 301z" />
    <glyph glyph-name="Wcircumflex" unicode="&#x174;" horiz-adv-x="1042" 
d="M764 -6h-19l-224 558l-226 -558h-19l-276 688h98l188 -470l189 470h93l190 -470l186 470h97zM660 726h-55l-87 87l-83 -87h-53l91 151h93z" />
    <glyph glyph-name="wcircumflex" unicode="&#x175;" horiz-adv-x="719" 
d="M507 177l117 272h95l-198 -458h-28l-133 314l-132 -314h-28l-200 458h95l118 -272l114 272h66zM498 506h-55l-87 87l-83 -87h-53l91 151h93z" />
    <glyph glyph-name="Ycircumflex" unicode="&#x176;" horiz-adv-x="604" 
d="M486 682h118l-253 -322v-360h-98v361l-253 321h118l183 -235zM441 726h-55l-87 87l-83 -87h-53l91 151h93z" />
    <glyph glyph-name="ycircumflex" unicode="&#x177;" horiz-adv-x="438" 
d="M120 -230h-99l153 326l-174 353h101l121 -253l116 253h100zM358 506h-55l-87 87l-83 -87h-53l91 151h93z" />
    <glyph glyph-name="eth" unicode="&#xf0;" horiz-adv-x="563" 
d="M127 229q0 -72 40 -115t105 -43q71 0 112 42t41 115q0 33 -11.5 60.5t-31.5 47.5t-48.5 31t-61.5 11q-32 0 -58.5 -11t-45.5 -31t-30 -47.5t-11 -59.5zM399 588q30 -35 52.5 -73.5t36.5 -78.5t21 -79.5t7 -74.5q0 -145 -64 -218t-179 -73q-52 0 -95.5 18t-75 49.5t-49 75
t-17.5 95.5q0 48 18 90t50 73t75.5 48.5t93.5 17.5q11 0 26.5 -1.5t32.5 -6t35 -12.5t34 -22l2 2q-11 28 -33.5 62.5t-54.5 67.5l-133 -63l-28 53l113 53q-31 23 -67 40l61 59q26 -11 49 -26t43 -32l121 58l28 -53z" />
    <glyph glyph-name="Lslash" unicode="&#x141;" horiz-adv-x="490" 
d="M310 448l-138 -114v-246h308v-88h-406v263l-89 -73v88l89 73v331h98v-260l138 114v-88z" />
    </font>
</defs>
</svg>
